<svg width="182" height="328" viewBox="0 0 182 328" fill="none" xmlns="http://www.w3.org/2000/svg">
<path d="M1.424 18V6.64H10V18H8.88V7.632H2.544V18H1.424ZM16.8779 18.16C16.1845 18.16 15.5605 17.9787 15.0059 17.616C14.4619 17.2533 14.0299 16.8053 13.7099 16.272V21.408H12.6219V9.664H13.5979V11.28C13.9285 10.7573 14.3712 10.336 14.9259 10.016C15.4805 9.68533 16.0725 9.52 16.7019 9.52C17.2779 9.52 17.8059 9.64267 18.2859 9.888C18.7659 10.1227 19.1819 10.4427 19.5339 10.848C19.8859 11.2533 20.1579 11.7173 20.3499 12.24C20.5525 12.752 20.6539 13.2853 20.6539 13.84C20.6539 14.6187 20.4939 15.3387 20.1739 16C19.8645 16.6507 19.4272 17.1733 18.8619 17.568C18.2965 17.9627 17.6352 18.16 16.8779 18.16ZM16.5739 17.2C17.0325 17.2 17.4432 17.1093 17.8059 16.928C18.1685 16.736 18.4779 16.48 18.7339 16.16C19.0005 15.84 19.2032 15.4827 19.3419 15.088C19.4805 14.6827 19.5499 14.2667 19.5499 13.84C19.5499 13.392 19.4699 12.9653 19.3099 12.56C19.1605 12.1547 18.9419 11.7973 18.6539 11.488C18.3659 11.1787 18.0352 10.9333 17.6619 10.752C17.2885 10.5707 16.8832 10.48 16.4459 10.48C16.1685 10.48 15.8805 10.5333 15.5819 10.64C15.2832 10.7467 14.9952 10.9013 14.7179 11.104C14.4512 11.296 14.2272 11.5147 14.0459 11.76C13.8645 12.0053 13.7525 12.2667 13.7099 12.544V15.104C13.8805 15.4987 14.1099 15.856 14.3979 16.176C14.6859 16.4853 15.0165 16.736 15.3899 16.928C15.7739 17.1093 16.1685 17.2 16.5739 17.2ZM26.0969 18.16C25.4995 18.16 24.9449 18.048 24.4329 17.824C23.9209 17.5893 23.4782 17.2747 23.1049 16.88C22.7315 16.4747 22.4382 16.0107 22.2249 15.488C22.0222 14.9653 21.9209 14.4053 21.9209 13.808C21.9209 13.0293 22.0969 12.3147 22.4489 11.664C22.8115 11.0133 23.3075 10.496 23.9369 10.112C24.5662 9.71733 25.2809 9.52 26.0809 9.52C26.9022 9.52 27.6169 9.71733 28.2249 10.112C28.8435 10.5067 29.3289 11.0293 29.6809 11.68C30.0329 12.32 30.2089 13.024 30.2089 13.792C30.2089 13.8773 30.2089 13.9627 30.2089 14.048C30.2089 14.1227 30.2035 14.1813 30.1929 14.224H23.0569C23.1102 14.8213 23.2755 15.3547 23.5529 15.824C23.8409 16.2827 24.2089 16.6507 24.6569 16.928C25.1155 17.1947 25.6115 17.328 26.1449 17.328C26.6889 17.328 27.2009 17.1893 27.6809 16.912C28.1715 16.6347 28.5129 16.272 28.7049 15.824L29.6489 16.08C29.4782 16.4747 29.2169 16.832 28.8649 17.152C28.5129 17.472 28.0969 17.7227 27.6169 17.904C27.1475 18.0747 26.6409 18.16 26.0969 18.16ZM23.0249 13.44H29.1849C29.1422 12.832 28.9769 12.2987 28.6889 11.84C28.4115 11.3813 28.0435 11.024 27.5849 10.768C27.1369 10.5013 26.6409 10.368 26.0969 10.368C25.5529 10.368 25.0569 10.5013 24.6089 10.768C24.1609 11.024 23.7929 11.3867 23.5049 11.856C23.2275 12.3147 23.0675 12.8427 23.0249 13.44ZM31.8715 18V9.68H32.9595V16.528L38.0315 9.664H39.0075V18H37.9195V11.264L32.9275 18H31.8715ZM41.3715 18V9.664H42.4915L45.8035 15.408L49.1315 9.664H50.2035V18H49.1635V11.296L46.1555 16.512H45.4515L42.4115 11.296V18H41.3715ZM53.5182 21.488C53.3369 21.488 53.1503 21.456 52.9583 21.392C52.7769 21.3387 52.5903 21.2587 52.3983 21.152L52.7983 20.384C52.9156 20.448 53.0223 20.5013 53.1183 20.544C53.2249 20.5867 53.3369 20.608 53.4543 20.608C53.7316 20.608 53.9929 20.4693 54.2383 20.192C54.4836 19.9147 54.7183 19.5093 54.9423 18.976L55.3583 17.936L51.6463 9.664H52.7983L55.8543 16.88L58.6703 9.664H59.7583L55.7903 19.312C55.5769 19.8133 55.3529 20.224 55.1183 20.544C54.8836 20.864 54.6329 21.0987 54.3663 21.248C54.0996 21.408 53.8169 21.488 53.5182 21.488ZM71.8221 19.936V18H61.2621V9.664H62.3501V17.024H65.9181V9.664H67.0221V17.024H70.5741V9.664H71.6621V17.024H72.7981V19.936H71.8221ZM78.05 18.16C77.4527 18.16 76.898 18.048 76.386 17.824C75.874 17.5893 75.4313 17.2747 75.058 16.88C74.6847 16.4747 74.3913 16.0107 74.178 15.488C73.9753 14.9653 73.874 14.4053 73.874 13.808C73.874 13.0293 74.05 12.3147 74.402 11.664C74.7647 11.0133 75.2607 10.496 75.89 10.112C76.5193 9.71733 77.234 9.52 78.034 9.52C78.8553 9.52 79.57 9.71733 80.178 10.112C80.7967 10.5067 81.282 11.0293 81.634 11.68C81.986 12.32 82.162 13.024 82.162 13.792C82.162 13.8773 82.162 13.9627 82.162 14.048C82.162 14.1227 82.1567 14.1813 82.146 14.224H75.01C75.0633 14.8213 75.2287 15.3547 75.506 15.824C75.794 16.2827 76.162 16.6507 76.61 16.928C77.0687 17.1947 77.5647 17.328 78.098 17.328C78.642 17.328 79.154 17.1893 79.634 16.912C80.1247 16.6347 80.466 16.272 80.658 15.824L81.602 16.08C81.4313 16.4747 81.17 16.832 80.818 17.152C80.466 17.472 80.05 17.7227 79.57 17.904C79.1007 18.0747 78.594 18.16 78.05 18.16ZM74.978 13.44H81.138C81.0953 12.832 80.93 12.2987 80.642 11.84C80.3647 11.3813 79.9967 11.024 79.538 10.768C79.09 10.5013 78.594 10.368 78.05 10.368C77.506 10.368 77.01 10.5013 76.562 10.768C76.114 11.024 75.746 11.3867 75.458 11.856C75.1807 12.3147 75.0207 12.8427 74.978 13.44ZM87.4566 18.16C86.8486 18.16 86.2886 18.048 85.7766 17.824C85.2753 17.5893 84.8326 17.2693 84.4486 16.864C84.0753 16.4587 83.782 15.9947 83.5686 15.472C83.366 14.9493 83.2646 14.3947 83.2646 13.808C83.2646 13.0187 83.4406 12.2987 83.7926 11.648C84.1446 10.9973 84.6353 10.48 85.2646 10.096C85.894 9.712 86.6193 9.52 87.4406 9.52C88.2193 9.52 88.9073 9.70133 89.5046 10.064C90.102 10.416 90.5446 10.896 90.8326 11.504L89.7766 11.84C89.542 11.4133 89.2113 11.0827 88.7846 10.848C88.3686 10.6027 87.9046 10.48 87.3926 10.48C86.838 10.48 86.3313 10.624 85.8726 10.912C85.414 11.2 85.046 11.5947 84.7686 12.096C84.502 12.5973 84.3686 13.168 84.3686 13.808C84.3686 14.4373 84.5073 15.008 84.7846 15.52C85.062 16.032 85.43 16.4427 85.8886 16.752C86.3473 17.0507 86.854 17.2 87.4086 17.2C87.7713 17.2 88.118 17.136 88.4486 17.008C88.79 16.88 89.0833 16.7093 89.3286 16.496C89.5846 16.272 89.7553 16.032 89.8406 15.776L90.9126 16.096C90.7633 16.4907 90.5126 16.848 90.1606 17.168C89.8193 17.4773 89.414 17.7227 88.9446 17.904C88.486 18.0747 87.99 18.16 87.4566 18.16ZM94.7019 18V10.64H91.7259V9.664H98.7659V10.64H95.7899V18H94.7019ZM100.231 18V9.664H104.391C104.86 9.664 105.255 9.76533 105.575 9.968C105.895 10.16 106.135 10.4107 106.295 10.72C106.466 11.0293 106.551 11.36 106.551 11.712C106.551 12.16 106.444 12.5653 106.231 12.928C106.018 13.28 105.708 13.5467 105.303 13.728C105.783 13.8667 106.172 14.1173 106.471 14.48C106.77 14.8427 106.919 15.28 106.919 15.792C106.919 16.24 106.807 16.6293 106.583 16.96C106.37 17.2907 106.071 17.5467 105.687 17.728C105.314 17.9093 104.882 18 104.391 18H100.231ZM101.271 17.216H104.359C104.636 17.216 104.887 17.1467 105.111 17.008C105.346 16.8587 105.527 16.6667 105.655 16.432C105.794 16.1973 105.863 15.952 105.863 15.696C105.863 15.4187 105.799 15.168 105.671 14.944C105.543 14.7093 105.372 14.5227 105.159 14.384C104.946 14.2453 104.7 14.176 104.423 14.176H101.271V17.216ZM101.271 13.424H104.103C104.38 13.424 104.626 13.3493 104.839 13.2C105.052 13.0507 105.218 12.8587 105.335 12.624C105.452 12.3893 105.511 12.144 105.511 11.888C105.511 11.504 105.383 11.168 105.127 10.88C104.882 10.592 104.562 10.448 104.167 10.448H101.271V13.424ZM108.137 15.6C108.137 15.0773 108.287 14.6293 108.585 14.256C108.884 13.872 109.295 13.5787 109.817 13.376C110.351 13.1627 110.964 13.056 111.657 13.056C112.063 13.056 112.484 13.088 112.921 13.152C113.359 13.216 113.748 13.312 114.089 13.44V12.736C114.089 12.032 113.881 11.472 113.465 11.056C113.049 10.64 112.473 10.432 111.737 10.432C111.289 10.432 110.847 10.5173 110.409 10.688C109.983 10.848 109.535 11.088 109.065 11.408L108.649 10.64C109.193 10.2667 109.727 9.98933 110.249 9.808C110.772 9.616 111.305 9.52 111.849 9.52C112.873 9.52 113.684 9.81333 114.281 10.4C114.879 10.9867 115.177 11.7973 115.177 12.832V16.688C115.177 16.8373 115.209 16.9493 115.273 17.024C115.337 17.088 115.439 17.1253 115.577 17.136V18C115.46 18.0107 115.359 18.0213 115.273 18.032C115.188 18.0427 115.124 18.0427 115.081 18.032C114.815 18.0213 114.612 17.936 114.473 17.776C114.335 17.616 114.26 17.4453 114.249 17.264L114.233 16.656C113.86 17.136 113.375 17.5093 112.777 17.776C112.18 18.032 111.572 18.16 110.953 18.16C110.42 18.16 109.935 18.048 109.497 17.824C109.071 17.5893 108.735 17.28 108.489 16.896C108.255 16.5013 108.137 16.0693 108.137 15.6ZM113.721 16.24C113.839 16.0907 113.929 15.9467 113.993 15.808C114.057 15.6693 114.089 15.5467 114.089 15.44V14.224C113.727 14.0853 113.348 13.9787 112.953 13.904C112.569 13.8293 112.18 13.792 111.785 13.792C111.007 13.792 110.377 13.9467 109.897 14.256C109.417 14.5653 109.177 14.9867 109.177 15.52C109.177 15.8293 109.257 16.1227 109.417 16.4C109.577 16.6667 109.812 16.8907 110.121 17.072C110.431 17.2427 110.793 17.328 111.209 17.328C111.732 17.328 112.217 17.2267 112.665 17.024C113.124 16.8213 113.476 16.56 113.721 16.24Z" fill="black" fill-opacity="0.8"/>
<path d="M1.424 58V46.64H2.544V57.008H9.104V58H1.424ZM13.8926 58.16C13.2953 58.16 12.7406 58.048 12.2286 57.824C11.7273 57.5893 11.29 57.2747 10.9166 56.88C10.554 56.4747 10.2713 56.016 10.0686 55.504C9.86596 54.9813 9.76463 54.432 9.76463 53.856C9.76463 53.2587 9.86596 52.704 10.0686 52.192C10.2713 51.6693 10.5593 51.2107 10.9326 50.816C11.306 50.4107 11.7433 50.096 12.2446 49.872C12.7566 49.6373 13.3113 49.52 13.9086 49.52C14.506 49.52 15.0553 49.6373 15.5566 49.872C16.058 50.096 16.4953 50.4107 16.8686 50.816C17.242 51.2107 17.53 51.6693 17.7326 52.192C17.9353 52.704 18.0366 53.2587 18.0366 53.856C18.0366 54.432 17.9353 54.9813 17.7326 55.504C17.53 56.016 17.242 56.4747 16.8686 56.88C16.506 57.2747 16.0686 57.5893 15.5566 57.824C15.0553 58.048 14.5006 58.16 13.8926 58.16ZM10.8686 53.872C10.8686 54.4907 11.002 55.056 11.2686 55.568C11.546 56.0693 11.914 56.4693 12.3726 56.768C12.8313 57.056 13.338 57.2 13.8926 57.2C14.4473 57.2 14.954 57.0507 15.4126 56.752C15.8713 56.4533 16.2393 56.048 16.5166 55.536C16.794 55.0133 16.9326 54.448 16.9326 53.84C16.9326 53.2213 16.794 52.656 16.5166 52.144C16.2393 51.632 15.8713 51.2267 15.4126 50.928C14.954 50.6293 14.4473 50.48 13.8926 50.48C13.338 50.48 12.8313 50.6347 12.3726 50.944C11.9246 51.2533 11.562 51.664 11.2846 52.176C11.0073 52.6773 10.8686 53.2427 10.8686 53.872ZM23.4083 58.16C22.8109 58.16 22.2563 58.048 21.7443 57.824C21.2429 57.5893 20.8056 57.2747 20.4323 56.88C20.0696 56.4747 19.7869 56.016 19.5843 55.504C19.3816 54.9813 19.2803 54.432 19.2803 53.856C19.2803 53.2587 19.3816 52.704 19.5843 52.192C19.7869 51.6693 20.0749 51.2107 20.4483 50.816C20.8216 50.4107 21.2589 50.096 21.7603 49.872C22.2723 49.6373 22.8269 49.52 23.4243 49.52C24.0216 49.52 24.5709 49.6373 25.0723 49.872C25.5736 50.096 26.0109 50.4107 26.3843 50.816C26.7576 51.2107 27.0456 51.6693 27.2483 52.192C27.4509 52.704 27.5523 53.2587 27.5523 53.856C27.5523 54.432 27.4509 54.9813 27.2483 55.504C27.0456 56.016 26.7576 56.4747 26.3843 56.88C26.0216 57.2747 25.5843 57.5893 25.0723 57.824C24.5709 58.048 24.0163 58.16 23.4083 58.16ZM20.3843 53.872C20.3843 54.4907 20.5176 55.056 20.7843 55.568C21.0616 56.0693 21.4296 56.4693 21.8883 56.768C22.3469 57.056 22.8536 57.2 23.4083 57.2C23.9629 57.2 24.4696 57.0507 24.9283 56.752C25.3869 56.4533 25.7549 56.048 26.0323 55.536C26.3096 55.0133 26.4483 54.448 26.4483 53.84C26.4483 53.2213 26.3096 52.656 26.0323 52.144C25.7549 51.632 25.3869 51.2267 24.9283 50.928C24.4696 50.6293 23.9629 50.48 23.4083 50.48C22.8536 50.48 22.3469 50.6347 21.8883 50.944C21.4403 51.2533 21.0776 51.664 20.8003 52.176C20.5229 52.6773 20.3843 53.2427 20.3843 53.872ZM35.3239 58L32.2359 53.728L30.4599 55.392V58H29.3719V46.32H30.4599V54.224L35.1799 49.68H36.3799L32.9719 53.088L36.5079 58H35.3239ZM46.6243 55.072C46.6243 55.6373 46.4803 56.144 46.1923 56.592C45.9043 57.0293 45.5149 57.376 45.0243 57.632C44.5443 57.8773 44.0163 58 43.4403 58H38.0803V46.64H43.5523C44.0856 46.64 44.5443 46.784 44.9283 47.072C45.3229 47.3493 45.6216 47.712 45.8243 48.16C46.0376 48.5973 46.1443 49.056 46.1443 49.536C46.1443 50.1013 46.0003 50.624 45.7123 51.104C45.4243 51.584 45.0243 51.9413 44.5123 52.176C45.1629 52.368 45.6749 52.7253 46.0483 53.248C46.4323 53.7707 46.6243 54.3787 46.6243 55.072ZM45.5043 54.88C45.5043 54.496 45.4189 54.144 45.2483 53.824C45.0776 53.4933 44.8429 53.2267 44.5443 53.024C44.2563 52.8213 43.9256 52.72 43.5523 52.72H39.2003V57.024H43.4403C43.8243 57.024 44.1709 56.9227 44.4803 56.72C44.7896 56.5173 45.0349 56.256 45.2163 55.936C45.4083 55.6053 45.5043 55.2533 45.5043 54.88ZM39.2003 47.616V51.808H43.1043C43.4776 51.808 43.8083 51.712 44.0963 51.52C44.3843 51.3173 44.6136 51.056 44.7843 50.736C44.9549 50.416 45.0403 50.0747 45.0403 49.712C45.0403 49.328 44.9603 48.9813 44.8003 48.672C44.6403 48.352 44.4216 48.096 44.1443 47.904C43.8669 47.712 43.5523 47.616 43.2003 47.616H39.2003ZM52.0645 58.16C51.4672 58.16 50.9125 58.048 50.4005 57.824C49.8992 57.5893 49.4618 57.2747 49.0885 56.88C48.7258 56.4747 48.4432 56.016 48.2405 55.504C48.0378 54.9813 47.9365 54.432 47.9365 53.856C47.9365 53.2587 48.0378 52.704 48.2405 52.192C48.4432 51.6693 48.7312 51.2107 49.1045 50.816C49.4778 50.4107 49.9152 50.096 50.4165 49.872C50.9285 49.6373 51.4832 49.52 52.0805 49.52C52.6778 49.52 53.2272 49.6373 53.7285 49.872C54.2298 50.096 54.6672 50.4107 55.0405 50.816C55.4138 51.2107 55.7018 51.6693 55.9045 52.192C56.1072 52.704 56.2085 53.2587 56.2085 53.856C56.2085 54.432 56.1072 54.9813 55.9045 55.504C55.7018 56.016 55.4138 56.4747 55.0405 56.88C54.6778 57.2747 54.2405 57.5893 53.7285 57.824C53.2272 58.048 52.6725 58.16 52.0645 58.16ZM49.0405 53.872C49.0405 54.4907 49.1738 55.056 49.4405 55.568C49.7178 56.0693 50.0858 56.4693 50.5445 56.768C51.0032 57.056 51.5098 57.2 52.0645 57.2C52.6192 57.2 53.1258 57.0507 53.5845 56.752C54.0432 56.4533 54.4112 56.048 54.6885 55.536C54.9658 55.0133 55.1045 54.448 55.1045 53.84C55.1045 53.2213 54.9658 52.656 54.6885 52.144C54.4112 51.632 54.0432 51.2267 53.5845 50.928C53.1258 50.6293 52.6192 50.48 52.0645 50.48C51.5098 50.48 51.0032 50.6347 50.5445 50.944C50.0965 51.2533 49.7338 51.664 49.4565 52.176C49.1792 52.6773 49.0405 53.2427 49.0405 53.872ZM61.5801 58.16C60.9828 58.16 60.4281 58.048 59.9161 57.824C59.4148 57.5893 58.9775 57.2747 58.6041 56.88C58.2415 56.4747 57.9588 56.016 57.7561 55.504C57.5535 54.9813 57.4521 54.432 57.4521 53.856C57.4521 53.2587 57.5535 52.704 57.7561 52.192C57.9588 51.6693 58.2468 51.2107 58.6201 50.816C58.9935 50.4107 59.4308 50.096 59.9321 49.872C60.4441 49.6373 60.9988 49.52 61.5961 49.52C62.1935 49.52 62.7428 49.6373 63.2441 49.872C63.7455 50.096 64.1828 50.4107 64.5561 50.816C64.9295 51.2107 65.2175 51.6693 65.4201 52.192C65.6228 52.704 65.7241 53.2587 65.7241 53.856C65.7241 54.432 65.6228 54.9813 65.4201 55.504C65.2175 56.016 64.9295 56.4747 64.5561 56.88C64.1935 57.2747 63.7561 57.5893 63.2441 57.824C62.7428 58.048 62.1881 58.16 61.5801 58.16ZM58.5561 53.872C58.5561 54.4907 58.6895 55.056 58.9561 55.568C59.2335 56.0693 59.6015 56.4693 60.0601 56.768C60.5188 57.056 61.0255 57.2 61.5801 57.2C62.1348 57.2 62.6415 57.0507 63.1001 56.752C63.5588 56.4533 63.9268 56.048 64.2041 55.536C64.4815 55.0133 64.6201 54.448 64.6201 53.84C64.6201 53.2213 64.4815 52.656 64.2041 52.144C63.9268 51.632 63.5588 51.2267 63.1001 50.928C62.6415 50.6293 62.1348 50.48 61.5801 50.48C61.0255 50.48 60.5188 50.6347 60.0601 50.944C59.6121 51.2533 59.2495 51.664 58.9721 52.176C58.6948 52.6773 58.5561 53.2427 58.5561 53.872ZM73.4958 58L70.4078 53.728L68.6318 55.392V58H67.5438V46.32H68.6318V54.224L73.3518 49.68H74.5518L71.1438 53.088L74.6798 58H73.4958Z" fill="black" fill-opacity="0.8"/>
<path d="M6 98.08C5.2 98.08 4.47467 97.92 3.824 97.6C3.17333 97.28 2.61333 96.848 2.144 96.304C1.67467 95.7493 1.312 95.1307 1.056 94.448C0.8 93.7547 0.672 93.0453 0.672 92.32C0.672 91.5627 0.805333 90.8427 1.072 90.16C1.33867 89.4667 1.712 88.8533 2.192 88.32C2.68267 87.776 3.25333 87.3493 3.904 87.04C4.55467 86.72 5.25867 86.56 6.016 86.56C6.816 86.56 7.54133 86.7253 8.192 87.056C8.84267 87.3867 9.39733 87.8293 9.856 88.384C10.3253 88.9387 10.688 89.5573 10.944 90.24C11.2 90.9227 11.328 91.6213 11.328 92.336C11.328 93.0933 11.1947 93.8187 10.928 94.512C10.6613 95.1947 10.288 95.808 9.808 96.352C9.328 96.8853 8.76267 97.3067 8.112 97.616C7.46133 97.9253 6.75733 98.08 6 98.08ZM1.792 92.32C1.792 92.9387 1.89333 93.536 2.096 94.112C2.29867 94.6773 2.58667 95.184 2.96 95.632C3.33333 96.0693 3.776 96.4213 4.288 96.688C4.81067 96.944 5.38133 97.072 6 97.072C6.65067 97.072 7.232 96.9387 7.744 96.672C8.26667 96.3947 8.70933 96.032 9.072 95.584C9.44533 95.1253 9.728 94.6133 9.92 94.048C10.112 93.4827 10.208 92.9067 10.208 92.32C10.208 91.7013 10.1067 91.1093 9.904 90.544C9.70133 89.9787 9.408 89.472 9.024 89.024C8.65067 88.576 8.208 88.224 7.696 87.968C7.184 87.712 6.61867 87.584 6 87.584C5.36 87.584 4.77867 87.7173 4.256 87.984C3.744 88.2507 3.30133 88.6133 2.928 89.072C2.56533 89.52 2.28267 90.0267 2.08 90.592C1.888 91.1573 1.792 91.7333 1.792 92.32ZM17.2778 98V89.664H18.3658V93.248H23.1338V89.664H24.2218V98H23.1338V94.224H18.3658V98H17.2778ZM25.9499 95.6C25.9499 95.0773 26.0992 94.6293 26.3979 94.256C26.6965 93.872 27.1072 93.5787 27.6299 93.376C28.1632 93.1627 28.7765 93.056 29.4699 93.056C29.8752 93.056 30.2965 93.088 30.7339 93.152C31.1712 93.216 31.5605 93.312 31.9019 93.44V92.736C31.9019 92.032 31.6939 91.472 31.2779 91.056C30.8619 90.64 30.2859 90.432 29.5499 90.432C29.1019 90.432 28.6592 90.5173 28.2219 90.688C27.7952 90.848 27.3472 91.088 26.8779 91.408L26.4619 90.64C27.0059 90.2667 27.5392 89.9893 28.0619 89.808C28.5845 89.616 29.1179 89.52 29.6619 89.52C30.6859 89.52 31.4965 89.8133 32.0939 90.4C32.6912 90.9867 32.9899 91.7973 32.9899 92.832V96.688C32.9899 96.8373 33.0219 96.9493 33.0859 97.024C33.1499 97.088 33.2512 97.1253 33.3899 97.136V98C33.2725 98.0107 33.1712 98.0213 33.0859 98.032C33.0005 98.0427 32.9365 98.0427 32.8939 98.032C32.6272 98.0213 32.4245 97.936 32.2859 97.776C32.1472 97.616 32.0725 97.4453 32.0619 97.264L32.0459 96.656C31.6725 97.136 31.1872 97.5093 30.5899 97.776C29.9925 98.032 29.3845 98.16 28.7659 98.16C28.2325 98.16 27.7472 98.048 27.3099 97.824C26.8832 97.5893 26.5472 97.28 26.3019 96.896C26.0672 96.5013 25.9499 96.0693 25.9499 95.6ZM31.5339 96.24C31.6512 96.0907 31.7419 95.9467 31.8059 95.808C31.8699 95.6693 31.9019 95.5467 31.9019 95.44V94.224C31.5392 94.0853 31.1605 93.9787 30.7659 93.904C30.3819 93.8293 29.9925 93.792 29.5979 93.792C28.8192 93.792 28.1899 93.9467 27.7099 94.256C27.2299 94.5653 26.9899 94.9867 26.9899 95.52C26.9899 95.8293 27.0699 96.1227 27.2299 96.4C27.3899 96.6667 27.6245 96.8907 27.9339 97.072C28.2432 97.2427 28.6059 97.328 29.0219 97.328C29.5445 97.328 30.0299 97.2267 30.4779 97.024C30.9365 96.8213 31.2885 96.56 31.5339 96.24ZM38.9566 98.16C38.3486 98.16 37.7886 98.048 37.2766 97.824C36.7753 97.5893 36.3326 97.2693 35.9486 96.864C35.5753 96.4587 35.282 95.9947 35.0686 95.472C34.866 94.9493 34.7646 94.3947 34.7646 93.808C34.7646 93.0187 34.9406 92.2987 35.2926 91.648C35.6446 90.9973 36.1353 90.48 36.7646 90.096C37.394 89.712 38.1193 89.52 38.9406 89.52C39.7193 89.52 40.4073 89.7013 41.0046 90.064C41.602 90.416 42.0446 90.896 42.3326 91.504L41.2766 91.84C41.042 91.4133 40.7113 91.0827 40.2846 90.848C39.8686 90.6027 39.4046 90.48 38.8926 90.48C38.338 90.48 37.8313 90.624 37.3726 90.912C36.914 91.2 36.546 91.5947 36.2686 92.096C36.002 92.5973 35.8686 93.168 35.8686 93.808C35.8686 94.4373 36.0073 95.008 36.2846 95.52C36.562 96.032 36.93 96.4427 37.3886 96.752C37.8473 97.0507 38.354 97.2 38.9086 97.2C39.2713 97.2 39.618 97.136 39.9486 97.008C40.29 96.88 40.5833 96.7093 40.8286 96.496C41.0846 96.272 41.2553 96.032 41.3406 95.776L42.4126 96.096C42.2633 96.4907 42.0126 96.848 41.6606 97.168C41.3193 97.4773 40.914 97.7227 40.4446 97.904C39.986 98.0747 39.49 98.16 38.9566 98.16Z" fill="black" fill-opacity="0.8"/>
<path d="M4.272 138.144C3.49333 138.144 2.79467 137.979 2.176 137.648C1.55733 137.307 1.072 136.837 0.72 136.24L1.584 135.712C1.85067 136.181 2.21333 136.544 2.672 136.8C3.13067 137.056 3.65867 137.184 4.256 137.184C5.06667 137.184 5.70667 136.976 6.176 136.56C6.656 136.133 6.896 135.568 6.896 134.864C6.896 134.416 6.79467 134.021 6.592 133.68C6.4 133.328 6.12267 133.056 5.76 132.864C5.39733 132.672 4.96 132.576 4.448 132.576H3.36V131.68H4.464C4.85867 131.68 5.20533 131.589 5.504 131.408C5.80267 131.216 6.03733 130.965 6.208 130.656C6.37867 130.347 6.464 130 6.464 129.616C6.464 129.2 6.368 128.837 6.176 128.528C5.99467 128.219 5.73333 127.973 5.392 127.792C5.06133 127.611 4.672 127.52 4.224 127.52C3.68 127.52 3.2 127.643 2.784 127.888C2.368 128.133 2.03733 128.475 1.792 128.912L0.976 128.368C1.30667 127.781 1.744 127.323 2.288 126.992C2.84267 126.661 3.504 126.496 4.272 126.496C4.92267 126.496 5.488 126.624 5.968 126.88C6.45867 127.125 6.84267 127.472 7.12 127.92C7.408 128.357 7.552 128.875 7.552 129.472C7.552 130.048 7.408 130.571 7.12 131.04C6.84267 131.499 6.43733 131.845 5.904 132.08C6.576 132.261 7.09333 132.613 7.456 133.136C7.82933 133.659 8.016 134.267 8.016 134.96C8.016 135.621 7.856 136.192 7.536 136.672C7.216 137.141 6.77333 137.504 6.208 137.76C5.65333 138.016 5.008 138.144 4.272 138.144ZM9.24675 135.6C9.24675 135.077 9.39608 134.629 9.69475 134.256C9.99342 133.872 10.4041 133.579 10.9268 133.376C11.4601 133.163 12.0734 133.056 12.7668 133.056C13.1721 133.056 13.5934 133.088 14.0308 133.152C14.4681 133.216 14.8574 133.312 15.1988 133.44V132.736C15.1988 132.032 14.9908 131.472 14.5748 131.056C14.1588 130.64 13.5828 130.432 12.8468 130.432C12.3988 130.432 11.9561 130.517 11.5188 130.688C11.0921 130.848 10.6441 131.088 10.1748 131.408L9.75875 130.64C10.3028 130.267 10.8361 129.989 11.3588 129.808C11.8814 129.616 12.4148 129.52 12.9588 129.52C13.9828 129.52 14.7934 129.813 15.3908 130.4C15.9881 130.987 16.2868 131.797 16.2868 132.832V136.688C16.2868 136.837 16.3188 136.949 16.3828 137.024C16.4468 137.088 16.5481 137.125 16.6868 137.136V138C16.5694 138.011 16.4681 138.021 16.3828 138.032C16.2974 138.043 16.2334 138.043 16.1908 138.032C15.9241 138.021 15.7214 137.936 15.5828 137.776C15.4441 137.616 15.3694 137.445 15.3588 137.264L15.3428 136.656C14.9694 137.136 14.4841 137.509 13.8868 137.776C13.2894 138.032 12.6814 138.16 12.0628 138.16C11.5294 138.16 11.0441 138.048 10.6068 137.824C10.1801 137.589 9.84408 137.28 9.59875 136.896C9.36408 136.501 9.24675 136.069 9.24675 135.6ZM14.8308 136.24C14.9481 136.091 15.0388 135.947 15.1028 135.808C15.1668 135.669 15.1988 135.547 15.1988 135.44V134.224C14.8361 134.085 14.4574 133.979 14.0628 133.904C13.6788 133.829 13.2894 133.792 12.8948 133.792C12.1161 133.792 11.4868 133.947 11.0068 134.256C10.5268 134.565 10.2868 134.987 10.2868 135.52C10.2868 135.829 10.3668 136.123 10.5268 136.4C10.6868 136.667 10.9214 136.891 11.2308 137.072C11.5401 137.243 11.9028 137.328 12.3188 137.328C12.8414 137.328 13.3268 137.227 13.7748 137.024C14.2334 136.821 14.5854 136.56 14.8308 136.24ZM17.7095 139.936V137.024H17.8535C18.0988 137.024 18.3228 136.949 18.5255 136.8C18.7282 136.651 18.9095 136.389 19.0695 136.016C19.2295 135.643 19.3575 135.131 19.4535 134.48C19.5495 133.819 19.6135 132.987 19.6455 131.984L19.7255 129.664H25.1495V137.024H26.2695V139.936H25.2935V138H18.6695V139.936H17.7095ZM19.5015 137.024H24.0615V130.64H20.7015L20.6535 132.08C20.6215 133.072 20.5522 133.904 20.4455 134.576C20.3495 135.237 20.2215 135.765 20.0615 136.16C19.9122 136.544 19.7255 136.832 19.5015 137.024ZM27.2467 135.6C27.2467 135.077 27.3961 134.629 27.6948 134.256C27.9934 133.872 28.4041 133.579 28.9268 133.376C29.4601 133.163 30.0734 133.056 30.7668 133.056C31.1721 133.056 31.5934 133.088 32.0308 133.152C32.4681 133.216 32.8574 133.312 33.1988 133.44V132.736C33.1988 132.032 32.9908 131.472 32.5748 131.056C32.1588 130.64 31.5828 130.432 30.8468 130.432C30.3988 130.432 29.9561 130.517 29.5188 130.688C29.0921 130.848 28.6441 131.088 28.1748 131.408L27.7588 130.64C28.3028 130.267 28.8361 129.989 29.3588 129.808C29.8814 129.616 30.4148 129.52 30.9588 129.52C31.9828 129.52 32.7934 129.813 33.3908 130.4C33.9881 130.987 34.2868 131.797 34.2868 132.832V136.688C34.2868 136.837 34.3188 136.949 34.3828 137.024C34.4468 137.088 34.5481 137.125 34.6868 137.136V138C34.5694 138.011 34.4681 138.021 34.3828 138.032C34.2974 138.043 34.2334 138.043 34.1908 138.032C33.9241 138.021 33.7214 137.936 33.5828 137.776C33.4441 137.616 33.3694 137.445 33.3588 137.264L33.3428 136.656C32.9694 137.136 32.4841 137.509 31.8868 137.776C31.2894 138.032 30.6814 138.16 30.0628 138.16C29.5294 138.16 29.0441 138.048 28.6068 137.824C28.1801 137.589 27.8441 137.28 27.5988 136.896C27.3641 136.501 27.2467 136.069 27.2467 135.6ZM32.8308 136.24C32.9481 136.091 33.0388 135.947 33.1028 135.808C33.1668 135.669 33.1988 135.547 33.1988 135.44V134.224C32.8361 134.085 32.4574 133.979 32.0628 133.904C31.6788 133.829 31.2894 133.792 30.8948 133.792C30.1161 133.792 29.4868 133.947 29.0068 134.256C28.5268 134.565 28.2868 134.987 28.2868 135.52C28.2868 135.829 28.3668 136.123 28.5268 136.4C28.6868 136.667 28.9214 136.891 29.2308 137.072C29.5401 137.243 29.9028 137.328 30.3188 137.328C30.8414 137.328 31.3268 137.227 31.7748 137.024C32.2334 136.821 32.5854 136.56 32.8308 136.24ZM38.5925 138V130.64H35.6165V129.664H42.6565V130.64H39.6805V138H38.5925ZM44.1215 138V129.664H45.2095V132.608H47.3695C48.3188 132.608 49.0335 132.853 49.5135 133.344C50.0042 133.824 50.2495 134.459 50.2495 135.248C50.2495 135.76 50.1428 136.224 49.9295 136.64C49.7162 137.056 49.4015 137.387 48.9855 137.632C48.5802 137.877 48.0682 138 47.4495 138H44.1215ZM45.2095 137.136H47.3055C47.7428 137.136 48.0948 137.051 48.3615 136.88C48.6282 136.699 48.8255 136.469 48.9535 136.192C49.0815 135.904 49.1455 135.595 49.1455 135.264C49.1455 134.944 49.0868 134.651 48.9695 134.384C48.8628 134.107 48.6708 133.888 48.3935 133.728C48.1268 133.557 47.7535 133.472 47.2735 133.472H45.2095V137.136ZM56.0121 138V129.664H60.1721C60.6415 129.664 61.0361 129.765 61.3561 129.968C61.6761 130.16 61.9161 130.411 62.0761 130.72C62.2468 131.029 62.3321 131.36 62.3321 131.712C62.3321 132.16 62.2255 132.565 62.0121 132.928C61.7988 133.28 61.4895 133.547 61.0841 133.728C61.5641 133.867 61.9535 134.117 62.2521 134.48C62.5508 134.843 62.7001 135.28 62.7001 135.792C62.7001 136.24 62.5881 136.629 62.3641 136.96C62.1508 137.291 61.8521 137.547 61.4681 137.728C61.0948 137.909 60.6628 138 60.1721 138H56.0121ZM57.0521 137.216H60.1401C60.4175 137.216 60.6681 137.147 60.8921 137.008C61.1268 136.859 61.3081 136.667 61.4361 136.432C61.5748 136.197 61.6441 135.952 61.6441 135.696C61.6441 135.419 61.5801 135.168 61.4521 134.944C61.3241 134.709 61.1535 134.523 60.9401 134.384C60.7268 134.245 60.4815 134.176 60.2041 134.176H57.0521V137.216ZM57.0521 133.424H59.8841C60.1615 133.424 60.4068 133.349 60.6201 133.2C60.8335 133.051 60.9988 132.859 61.1161 132.624C61.2335 132.389 61.2921 132.144 61.2921 131.888C61.2921 131.504 61.1641 131.168 60.9081 130.88C60.6628 130.592 60.3428 130.448 59.9481 130.448H57.0521V133.424ZM68.1426 138.16C67.5453 138.16 66.9906 138.048 66.4786 137.824C65.9773 137.589 65.54 137.275 65.1666 136.88C64.804 136.475 64.5213 136.016 64.3186 135.504C64.116 134.981 64.0146 134.432 64.0146 133.856C64.0146 133.259 64.116 132.704 64.3186 132.192C64.5213 131.669 64.8093 131.211 65.1826 130.816C65.556 130.411 65.9933 130.096 66.4946 129.872C67.0066 129.637 67.5613 129.52 68.1586 129.52C68.756 129.52 69.3053 129.637 69.8066 129.872C70.308 130.096 70.7453 130.411 71.1186 130.816C71.492 131.211 71.78 131.669 71.9826 132.192C72.1853 132.704 72.2866 133.259 72.2866 133.856C72.2866 134.432 72.1853 134.981 71.9826 135.504C71.78 136.016 71.492 136.475 71.1186 136.88C70.756 137.275 70.3186 137.589 69.8066 137.824C69.3053 138.048 68.7506 138.16 68.1426 138.16ZM65.1186 133.872C65.1186 134.491 65.252 135.056 65.5186 135.568C65.796 136.069 66.164 136.469 66.6226 136.768C67.0813 137.056 67.588 137.2 68.1426 137.2C68.6973 137.2 69.204 137.051 69.6626 136.752C70.1213 136.453 70.4893 136.048 70.7666 135.536C71.044 135.013 71.1826 134.448 71.1826 133.84C71.1826 133.221 71.044 132.656 70.7666 132.144C70.4893 131.632 70.1213 131.227 69.6626 130.928C69.204 130.629 68.6973 130.48 68.1426 130.48C67.588 130.48 67.0813 130.635 66.6226 130.944C66.1746 131.253 65.812 131.664 65.5346 132.176C65.2573 132.677 65.1186 133.243 65.1186 133.872ZM74.0903 138V129.664H80.7943V138H79.7063V130.64H75.1783V138H74.0903ZM87.456 138.16C86.7627 138.16 86.1387 137.979 85.584 137.616C85.04 137.253 84.608 136.805 84.288 136.272V141.408H83.2V129.664H84.176V131.28C84.5067 130.757 84.9493 130.336 85.504 130.016C86.0587 129.685 86.6507 129.52 87.28 129.52C87.856 129.52 88.384 129.643 88.864 129.888C89.344 130.123 89.76 130.443 90.112 130.848C90.464 131.253 90.736 131.717 90.928 132.24C91.1307 132.752 91.232 133.285 91.232 133.84C91.232 134.619 91.072 135.339 90.752 136C90.4427 136.651 90.0053 137.173 89.44 137.568C88.8747 137.963 88.2133 138.16 87.456 138.16ZM87.152 137.2C87.6107 137.2 88.0213 137.109 88.384 136.928C88.7467 136.736 89.056 136.48 89.312 136.16C89.5787 135.84 89.7813 135.483 89.92 135.088C90.0587 134.683 90.128 134.267 90.128 133.84C90.128 133.392 90.048 132.965 89.888 132.56C89.7387 132.155 89.52 131.797 89.232 131.488C88.944 131.179 88.6133 130.933 88.24 130.752C87.8667 130.571 87.4613 130.48 87.024 130.48C86.7467 130.48 86.4587 130.533 86.16 130.64C85.8613 130.747 85.5733 130.901 85.296 131.104C85.0293 131.296 84.8053 131.515 84.624 131.76C84.4427 132.005 84.3307 132.267 84.288 132.544V135.104C84.4587 135.499 84.688 135.856 84.976 136.176C85.264 136.485 85.5947 136.736 85.968 136.928C86.352 137.109 86.7467 137.2 87.152 137.2ZM96.627 138.16C96.0297 138.16 95.475 138.048 94.963 137.824C94.4617 137.589 94.0243 137.275 93.651 136.88C93.2883 136.475 93.0057 136.016 92.803 135.504C92.6003 134.981 92.499 134.432 92.499 133.856C92.499 133.259 92.6003 132.704 92.803 132.192C93.0057 131.669 93.2937 131.211 93.667 130.816C94.0403 130.411 94.4777 130.096 94.979 129.872C95.491 129.637 96.0457 129.52 96.643 129.52C97.2403 129.52 97.7897 129.637 98.291 129.872C98.7923 130.096 99.2297 130.411 99.603 130.816C99.9763 131.211 100.264 131.669 100.467 132.192C100.67 132.704 100.771 133.259 100.771 133.856C100.771 134.432 100.67 134.981 100.467 135.504C100.264 136.016 99.9763 136.475 99.603 136.88C99.2403 137.275 98.803 137.589 98.291 137.824C97.7897 138.048 97.235 138.16 96.627 138.16ZM93.603 133.872C93.603 134.491 93.7363 135.056 94.003 135.568C94.2803 136.069 94.6483 136.469 95.107 136.768C95.5657 137.056 96.0723 137.2 96.627 137.2C97.1817 137.2 97.6883 137.051 98.147 136.752C98.6057 136.453 98.9737 136.048 99.251 135.536C99.5283 135.013 99.667 134.448 99.667 133.84C99.667 133.221 99.5283 132.656 99.251 132.144C98.9737 131.632 98.6057 131.227 98.147 130.928C97.6883 130.629 97.1817 130.48 96.627 130.48C96.0723 130.48 95.5657 130.635 95.107 130.944C94.659 131.253 94.2963 131.664 94.019 132.176C93.7417 132.677 93.603 133.243 93.603 133.872ZM106.207 138.16C105.599 138.16 105.039 138.048 104.527 137.824C104.025 137.589 103.583 137.269 103.199 136.864C102.825 136.459 102.532 135.995 102.319 135.472C102.116 134.949 102.015 134.395 102.015 133.808C102.015 133.019 102.191 132.299 102.543 131.648C102.895 130.997 103.385 130.48 104.015 130.096C104.644 129.712 105.369 129.52 106.191 129.52C106.969 129.52 107.657 129.701 108.255 130.064C108.852 130.416 109.295 130.896 109.583 131.504L108.527 131.84C108.292 131.413 107.961 131.083 107.535 130.848C107.119 130.603 106.655 130.48 106.143 130.48C105.588 130.48 105.081 130.624 104.623 130.912C104.164 131.2 103.796 131.595 103.519 132.096C103.252 132.597 103.119 133.168 103.119 133.808C103.119 134.437 103.257 135.008 103.535 135.52C103.812 136.032 104.18 136.443 104.639 136.752C105.097 137.051 105.604 137.2 106.159 137.2C106.521 137.2 106.868 137.136 107.199 137.008C107.54 136.88 107.833 136.709 108.079 136.496C108.335 136.272 108.505 136.032 108.591 135.776L109.663 136.096C109.513 136.491 109.263 136.848 108.911 137.168C108.569 137.477 108.164 137.723 107.695 137.904C107.236 138.075 106.74 138.16 106.207 138.16Z" fill="black" fill-opacity="0.8"/>
<path d="M1.424 178V166.64H2.544V171.696H4.256L8.16 166.64H9.456L5.184 172.144L9.728 178H8.352L4.288 172.72H2.544V178H1.424ZM10.6686 175.6C10.6686 175.077 10.818 174.629 11.1166 174.256C11.4153 173.872 11.826 173.579 12.3486 173.376C12.882 173.163 13.4953 173.056 14.1886 173.056C14.594 173.056 15.0153 173.088 15.4526 173.152C15.89 173.216 16.2793 173.312 16.6206 173.44V172.736C16.6206 172.032 16.4126 171.472 15.9966 171.056C15.5806 170.64 15.0046 170.432 14.2686 170.432C13.8206 170.432 13.378 170.517 12.9406 170.688C12.514 170.848 12.066 171.088 11.5966 171.408L11.1806 170.64C11.7246 170.267 12.258 169.989 12.7806 169.808C13.3033 169.616 13.8366 169.52 14.3806 169.52C15.4046 169.52 16.2153 169.813 16.8126 170.4C17.41 170.987 17.7086 171.797 17.7086 172.832V176.688C17.7086 176.837 17.7406 176.949 17.8046 177.024C17.8686 177.088 17.97 177.125 18.1086 177.136V178C17.9913 178.011 17.89 178.021 17.8046 178.032C17.7193 178.043 17.6553 178.043 17.6126 178.032C17.346 178.021 17.1433 177.936 17.0046 177.776C16.866 177.616 16.7913 177.445 16.7806 177.264L16.7646 176.656C16.3913 177.136 15.906 177.509 15.3086 177.776C14.7113 178.032 14.1033 178.16 13.4846 178.16C12.9513 178.16 12.466 178.048 12.0286 177.824C11.602 177.589 11.266 177.28 11.0206 176.896C10.786 176.501 10.6686 176.069 10.6686 175.6ZM16.2526 176.24C16.37 176.091 16.4606 175.947 16.5246 175.808C16.5886 175.669 16.6206 175.547 16.6206 175.44V174.224C16.258 174.085 15.8793 173.979 15.4846 173.904C15.1006 173.829 14.7113 173.792 14.3166 173.792C13.538 173.792 12.9086 173.947 12.4286 174.256C11.9486 174.565 11.7086 174.987 11.7086 175.52C11.7086 175.829 11.7886 176.123 11.9486 176.4C12.1086 176.667 12.3433 176.891 12.6526 177.072C12.962 177.243 13.3246 177.328 13.7406 177.328C14.2633 177.328 14.7486 177.227 15.1966 177.024C15.6553 176.821 16.0073 176.56 16.2526 176.24ZM24.3154 178.16C23.622 178.16 22.998 177.979 22.4434 177.616C21.8994 177.253 21.4674 176.805 21.1474 176.272V181.408H20.0594V169.664H21.0354V171.28C21.366 170.757 21.8087 170.336 22.3634 170.016C22.918 169.685 23.51 169.52 24.1394 169.52C24.7154 169.52 25.2434 169.643 25.7234 169.888C26.2034 170.123 26.6194 170.443 26.9714 170.848C27.3234 171.253 27.5954 171.717 27.7874 172.24C27.99 172.752 28.0914 173.285 28.0914 173.84C28.0914 174.619 27.9314 175.339 27.6114 176C27.302 176.651 26.8647 177.173 26.2994 177.568C25.734 177.963 25.0727 178.16 24.3154 178.16ZM24.0114 177.2C24.47 177.2 24.8807 177.109 25.2434 176.928C25.606 176.736 25.9154 176.48 26.1714 176.16C26.438 175.84 26.6407 175.483 26.7794 175.088C26.918 174.683 26.9874 174.267 26.9874 173.84C26.9874 173.392 26.9074 172.965 26.7474 172.56C26.598 172.155 26.3794 171.797 26.0914 171.488C25.8034 171.179 25.4727 170.933 25.0994 170.752C24.726 170.571 24.3207 170.48 23.8834 170.48C23.606 170.48 23.318 170.533 23.0194 170.64C22.7207 170.747 22.4327 170.901 22.1554 171.104C21.8887 171.296 21.6647 171.515 21.4834 171.76C21.302 172.005 21.19 172.267 21.1474 172.544V175.104C21.318 175.499 21.5474 175.856 21.8354 176.176C22.1234 176.485 22.454 176.736 22.8274 176.928C23.2114 177.109 23.606 177.2 24.0114 177.2ZM32.0144 178V170.64H29.0384V169.664H36.0784V170.64H33.1024V178H32.0144ZM36.8405 175.6C36.8405 175.077 36.9898 174.629 37.2885 174.256C37.5872 173.872 37.9978 173.579 38.5205 173.376C39.0538 173.163 39.6672 173.056 40.3605 173.056C40.7658 173.056 41.1872 173.088 41.6245 173.152C42.0618 173.216 42.4512 173.312 42.7925 173.44V172.736C42.7925 172.032 42.5845 171.472 42.1685 171.056C41.7525 170.64 41.1765 170.432 40.4405 170.432C39.9925 170.432 39.5498 170.517 39.1125 170.688C38.6858 170.848 38.2378 171.088 37.7685 171.408L37.3525 170.64C37.8965 170.267 38.4298 169.989 38.9525 169.808C39.4752 169.616 40.0085 169.52 40.5525 169.52C41.5765 169.52 42.3872 169.813 42.9845 170.4C43.5818 170.987 43.8805 171.797 43.8805 172.832V176.688C43.8805 176.837 43.9125 176.949 43.9765 177.024C44.0405 177.088 44.1418 177.125 44.2805 177.136V178C44.1632 178.011 44.0618 178.021 43.9765 178.032C43.8912 178.043 43.8272 178.043 43.7845 178.032C43.5178 178.021 43.3152 177.936 43.1765 177.776C43.0378 177.616 42.9632 177.445 42.9525 177.264L42.9365 176.656C42.5632 177.136 42.0778 177.509 41.4805 177.776C40.8832 178.032 40.2752 178.16 39.6565 178.16C39.1232 178.16 38.6378 178.048 38.2005 177.824C37.7738 177.589 37.4378 177.28 37.1925 176.896C36.9578 176.501 36.8405 176.069 36.8405 175.6ZM42.4245 176.24C42.5418 176.091 42.6325 175.947 42.6965 175.808C42.7605 175.669 42.7925 175.547 42.7925 175.44V174.224C42.4298 174.085 42.0512 173.979 41.6565 173.904C41.2725 173.829 40.8832 173.792 40.4885 173.792C39.7098 173.792 39.0805 173.947 38.6005 174.256C38.1205 174.565 37.8805 174.987 37.8805 175.52C37.8805 175.829 37.9605 176.123 38.1205 176.4C38.2805 176.667 38.5152 176.891 38.8245 177.072C39.1338 177.243 39.4965 177.328 39.9125 177.328C40.4352 177.328 40.9205 177.227 41.3685 177.024C41.8272 176.821 42.1792 176.56 42.4245 176.24Z" fill="black" fill-opacity="0.8"/>
<path d="M1.424 218V206.64H6.128C6.61867 206.64 7.06667 206.741 7.472 206.944C7.888 207.147 8.24533 207.424 8.544 207.776C8.84267 208.117 9.07733 208.501 9.248 208.928C9.41867 209.344 9.504 209.771 9.504 210.208C9.504 210.827 9.36533 211.413 9.088 211.968C8.82133 212.512 8.44267 212.955 7.952 213.296C7.46133 213.637 6.88533 213.808 6.224 213.808H2.544V218H1.424ZM2.544 212.816H6.176C6.624 212.816 7.01333 212.693 7.344 212.448C7.67467 212.203 7.93067 211.883 8.112 211.488C8.29333 211.093 8.384 210.667 8.384 210.208C8.384 209.739 8.27733 209.307 8.064 208.912C7.85067 208.517 7.568 208.208 7.216 207.984C6.87467 207.749 6.496 207.632 6.08 207.632H2.544V212.816ZM14.7531 218.16C14.1558 218.16 13.6011 218.048 13.0891 217.824C12.5771 217.589 12.1345 217.275 11.7611 216.88C11.3878 216.475 11.0945 216.011 10.8811 215.488C10.6785 214.965 10.5771 214.405 10.5771 213.808C10.5771 213.029 10.7531 212.315 11.1051 211.664C11.4678 211.013 11.9638 210.496 12.5931 210.112C13.2225 209.717 13.9371 209.52 14.7371 209.52C15.5585 209.52 16.2731 209.717 16.8811 210.112C17.4998 210.507 17.9851 211.029 18.3371 211.68C18.6891 212.32 18.8651 213.024 18.8651 213.792C18.8651 213.877 18.8651 213.963 18.8651 214.048C18.8651 214.123 18.8598 214.181 18.8491 214.224H11.7131C11.7665 214.821 11.9318 215.355 12.2091 215.824C12.4971 216.283 12.8651 216.651 13.3131 216.928C13.7718 217.195 14.2678 217.328 14.8011 217.328C15.3451 217.328 15.8571 217.189 16.3371 216.912C16.8278 216.635 17.1691 216.272 17.3611 215.824L18.3051 216.08C18.1345 216.475 17.8731 216.832 17.5211 217.152C17.1691 217.472 16.7531 217.723 16.2731 217.904C15.8038 218.075 15.2971 218.16 14.7531 218.16ZM11.6811 213.44H17.8411C17.7985 212.832 17.6331 212.299 17.3451 211.84C17.0678 211.381 16.6998 211.024 16.2411 210.768C15.7931 210.501 15.2971 210.368 14.7531 210.368C14.2091 210.368 13.7131 210.501 13.2651 210.768C12.8171 211.024 12.4491 211.387 12.1611 211.856C11.8838 212.315 11.7238 212.843 11.6811 213.44ZM20.5278 218V209.664H21.6158V213.232H22.8638L25.6638 209.664H26.9118L23.7278 213.712L27.3118 218H26.0318L22.8638 214.24H21.6158V218H20.5278ZM28.8403 218V209.664H33.0003C33.4696 209.664 33.8643 209.765 34.1843 209.968C34.5043 210.16 34.7443 210.411 34.9043 210.72C35.0749 211.029 35.1603 211.36 35.1603 211.712C35.1603 212.16 35.0536 212.565 34.8403 212.928C34.6269 213.28 34.3176 213.547 33.9123 213.728C34.3923 213.867 34.7816 214.117 35.0803 214.48C35.3789 214.843 35.5283 215.28 35.5283 215.792C35.5283 216.24 35.4163 216.629 35.1923 216.96C34.9789 217.291 34.6803 217.547 34.2963 217.728C33.9229 217.909 33.4909 218 33.0003 218H28.8403ZM29.8803 217.216H32.9683C33.2456 217.216 33.4963 217.147 33.7203 217.008C33.9549 216.859 34.1363 216.667 34.2643 216.432C34.4029 216.197 34.4723 215.952 34.4723 215.696C34.4723 215.419 34.4083 215.168 34.2803 214.944C34.1523 214.709 33.9816 214.523 33.7683 214.384C33.5549 214.245 33.3096 214.176 33.0323 214.176H29.8803V217.216ZM29.8803 213.424H32.7123C32.9896 213.424 33.2349 213.349 33.4483 213.2C33.6616 213.051 33.8269 212.859 33.9443 212.624C34.0616 212.389 34.1203 212.144 34.1203 211.888C34.1203 211.504 33.9923 211.168 33.7363 210.88C33.4909 210.592 33.1709 210.448 32.7763 210.448H29.8803V213.424ZM37.4028 218V209.68H38.4908V216.528L43.5628 209.664H44.5388V218H43.4508V211.264L38.4588 218H37.4028ZM49.3348 218.096C48.5668 218.096 47.9108 217.952 47.3668 217.664C46.8228 217.365 46.4068 216.949 46.1188 216.416L47.0148 216.016C47.2174 216.389 47.5108 216.683 47.8948 216.896C48.2788 217.099 48.7428 217.2 49.2868 217.2C49.9374 217.2 50.4548 217.051 50.8388 216.752C51.2334 216.453 51.4308 216.053 51.4308 215.552C51.4308 215.093 51.2761 214.725 50.9668 214.448C50.6574 214.171 50.2308 214.027 49.6868 214.016H48.8388V213.264H49.7508C49.9854 213.264 50.1988 213.2 50.3908 213.072C50.5828 212.944 50.7321 212.773 50.8388 212.56C50.9454 212.347 50.9988 212.107 50.9988 211.84C50.9988 211.424 50.8494 211.088 50.5508 210.832C50.2628 210.576 49.8361 210.448 49.2708 210.448C48.8014 210.448 48.4068 210.544 48.0868 210.736C47.7774 210.917 47.5268 211.189 47.3348 211.552L46.5028 211.104C46.7481 210.613 47.1108 210.229 47.5908 209.952C48.0814 209.675 48.6521 209.536 49.3028 209.536C49.8361 209.536 50.3001 209.627 50.6948 209.808C51.1001 209.979 51.4148 210.229 51.6388 210.56C51.8734 210.88 51.9908 211.269 51.9908 211.728C51.9908 212.123 51.8948 212.491 51.7028 212.832C51.5108 213.163 51.2441 213.413 50.9028 213.584C51.3934 213.733 51.7721 213.995 52.0388 214.368C52.3161 214.741 52.4548 215.179 52.4548 215.68C52.4548 216.181 52.3214 216.613 52.0548 216.976C51.7881 217.339 51.4201 217.616 50.9508 217.808C50.4814 218 49.9428 218.096 49.3348 218.096ZM54.2621 218V209.68H55.3501V216.528L60.4221 209.664H61.3981V218H60.3101V211.264L55.3181 218H54.2621ZM65.8581 218V210.64H62.8821V209.664H69.9221V210.64H66.9461V218H65.8581ZM71.3871 218V209.664H72.4751V212.608H74.3631C75.3125 212.608 76.0271 212.853 76.5071 213.344C76.9978 213.824 77.2431 214.459 77.2431 215.248C77.2431 215.76 77.1365 216.224 76.9231 216.64C76.7098 217.056 76.3951 217.387 75.9791 217.632C75.5738 217.877 75.0618 218 74.4431 218H71.3871ZM72.4751 217.136H74.2991C74.7365 217.136 75.0885 217.051 75.3551 216.88C75.6218 216.699 75.8191 216.469 75.9471 216.192C76.0751 215.904 76.1391 215.595 76.1391 215.264C76.1391 214.944 76.0805 214.651 75.9631 214.384C75.8565 214.107 75.6645 213.888 75.3871 213.728C75.1205 213.557 74.7471 213.472 74.2671 213.472H72.4751V217.136ZM78.7631 218V209.68H79.8511V218H78.7631Z" fill="black" fill-opacity="0.8"/>
<path d="M1.424 258V246.64H10V258H8.88V247.632H2.544V258H1.424ZM16.1739 258.16C15.5765 258.16 15.0219 258.048 14.5099 257.824C14.0085 257.589 13.5712 257.275 13.1979 256.88C12.8352 256.475 12.5525 256.016 12.3499 255.504C12.1472 254.981 12.0459 254.432 12.0459 253.856C12.0459 253.259 12.1472 252.704 12.3499 252.192C12.5525 251.669 12.8405 251.211 13.2139 250.816C13.5872 250.411 14.0245 250.096 14.5259 249.872C15.0379 249.637 15.5925 249.52 16.1899 249.52C16.7872 249.52 17.3365 249.637 17.8379 249.872C18.3392 250.096 18.7765 250.411 19.1499 250.816C19.5232 251.211 19.8112 251.669 20.0139 252.192C20.2165 252.704 20.3179 253.259 20.3179 253.856C20.3179 254.432 20.2165 254.981 20.0139 255.504C19.8112 256.016 19.5232 256.475 19.1499 256.88C18.7872 257.275 18.3499 257.589 17.8379 257.824C17.3365 258.048 16.7819 258.16 16.1739 258.16ZM13.1499 253.872C13.1499 254.491 13.2832 255.056 13.5499 255.568C13.8272 256.069 14.1952 256.469 14.6539 256.768C15.1125 257.056 15.6192 257.2 16.1739 257.2C16.7285 257.2 17.2352 257.051 17.6939 256.752C18.1525 256.453 18.5205 256.048 18.7979 255.536C19.0752 255.013 19.2139 254.448 19.2139 253.84C19.2139 253.221 19.0752 252.656 18.7979 252.144C18.5205 251.632 18.1525 251.227 17.6939 250.928C17.2352 250.629 16.7285 250.48 16.1739 250.48C15.6192 250.48 15.1125 250.635 14.6539 250.944C14.2059 251.253 13.8432 251.664 13.5659 252.176C13.2885 252.677 13.1499 253.243 13.1499 253.872ZM21.3375 258.048V257.056C21.6255 257.056 21.8815 256.981 22.1055 256.832C22.3295 256.672 22.5268 256.405 22.6975 256.032C22.8788 255.659 23.0228 255.147 23.1295 254.496C23.2362 253.835 23.3055 252.997 23.3375 251.984L23.4335 249.664H28.8415V258H27.7535V250.64H24.3935L24.3615 252.08C24.3188 253.232 24.2282 254.197 24.0895 254.976C23.9508 255.744 23.7535 256.352 23.4975 256.8C23.2522 257.248 22.9482 257.568 22.5855 257.76C22.2228 257.952 21.8068 258.048 21.3375 258.048ZM31.2309 258V249.68H32.3189V256.528L37.3909 249.664H38.3669V258H37.2789V251.264L32.2869 258H31.2309ZM42.8269 258V250.64H39.8509V249.664H46.8909V250.64H43.9149V258H42.8269ZM48.3559 258V249.68H49.4439V256.528L54.5159 249.664H55.4919V258H54.4039V251.264L49.4119 258H48.3559ZM57.8559 258V249.664H58.9439V253.232H60.1919L62.9919 249.664H64.2399L61.0559 253.712L64.6399 258H63.3599L60.1919 254.24H58.9439V258H57.8559ZM65.4811 255.6C65.4811 255.077 65.6305 254.629 65.9291 254.256C66.2278 253.872 66.6385 253.579 67.1611 253.376C67.6945 253.163 68.3078 253.056 69.0011 253.056C69.4065 253.056 69.8278 253.088 70.2651 253.152C70.7025 253.216 71.0918 253.312 71.4331 253.44V252.736C71.4331 252.032 71.2251 251.472 70.8091 251.056C70.3931 250.64 69.8171 250.432 69.0811 250.432C68.6331 250.432 68.1905 250.517 67.7531 250.688C67.3265 250.848 66.8785 251.088 66.4091 251.408L65.9931 250.64C66.5371 250.267 67.0705 249.989 67.5931 249.808C68.1158 249.616 68.6491 249.52 69.1931 249.52C70.2171 249.52 71.0278 249.813 71.6251 250.4C72.2225 250.987 72.5211 251.797 72.5211 252.832V256.688C72.5211 256.837 72.5531 256.949 72.6171 257.024C72.6811 257.088 72.7825 257.125 72.9211 257.136V258C72.8038 258.011 72.7025 258.021 72.6171 258.032C72.5318 258.043 72.4678 258.043 72.4251 258.032C72.1585 258.021 71.9558 257.936 71.8171 257.776C71.6785 257.616 71.6038 257.445 71.5931 257.264L71.5771 256.656C71.2038 257.136 70.7185 257.509 70.1211 257.776C69.5238 258.032 68.9158 258.16 68.2971 258.16C67.7638 258.16 67.2785 258.048 66.8411 257.824C66.4145 257.589 66.0785 257.28 65.8331 256.896C65.5985 256.501 65.4811 256.069 65.4811 255.6ZM71.0651 256.24C71.1825 256.091 71.2731 255.947 71.3371 255.808C71.4011 255.669 71.4331 255.547 71.4331 255.44V254.224C71.0705 254.085 70.6918 253.979 70.2971 253.904C69.9131 253.829 69.5238 253.792 69.1291 253.792C68.3505 253.792 67.7211 253.947 67.2411 254.256C66.7611 254.565 66.5211 254.987 66.5211 255.52C66.5211 255.829 66.6011 256.123 66.7611 256.4C66.9211 256.667 67.1558 256.891 67.4651 257.072C67.7745 257.243 68.1371 257.328 68.5531 257.328C69.0758 257.328 69.5611 257.227 70.0091 257.024C70.4678 256.821 70.8198 256.56 71.0651 256.24ZM78.934 258V249.664H83.094C83.5633 249.664 83.958 249.765 84.278 249.968C84.598 250.16 84.838 250.411 84.998 250.72C85.1687 251.029 85.254 251.36 85.254 251.712C85.254 252.16 85.1473 252.565 84.934 252.928C84.7207 253.28 84.4113 253.547 84.006 253.728C84.486 253.867 84.8753 254.117 85.174 254.48C85.4727 254.843 85.622 255.28 85.622 255.792C85.622 256.24 85.51 256.629 85.286 256.96C85.0727 257.291 84.774 257.547 84.39 257.728C84.0167 257.909 83.5847 258 83.094 258H78.934ZM79.974 257.216H83.062C83.3393 257.216 83.59 257.147 83.814 257.008C84.0487 256.859 84.23 256.667 84.358 256.432C84.4967 256.197 84.566 255.952 84.566 255.696C84.566 255.419 84.502 255.168 84.374 254.944C84.246 254.709 84.0753 254.523 83.862 254.384C83.6487 254.245 83.4033 254.176 83.126 254.176H79.974V257.216ZM79.974 253.424H82.806C83.0833 253.424 83.3287 253.349 83.542 253.2C83.7553 253.051 83.9207 252.859 84.038 252.624C84.1553 252.389 84.214 252.144 84.214 251.888C84.214 251.504 84.086 251.168 83.83 250.88C83.5847 250.592 83.2647 250.448 82.87 250.448H79.974V253.424ZM91.0645 258.16C90.4672 258.16 89.9125 258.048 89.4005 257.824C88.8992 257.589 88.4618 257.275 88.0885 256.88C87.7258 256.475 87.4432 256.016 87.2405 255.504C87.0378 254.981 86.9365 254.432 86.9365 253.856C86.9365 253.259 87.0378 252.704 87.2405 252.192C87.4432 251.669 87.7312 251.211 88.1045 250.816C88.4778 250.411 88.9152 250.096 89.4165 249.872C89.9285 249.637 90.4832 249.52 91.0805 249.52C91.6778 249.52 92.2272 249.637 92.7285 249.872C93.2298 250.096 93.6672 250.411 94.0405 250.816C94.4138 251.211 94.7018 251.669 94.9045 252.192C95.1072 252.704 95.2085 253.259 95.2085 253.856C95.2085 254.432 95.1072 254.981 94.9045 255.504C94.7018 256.016 94.4138 256.475 94.0405 256.88C93.6778 257.275 93.2405 257.589 92.7285 257.824C92.2272 258.048 91.6725 258.16 91.0645 258.16ZM88.0405 253.872C88.0405 254.491 88.1738 255.056 88.4405 255.568C88.7178 256.069 89.0858 256.469 89.5445 256.768C90.0032 257.056 90.5098 257.2 91.0645 257.2C91.6192 257.2 92.1258 257.051 92.5845 256.752C93.0432 256.453 93.4112 256.048 93.6885 255.536C93.9658 255.013 94.1045 254.448 94.1045 253.84C94.1045 253.221 93.9658 252.656 93.6885 252.144C93.4112 251.632 93.0432 251.227 92.5845 250.928C92.1258 250.629 91.6192 250.48 91.0645 250.48C90.5098 250.48 90.0032 250.635 89.5445 250.944C89.0965 251.253 88.7338 251.664 88.4565 252.176C88.1792 252.677 88.0405 253.243 88.0405 253.872ZM99.4441 258.096C98.6761 258.096 98.0201 257.952 97.4761 257.664C96.9321 257.365 96.5161 256.949 96.2281 256.416L97.1241 256.016C97.3268 256.389 97.6201 256.683 98.0041 256.896C98.3881 257.099 98.8521 257.2 99.3961 257.2C100.047 257.2 100.564 257.051 100.948 256.752C101.343 256.453 101.54 256.053 101.54 255.552C101.54 255.093 101.385 254.725 101.076 254.448C100.767 254.171 100.34 254.027 99.7961 254.016H98.9481V253.264H99.8601C100.095 253.264 100.308 253.2 100.5 253.072C100.692 252.944 100.841 252.773 100.948 252.56C101.055 252.347 101.108 252.107 101.108 251.84C101.108 251.424 100.959 251.088 100.66 250.832C100.372 250.576 99.9455 250.448 99.3801 250.448C98.9108 250.448 98.5161 250.544 98.1961 250.736C97.8868 250.917 97.6361 251.189 97.4441 251.552L96.6121 251.104C96.8575 250.613 97.2201 250.229 97.7001 249.952C98.1908 249.675 98.7615 249.536 99.4121 249.536C99.9455 249.536 100.409 249.627 100.804 249.808C101.209 249.979 101.524 250.229 101.748 250.56C101.983 250.88 102.1 251.269 102.1 251.728C102.1 252.123 102.004 252.491 101.812 252.832C101.62 253.163 101.353 253.413 101.012 253.584C101.503 253.733 101.881 253.995 102.148 254.368C102.425 254.741 102.564 255.179 102.564 255.68C102.564 256.181 102.431 256.613 102.164 256.976C101.897 257.339 101.529 257.616 101.06 257.808C100.591 258 100.052 258.096 99.4441 258.096ZM104.372 258V249.664H108.532C109.001 249.664 109.396 249.765 109.716 249.968C110.036 250.16 110.276 250.411 110.436 250.72C110.606 251.029 110.692 251.36 110.692 251.712C110.692 252.16 110.585 252.565 110.372 252.928C110.158 253.28 109.849 253.547 109.444 253.728C109.924 253.867 110.313 254.117 110.612 254.48C110.91 254.843 111.06 255.28 111.06 255.792C111.06 256.24 110.948 256.629 110.724 256.96C110.51 257.291 110.212 257.547 109.828 257.728C109.454 257.909 109.022 258 108.532 258H104.372ZM105.412 257.216H108.5C108.777 257.216 109.028 257.147 109.252 257.008C109.486 256.859 109.668 256.667 109.796 256.432C109.934 256.197 110.004 255.952 110.004 255.696C110.004 255.419 109.94 255.168 109.812 254.944C109.684 254.709 109.513 254.523 109.3 254.384C109.086 254.245 108.841 254.176 108.564 254.176H105.412V257.216ZM105.412 253.424H108.244C108.521 253.424 108.766 253.349 108.98 253.2C109.193 253.051 109.358 252.859 109.476 252.624C109.593 252.389 109.652 252.144 109.652 251.888C109.652 251.504 109.524 251.168 109.268 250.88C109.022 250.592 108.702 250.448 108.308 250.448H105.412V253.424ZM117.206 258.16C116.513 258.16 115.889 257.979 115.334 257.616C114.79 257.253 114.358 256.805 114.038 256.272V261.408H112.95V249.664H113.926V251.28C114.257 250.757 114.699 250.336 115.254 250.016C115.809 249.685 116.401 249.52 117.03 249.52C117.606 249.52 118.134 249.643 118.614 249.888C119.094 250.123 119.51 250.443 119.862 250.848C120.214 251.253 120.486 251.717 120.678 252.24C120.881 252.752 120.982 253.285 120.982 253.84C120.982 254.619 120.822 255.339 120.502 256C120.193 256.651 119.755 257.173 119.19 257.568C118.625 257.963 117.963 258.16 117.206 258.16ZM116.902 257.2C117.361 257.2 117.771 257.109 118.134 256.928C118.497 256.736 118.806 256.48 119.062 256.16C119.329 255.84 119.531 255.483 119.67 255.088C119.809 254.683 119.878 254.267 119.878 253.84C119.878 253.392 119.798 252.965 119.638 252.56C119.489 252.155 119.27 251.797 118.982 251.488C118.694 251.179 118.363 250.933 117.99 250.752C117.617 250.571 117.211 250.48 116.774 250.48C116.497 250.48 116.209 250.533 115.91 250.64C115.611 250.747 115.323 250.901 115.046 251.104C114.779 251.296 114.555 251.515 114.374 251.76C114.193 252.005 114.081 252.267 114.038 252.544V255.104C114.209 255.499 114.438 255.856 114.726 256.176C115.014 256.485 115.345 256.736 115.718 256.928C116.102 257.109 116.497 257.2 116.902 257.2ZM122.153 255.6C122.153 255.077 122.302 254.629 122.601 254.256C122.9 253.872 123.31 253.579 123.833 253.376C124.366 253.163 124.98 253.056 125.673 253.056C126.078 253.056 126.5 253.088 126.937 253.152C127.374 253.216 127.764 253.312 128.105 253.44V252.736C128.105 252.032 127.897 251.472 127.481 251.056C127.065 250.64 126.489 250.432 125.753 250.432C125.305 250.432 124.862 250.517 124.425 250.688C123.998 250.848 123.55 251.088 123.081 251.408L122.665 250.64C123.209 250.267 123.742 249.989 124.265 249.808C124.788 249.616 125.321 249.52 125.865 249.52C126.889 249.52 127.7 249.813 128.297 250.4C128.894 250.987 129.193 251.797 129.193 252.832V256.688C129.193 256.837 129.225 256.949 129.289 257.024C129.353 257.088 129.454 257.125 129.593 257.136V258C129.476 258.011 129.374 258.021 129.289 258.032C129.204 258.043 129.14 258.043 129.097 258.032C128.83 258.021 128.628 257.936 128.489 257.776C128.35 257.616 128.276 257.445 128.265 257.264L128.249 256.656C127.876 257.136 127.39 257.509 126.793 257.776C126.196 258.032 125.588 258.16 124.969 258.16C124.436 258.16 123.95 258.048 123.513 257.824C123.086 257.589 122.75 257.28 122.505 256.896C122.27 256.501 122.153 256.069 122.153 255.6ZM127.737 256.24C127.854 256.091 127.945 255.947 128.009 255.808C128.073 255.669 128.105 255.547 128.105 255.44V254.224C127.742 254.085 127.364 253.979 126.969 253.904C126.585 253.829 126.196 253.792 125.801 253.792C125.022 253.792 124.393 253.947 123.913 254.256C123.433 254.565 123.193 254.987 123.193 255.52C123.193 255.829 123.273 256.123 123.433 256.4C123.593 256.667 123.828 256.891 124.137 257.072C124.446 257.243 124.809 257.328 125.225 257.328C125.748 257.328 126.233 257.227 126.681 257.024C127.14 256.821 127.492 256.56 127.737 256.24ZM133.499 258V250.64H130.523V249.664H137.563V250.64H134.587V258H133.499ZM142.596 258.16C141.998 258.16 141.444 258.048 140.932 257.824C140.43 257.589 139.993 257.275 139.62 256.88C139.257 256.475 138.974 256.016 138.772 255.504C138.569 254.981 138.468 254.432 138.468 253.856C138.468 253.259 138.569 252.704 138.772 252.192C138.974 251.669 139.262 251.211 139.636 250.816C140.009 250.411 140.446 250.096 140.948 249.872C141.46 249.637 142.014 249.52 142.612 249.52C143.209 249.52 143.758 249.637 144.26 249.872C144.761 250.096 145.198 250.411 145.572 250.816C145.945 251.211 146.233 251.669 146.436 252.192C146.638 252.704 146.74 253.259 146.74 253.856C146.74 254.432 146.638 254.981 146.436 255.504C146.233 256.016 145.945 256.475 145.572 256.88C145.209 257.275 144.772 257.589 144.26 257.824C143.758 258.048 143.204 258.16 142.596 258.16ZM139.572 253.872C139.572 254.491 139.705 255.056 139.972 255.568C140.249 256.069 140.617 256.469 141.076 256.768C141.534 257.056 142.041 257.2 142.596 257.2C143.15 257.2 143.657 257.051 144.116 256.752C144.574 256.453 144.942 256.048 145.22 255.536C145.497 255.013 145.636 254.448 145.636 253.84C145.636 253.221 145.497 252.656 145.22 252.144C144.942 251.632 144.574 251.227 144.116 250.928C143.657 250.629 143.15 250.48 142.596 250.48C142.041 250.48 141.534 250.635 141.076 250.944C140.628 251.253 140.265 251.664 139.988 252.176C139.71 252.677 139.572 253.243 139.572 253.872ZM148.543 258V249.664H152.703C153.173 249.664 153.567 249.765 153.887 249.968C154.207 250.16 154.447 250.411 154.607 250.72C154.778 251.029 154.863 251.36 154.863 251.712C154.863 252.16 154.757 252.565 154.543 252.928C154.33 253.28 154.021 253.547 153.615 253.728C154.095 253.867 154.485 254.117 154.783 254.48C155.082 254.843 155.231 255.28 155.231 255.792C155.231 256.24 155.119 256.629 154.895 256.96C154.682 257.291 154.383 257.547 153.999 257.728C153.626 257.909 153.194 258 152.703 258H148.543ZM149.583 257.216H152.671C152.949 257.216 153.199 257.147 153.423 257.008C153.658 256.859 153.839 256.667 153.967 256.432C154.106 256.197 154.175 255.952 154.175 255.696C154.175 255.419 154.111 255.168 153.983 254.944C153.855 254.709 153.685 254.523 153.471 254.384C153.258 254.245 153.013 254.176 152.735 254.176H149.583V257.216ZM149.583 253.424H152.415C152.693 253.424 152.938 253.349 153.151 253.2C153.365 253.051 153.53 252.859 153.647 252.624C153.765 252.389 153.823 252.144 153.823 251.888C153.823 251.504 153.695 251.168 153.439 250.88C153.194 250.592 152.874 250.448 152.479 250.448H149.583V253.424Z" fill="black" fill-opacity="0.8"/>
<path d="M1.488 298V286.64H2.592V296.464L9.632 286.64H10.672V298H9.568V288.352L2.608 298H1.488ZM13.3403 298V289.664H14.4283V293.248H19.1963V289.664H20.2843V298H19.1963V294.224H14.4283V298H13.3403ZM26.5244 301.408V298H26.1564C25.335 298 24.6204 297.808 24.0124 297.424C23.4044 297.04 22.935 296.539 22.6044 295.92C22.2737 295.291 22.1084 294.603 22.1084 293.856C22.1084 293.099 22.2737 292.405 22.6044 291.776C22.9457 291.147 23.4204 290.64 24.0284 290.256C24.6364 289.872 25.3457 289.68 26.1564 289.68H26.5244V286.32H27.6124V289.68H27.9804C28.791 289.68 29.5004 289.872 30.1084 290.256C30.7164 290.64 31.1857 291.147 31.5164 291.776C31.8577 292.405 32.0284 293.099 32.0284 293.856C32.0284 294.603 31.863 295.291 31.5324 295.92C31.2017 296.539 30.7324 297.04 30.1244 297.424C29.5164 297.808 28.8017 298 27.9804 298H27.6124V301.408H26.5244ZM26.1564 297.088H26.5564V290.592H26.1564C25.5804 290.592 25.0684 290.741 24.6204 291.04C24.1724 291.328 23.8204 291.723 23.5644 292.224C23.3084 292.715 23.1804 293.264 23.1804 293.872C23.1804 294.469 23.303 295.013 23.5484 295.504C23.8044 295.995 24.1564 296.384 24.6044 296.672C25.0524 296.949 25.5697 297.088 26.1564 297.088ZM27.5644 297.088H27.9804C28.567 297.088 29.0844 296.949 29.5324 296.672C29.9804 296.384 30.327 295.995 30.5724 295.504C30.8284 295.013 30.9564 294.469 30.9564 293.872C30.9564 293.264 30.8284 292.715 30.5724 292.224C30.3164 291.723 29.9644 291.328 29.5164 291.04C29.079 290.741 28.567 290.592 27.9804 290.592H27.5644V297.088ZM37.4083 298.16C36.8109 298.16 36.2563 298.048 35.7443 297.824C35.2429 297.589 34.8056 297.275 34.4323 296.88C34.0696 296.475 33.7869 296.016 33.5843 295.504C33.3816 294.981 33.2803 294.432 33.2803 293.856C33.2803 293.259 33.3816 292.704 33.5843 292.192C33.7869 291.669 34.0749 291.211 34.4483 290.816C34.8216 290.411 35.2589 290.096 35.7603 289.872C36.2723 289.637 36.8269 289.52 37.4243 289.52C38.0216 289.52 38.5709 289.637 39.0723 289.872C39.5736 290.096 40.0109 290.411 40.3843 290.816C40.7576 291.211 41.0456 291.669 41.2483 292.192C41.4509 292.704 41.5523 293.259 41.5523 293.856C41.5523 294.432 41.4509 294.981 41.2483 295.504C41.0456 296.016 40.7576 296.475 40.3843 296.88C40.0216 297.275 39.5843 297.589 39.0723 297.824C38.5709 298.048 38.0163 298.16 37.4083 298.16ZM34.3843 293.872C34.3843 294.491 34.5176 295.056 34.7843 295.568C35.0616 296.069 35.4296 296.469 35.8883 296.768C36.3469 297.056 36.8536 297.2 37.4083 297.2C37.9629 297.2 38.4696 297.051 38.9283 296.752C39.3869 296.453 39.7549 296.048 40.0323 295.536C40.3096 295.013 40.4483 294.448 40.4483 293.84C40.4483 293.221 40.3096 292.656 40.0323 292.144C39.7549 291.632 39.3869 291.227 38.9283 290.928C38.4696 290.629 37.9629 290.48 37.4083 290.48C36.8536 290.48 36.3469 290.635 35.8883 290.944C35.4403 291.253 35.0776 291.664 34.8003 292.176C34.5229 292.677 34.3843 293.243 34.3843 293.872ZM47.6279 298.16C46.9345 298.16 46.3105 297.979 45.7559 297.616C45.2119 297.253 44.7799 296.805 44.4599 296.272V301.408H43.3719V289.664H44.3479V291.28C44.6785 290.757 45.1212 290.336 45.6759 290.016C46.2305 289.685 46.8225 289.52 47.4519 289.52C48.0279 289.52 48.5559 289.643 49.0359 289.888C49.5159 290.123 49.9319 290.443 50.2839 290.848C50.6359 291.253 50.9079 291.717 51.0999 292.24C51.3025 292.752 51.4039 293.285 51.4039 293.84C51.4039 294.619 51.2439 295.339 50.9239 296C50.6145 296.651 50.1772 297.173 49.6119 297.568C49.0465 297.963 48.3852 298.16 47.6279 298.16ZM47.3239 297.2C47.7825 297.2 48.1932 297.109 48.5559 296.928C48.9185 296.736 49.2279 296.48 49.4839 296.16C49.7505 295.84 49.9532 295.483 50.0919 295.088C50.2305 294.683 50.2999 294.267 50.2999 293.84C50.2999 293.392 50.2199 292.965 50.0599 292.56C49.9105 292.155 49.6919 291.797 49.4039 291.488C49.1159 291.179 48.7852 290.933 48.4119 290.752C48.0385 290.571 47.6332 290.48 47.1959 290.48C46.9185 290.48 46.6305 290.533 46.3319 290.64C46.0332 290.747 45.7452 290.901 45.4679 291.104C45.2012 291.296 44.9772 291.515 44.7959 291.76C44.6145 292.005 44.5025 292.267 44.4599 292.544V295.104C44.6305 295.499 44.8599 295.856 45.1479 296.176C45.4359 296.485 45.7665 296.736 46.1399 296.928C46.5239 297.109 46.9185 297.2 47.3239 297.2ZM53.2309 298V289.664H54.3509L57.6629 295.408L60.9909 289.664H62.0629V298H61.0229V291.296L58.0149 296.512H57.3109L54.2709 291.296V298H53.2309ZM63.7936 295.6C63.7936 295.077 63.943 294.629 64.2416 294.256C64.5403 293.872 64.951 293.579 65.4736 293.376C66.007 293.163 66.6203 293.056 67.3136 293.056C67.719 293.056 68.1403 293.088 68.5776 293.152C69.015 293.216 69.4043 293.312 69.7456 293.44V292.736C69.7456 292.032 69.5376 291.472 69.1216 291.056C68.7056 290.64 68.1296 290.432 67.3936 290.432C66.9456 290.432 66.503 290.517 66.0656 290.688C65.639 290.848 65.191 291.088 64.7216 291.408L64.3056 290.64C64.8496 290.267 65.383 289.989 65.9056 289.808C66.4283 289.616 66.9616 289.52 67.5056 289.52C68.5296 289.52 69.3403 289.813 69.9376 290.4C70.535 290.987 70.8336 291.797 70.8336 292.832V296.688C70.8336 296.837 70.8656 296.949 70.9296 297.024C70.9936 297.088 71.095 297.125 71.2336 297.136V298C71.1163 298.011 71.015 298.021 70.9296 298.032C70.8443 298.043 70.7803 298.043 70.7376 298.032C70.471 298.021 70.2683 297.936 70.1296 297.776C69.991 297.616 69.9163 297.445 69.9056 297.264L69.8896 296.656C69.5163 297.136 69.031 297.509 68.4336 297.776C67.8363 298.032 67.2283 298.16 66.6096 298.16C66.0763 298.16 65.591 298.048 65.1536 297.824C64.727 297.589 64.391 297.28 64.1456 296.896C63.911 296.501 63.7936 296.069 63.7936 295.6ZM69.3776 296.24C69.495 296.091 69.5856 295.947 69.6496 295.808C69.7136 295.669 69.7456 295.547 69.7456 295.44V294.224C69.383 294.085 69.0043 293.979 68.6096 293.904C68.2256 293.829 67.8363 293.792 67.4416 293.792C66.663 293.792 66.0336 293.947 65.5536 294.256C65.0736 294.565 64.8336 294.987 64.8336 295.52C64.8336 295.829 64.9136 296.123 65.0736 296.4C65.2336 296.667 65.4683 296.891 65.7776 297.072C66.087 297.243 66.4496 297.328 66.8656 297.328C67.3883 297.328 67.8736 297.227 68.3216 297.024C68.7803 296.821 69.1323 296.56 69.3776 296.24ZM79.8244 299.936V298H73.1684V289.664H74.2564V297.04H78.5764V289.664H79.6644V297.04H80.8004V299.936H79.8244ZM82.434 298V289.68H83.522V296.528L88.594 289.664H89.57V298H88.482V291.264L83.49 298H82.434ZM91.326 298L93.806 294.592C93.2407 294.507 92.782 294.261 92.43 293.856C92.0887 293.44 91.918 292.875 91.918 292.16C91.918 291.68 92.03 291.253 92.254 290.88C92.478 290.507 92.7927 290.208 93.198 289.984C93.614 289.76 94.0993 289.648 94.654 289.648H97.838V298H96.75V294.768H94.894L92.542 298H91.326ZM94.638 293.936H96.75V290.512H94.83C94.2753 290.512 93.8327 290.672 93.502 290.992C93.1713 291.301 93.006 291.696 93.006 292.176C93.006 292.667 93.1393 293.083 93.406 293.424C93.6833 293.765 94.094 293.936 94.638 293.936ZM107.861 298.16C107.264 298.16 106.709 298.048 106.197 297.824C105.696 297.589 105.259 297.275 104.885 296.88C104.523 296.475 104.24 296.016 104.037 295.504C103.835 294.981 103.733 294.432 103.733 293.856C103.733 293.259 103.835 292.704 104.037 292.192C104.24 291.669 104.528 291.211 104.901 290.816C105.275 290.411 105.712 290.096 106.213 289.872C106.725 289.637 107.28 289.52 107.877 289.52C108.475 289.52 109.024 289.637 109.525 289.872C110.027 290.096 110.464 290.411 110.837 290.816C111.211 291.211 111.499 291.669 111.701 292.192C111.904 292.704 112.005 293.259 112.005 293.856C112.005 294.432 111.904 294.981 111.701 295.504C111.499 296.016 111.211 296.475 110.837 296.88C110.475 297.275 110.037 297.589 109.525 297.824C109.024 298.048 108.469 298.16 107.861 298.16ZM104.837 293.872C104.837 294.491 104.971 295.056 105.237 295.568C105.515 296.069 105.883 296.469 106.341 296.768C106.8 297.056 107.307 297.2 107.861 297.2C108.416 297.2 108.923 297.051 109.381 296.752C109.84 296.453 110.208 296.048 110.485 295.536C110.763 295.013 110.901 294.448 110.901 293.84C110.901 293.221 110.763 292.656 110.485 292.144C110.208 291.632 109.84 291.227 109.381 290.928C108.923 290.629 108.416 290.48 107.861 290.48C107.307 290.48 106.8 290.635 106.341 290.944C105.893 291.253 105.531 291.664 105.253 292.176C104.976 292.677 104.837 293.243 104.837 293.872ZM117.649 298.16C116.305 298.16 115.286 297.749 114.593 296.928C113.91 296.096 113.569 294.949 113.569 293.488C113.569 292.453 113.654 291.579 113.825 290.864C113.996 290.149 114.246 289.563 114.577 289.104C114.908 288.635 115.313 288.251 115.793 287.952C116.284 287.653 116.844 287.408 117.473 287.216L120.977 286.064L121.073 287.008L117.697 288.112C117.057 288.325 116.524 288.597 116.097 288.928C115.67 289.259 115.334 289.68 115.089 290.192C114.854 290.693 114.7 291.349 114.625 292.16C114.902 291.541 115.329 291.067 115.905 290.736C116.481 290.395 117.148 290.224 117.905 290.224C118.716 290.224 119.404 290.389 119.969 290.72C120.545 291.051 120.982 291.509 121.281 292.096C121.58 292.683 121.729 293.36 121.729 294.128C121.729 294.939 121.569 295.648 121.249 296.256C120.94 296.853 120.481 297.323 119.873 297.664C119.276 297.995 118.534 298.16 117.649 298.16ZM117.649 297.2C118.598 297.2 119.329 296.928 119.841 296.384C120.364 295.829 120.625 295.093 120.625 294.176C120.625 293.28 120.369 292.549 119.857 291.984C119.356 291.419 118.62 291.136 117.649 291.136C117.094 291.136 116.593 291.253 116.145 291.488C115.697 291.723 115.34 292.064 115.073 292.512C114.817 292.96 114.689 293.515 114.689 294.176C114.689 294.752 114.801 295.269 115.025 295.728C115.26 296.187 115.596 296.549 116.033 296.816C116.47 297.072 117.009 297.2 117.649 297.2ZM131.19 298.16C130.592 298.16 130.038 298.048 129.526 297.824C129.024 297.589 128.587 297.275 128.214 296.88C127.851 296.475 127.568 296.016 127.366 295.504C127.163 294.981 127.062 294.432 127.062 293.856C127.062 293.259 127.163 292.704 127.366 292.192C127.568 291.669 127.856 291.211 128.23 290.816C128.603 290.411 129.04 290.096 129.542 289.872C130.054 289.637 130.608 289.52 131.206 289.52C131.803 289.52 132.352 289.637 132.854 289.872C133.355 290.096 133.792 290.411 134.166 290.816C134.539 291.211 134.827 291.669 135.03 292.192C135.232 292.704 135.334 293.259 135.334 293.856C135.334 294.432 135.232 294.981 135.03 295.504C134.827 296.016 134.539 296.475 134.166 296.88C133.803 297.275 133.366 297.589 132.854 297.824C132.352 298.048 131.798 298.16 131.19 298.16ZM128.166 293.872C128.166 294.491 128.299 295.056 128.566 295.568C128.843 296.069 129.211 296.469 129.67 296.768C130.128 297.056 130.635 297.2 131.19 297.2C131.744 297.2 132.251 297.051 132.71 296.752C133.168 296.453 133.536 296.048 133.814 295.536C134.091 295.013 134.23 294.448 134.23 293.84C134.23 293.221 134.091 292.656 133.814 292.144C133.536 291.632 133.168 291.227 132.71 290.928C132.251 290.629 131.744 290.48 131.19 290.48C130.635 290.48 130.128 290.635 129.67 290.944C129.222 291.253 128.859 291.664 128.582 292.176C128.304 292.677 128.166 293.243 128.166 293.872ZM137.137 298V289.664H143.841V298H142.753V290.64H138.225V298H137.137ZM145.447 298.048V297.056C145.735 297.056 145.991 296.981 146.215 296.832C146.439 296.672 146.636 296.405 146.807 296.032C146.988 295.659 147.132 295.147 147.239 294.496C147.346 293.835 147.415 292.997 147.447 291.984L147.543 289.664H152.951V298H151.863V290.64H148.503L148.471 292.08C148.428 293.232 148.338 294.197 148.199 294.976C148.06 295.744 147.863 296.352 147.607 296.8C147.362 297.248 147.058 297.568 146.695 297.76C146.332 297.952 145.916 298.048 145.447 298.048ZM154.684 295.6C154.684 295.077 154.834 294.629 155.132 294.256C155.431 293.872 155.842 293.579 156.364 293.376C156.898 293.163 157.511 293.056 158.204 293.056C158.61 293.056 159.031 293.088 159.468 293.152C159.906 293.216 160.295 293.312 160.636 293.44V292.736C160.636 292.032 160.428 291.472 160.012 291.056C159.596 290.64 159.02 290.432 158.284 290.432C157.836 290.432 157.394 290.517 156.956 290.688C156.53 290.848 156.082 291.088 155.612 291.408L155.196 290.64C155.74 290.267 156.274 289.989 156.796 289.808C157.319 289.616 157.852 289.52 158.396 289.52C159.42 289.52 160.231 289.813 160.828 290.4C161.426 290.987 161.724 291.797 161.724 292.832V296.688C161.724 296.837 161.756 296.949 161.82 297.024C161.884 297.088 161.986 297.125 162.124 297.136V298C162.007 298.011 161.906 298.021 161.82 298.032C161.735 298.043 161.671 298.043 161.628 298.032C161.362 298.021 161.159 297.936 161.02 297.776C160.882 297.616 160.807 297.445 160.796 297.264L160.78 296.656C160.407 297.136 159.922 297.509 159.324 297.776C158.727 298.032 158.119 298.16 157.5 298.16C156.967 298.16 156.482 298.048 156.044 297.824C155.618 297.589 155.282 297.28 155.036 296.896C154.802 296.501 154.684 296.069 154.684 295.6ZM160.268 296.24C160.386 296.091 160.476 295.947 160.54 295.808C160.604 295.669 160.636 295.547 160.636 295.44V294.224C160.274 294.085 159.895 293.979 159.5 293.904C159.116 293.829 158.727 293.792 158.332 293.792C157.554 293.792 156.924 293.947 156.444 294.256C155.964 294.565 155.724 294.987 155.724 295.52C155.724 295.829 155.804 296.123 155.964 296.4C156.124 296.667 156.359 296.891 156.668 297.072C156.978 297.243 157.34 297.328 157.756 297.328C158.279 297.328 158.764 297.227 159.212 297.024C159.671 296.821 160.023 296.56 160.268 296.24ZM166.03 298V290.64H163.054V289.664H170.094V290.64H167.118V298H166.03ZM171.559 298V289.664H172.647V292.608H174.535C175.484 292.608 176.199 292.853 176.679 293.344C177.17 293.824 177.415 294.459 177.415 295.248C177.415 295.76 177.308 296.224 177.095 296.64C176.882 297.056 176.567 297.387 176.151 297.632C175.746 297.877 175.234 298 174.615 298H171.559ZM172.647 297.136H174.471C174.908 297.136 175.26 297.051 175.527 296.88C175.794 296.699 175.991 296.469 176.119 296.192C176.247 295.904 176.311 295.595 176.311 295.264C176.311 294.944 176.252 294.651 176.135 294.384C176.028 294.107 175.836 293.888 175.559 293.728C175.292 293.557 174.919 293.472 174.439 293.472H172.647V297.136ZM178.935 298V289.68H180.023V298H178.935ZM1.184 322V313.664H2.272V317.232H3.52L6.32 313.664H7.568L4.384 317.712L7.968 322H6.688L3.52 318.24H2.272V322H1.184ZM8.80925 319.6C8.80925 319.077 8.95858 318.629 9.25725 318.256C9.55592 317.872 9.96658 317.579 10.4893 317.376C11.0226 317.163 11.6359 317.056 12.3293 317.056C12.7346 317.056 13.1559 317.088 13.5933 317.152C14.0306 317.216 14.4199 317.312 14.7613 317.44V316.736C14.7613 316.032 14.5533 315.472 14.1373 315.056C13.7213 314.64 13.1453 314.432 12.4093 314.432C11.9613 314.432 11.5186 314.517 11.0813 314.688C10.6546 314.848 10.2066 315.088 9.73725 315.408L9.32125 314.64C9.86525 314.267 10.3986 313.989 10.9213 313.808C11.4439 313.616 11.9773 313.52 12.5213 313.52C13.5453 313.52 14.3559 313.813 14.9533 314.4C15.5506 314.987 15.8493 315.797 15.8493 316.832V320.688C15.8493 320.837 15.8813 320.949 15.9453 321.024C16.0093 321.088 16.1106 321.125 16.2493 321.136V322C16.1319 322.011 16.0306 322.021 15.9453 322.032C15.8599 322.043 15.7959 322.043 15.7533 322.032C15.4866 322.021 15.2839 321.936 15.1453 321.776C15.0066 321.616 14.9319 321.445 14.9213 321.264L14.9053 320.656C14.5319 321.136 14.0466 321.509 13.4493 321.776C12.8519 322.032 12.2439 322.16 11.6253 322.16C11.0919 322.16 10.6066 322.048 10.1693 321.824C9.74258 321.589 9.40658 321.28 9.16125 320.896C8.92658 320.501 8.80925 320.069 8.80925 319.6ZM14.3933 320.24C14.5106 320.091 14.6013 319.947 14.6653 319.808C14.7293 319.669 14.7613 319.547 14.7613 319.44V318.224C14.3986 318.085 14.0199 317.979 13.6253 317.904C13.2413 317.829 12.8519 317.792 12.4573 317.792C11.6786 317.792 11.0493 317.947 10.5693 318.256C10.0893 318.565 9.84925 318.987 9.84925 319.52C9.84925 319.829 9.92925 320.123 10.0893 320.4C10.2493 320.667 10.4839 320.891 10.7933 321.072C11.1026 321.243 11.4653 321.328 11.8813 321.328C12.4039 321.328 12.8893 321.227 13.3373 321.024C13.7959 320.821 14.1479 320.56 14.3933 320.24ZM22.456 322.16C21.7627 322.16 21.1387 321.979 20.584 321.616C20.04 321.253 19.608 320.805 19.288 320.272V325.408H18.2V313.664H19.176V315.28C19.5067 314.757 19.9493 314.336 20.504 314.016C21.0587 313.685 21.6507 313.52 22.28 313.52C22.856 313.52 23.384 313.643 23.864 313.888C24.344 314.123 24.76 314.443 25.112 314.848C25.464 315.253 25.736 315.717 25.928 316.24C26.1307 316.752 26.232 317.285 26.232 317.84C26.232 318.619 26.072 319.339 25.752 320C25.4427 320.651 25.0053 321.173 24.44 321.568C23.8747 321.963 23.2133 322.16 22.456 322.16ZM22.152 321.2C22.6107 321.2 23.0213 321.109 23.384 320.928C23.7467 320.736 24.056 320.48 24.312 320.16C24.5787 319.84 24.7813 319.483 24.92 319.088C25.0587 318.683 25.128 318.267 25.128 317.84C25.128 317.392 25.048 316.965 24.888 316.56C24.7387 316.155 24.52 315.797 24.232 315.488C23.944 315.179 23.6133 314.933 23.24 314.752C22.8667 314.571 22.4613 314.48 22.024 314.48C21.7467 314.48 21.4587 314.533 21.16 314.64C20.8613 314.747 20.5733 314.901 20.296 315.104C20.0293 315.296 19.8053 315.515 19.624 315.76C19.4427 316.005 19.3307 316.267 19.288 316.544V319.104C19.4587 319.499 19.688 319.856 19.976 320.176C20.264 320.485 20.5947 320.736 20.968 320.928C21.352 321.109 21.7467 321.2 22.152 321.2ZM30.155 322V314.64H27.179V313.664H34.219V314.64H31.243V322H30.155ZM39.252 322.16C38.6547 322.16 38.1 322.048 37.588 321.824C37.0867 321.589 36.6493 321.275 36.276 320.88C35.9133 320.475 35.6307 320.016 35.428 319.504C35.2253 318.981 35.124 318.432 35.124 317.856C35.124 317.259 35.2253 316.704 35.428 316.192C35.6307 315.669 35.9187 315.211 36.292 314.816C36.6653 314.411 37.1027 314.096 37.604 313.872C38.116 313.637 38.6707 313.52 39.268 313.52C39.8653 313.52 40.4147 313.637 40.916 313.872C41.4173 314.096 41.8547 314.411 42.228 314.816C42.6013 315.211 42.8893 315.669 43.092 316.192C43.2947 316.704 43.396 317.259 43.396 317.856C43.396 318.432 43.2947 318.981 43.092 319.504C42.8893 320.016 42.6013 320.475 42.228 320.88C41.8653 321.275 41.428 321.589 40.916 321.824C40.4147 322.048 39.86 322.16 39.252 322.16ZM36.228 317.872C36.228 318.491 36.3613 319.056 36.628 319.568C36.9053 320.069 37.2733 320.469 37.732 320.768C38.1907 321.056 38.6973 321.2 39.252 321.2C39.8067 321.2 40.3133 321.051 40.772 320.752C41.2307 320.453 41.5987 320.048 41.876 319.536C42.1533 319.013 42.292 318.448 42.292 317.84C42.292 317.221 42.1533 316.656 41.876 316.144C41.5987 315.632 41.2307 315.227 40.772 314.928C40.3133 314.629 39.8067 314.48 39.252 314.48C38.6973 314.48 38.1907 314.635 37.732 314.944C37.284 315.253 36.9213 315.664 36.644 316.176C36.3667 316.677 36.228 317.243 36.228 317.872ZM45.1996 322V313.68H46.2876V320.528L51.3596 313.664H52.3356V322H51.2476V315.264L46.2556 322H45.1996ZM48.7836 312.608C48.0583 312.608 47.4983 312.437 47.1036 312.096C46.709 311.755 46.5116 311.323 46.5116 310.8H47.3116C47.3116 311.12 47.429 311.387 47.6636 311.6C47.909 311.813 48.2823 311.92 48.7836 311.92C49.2743 311.92 49.6316 311.819 49.8556 311.616C50.0903 311.413 50.2236 311.141 50.2556 310.8H51.0396C51.0396 311.323 50.8423 311.755 50.4476 312.096C50.053 312.437 49.4983 312.608 48.7836 312.608ZM58.7778 322V313.68H59.8658V320.528L64.9378 313.664H65.9138V322H64.8258V315.264L59.8338 322H58.7778ZM76.1959 322.16C74.8519 322.16 73.8332 321.749 73.1399 320.928C72.4572 320.096 72.1159 318.949 72.1159 317.488C72.1159 316.453 72.2012 315.579 72.3719 314.864C72.5425 314.149 72.7932 313.563 73.1239 313.104C73.4545 312.635 73.8599 312.251 74.3399 311.952C74.8305 311.653 75.3905 311.408 76.0199 311.216L79.5239 310.064L79.6199 311.008L76.2439 312.112C75.6039 312.325 75.0705 312.597 74.6439 312.928C74.2172 313.259 73.8812 313.68 73.6359 314.192C73.4012 314.693 73.2465 315.349 73.1719 316.16C73.4492 315.541 73.8759 315.067 74.4519 314.736C75.0279 314.395 75.6945 314.224 76.4519 314.224C77.2625 314.224 77.9505 314.389 78.5159 314.72C79.0919 315.051 79.5292 315.509 79.8279 316.096C80.1265 316.683 80.2759 317.36 80.2759 318.128C80.2759 318.939 80.1159 319.648 79.7959 320.256C79.4865 320.853 79.0279 321.323 78.4199 321.664C77.8225 321.995 77.0812 322.16 76.1959 322.16ZM76.1959 321.2C77.1452 321.2 77.8759 320.928 78.3879 320.384C78.9105 319.829 79.1719 319.093 79.1719 318.176C79.1719 317.28 78.9159 316.549 78.4039 315.984C77.9025 315.419 77.1665 315.136 76.1959 315.136C75.6412 315.136 75.1399 315.253 74.6919 315.488C74.2439 315.723 73.8865 316.064 73.6199 316.512C73.3639 316.96 73.2359 317.515 73.2359 318.176C73.2359 318.752 73.3479 319.269 73.5719 319.728C73.8065 320.187 74.1425 320.549 74.5799 320.816C75.0172 321.072 75.5559 321.2 76.1959 321.2ZM85.7063 322.16C85.1089 322.16 84.5543 322.048 84.0423 321.824C83.5303 321.589 83.0876 321.275 82.7143 320.88C82.3409 320.475 82.0476 320.011 81.8343 319.488C81.6316 318.965 81.5303 318.405 81.5303 317.808C81.5303 317.029 81.7063 316.315 82.0583 315.664C82.4209 315.013 82.9169 314.496 83.5463 314.112C84.1756 313.717 84.8903 313.52 85.6903 313.52C86.5116 313.52 87.2263 313.717 87.8343 314.112C88.4529 314.507 88.9383 315.029 89.2903 315.68C89.6423 316.32 89.8183 317.024 89.8183 317.792C89.8183 317.877 89.8183 317.963 89.8183 318.048C89.8183 318.123 89.8129 318.181 89.8023 318.224H82.6663C82.7196 318.821 82.8849 319.355 83.1623 319.824C83.4503 320.283 83.8183 320.651 84.2663 320.928C84.7249 321.195 85.2209 321.328 85.7543 321.328C86.2983 321.328 86.8103 321.189 87.2903 320.912C87.7809 320.635 88.1223 320.272 88.3143 319.824L89.2583 320.08C89.0876 320.475 88.8263 320.832 88.4743 321.152C88.1223 321.472 87.7063 321.723 87.2263 321.904C86.7569 322.075 86.2503 322.16 85.7063 322.16ZM82.6343 317.44H88.7943C88.7516 316.832 88.5863 316.299 88.2983 315.84C88.0209 315.381 87.6529 315.024 87.1943 314.768C86.7463 314.501 86.2503 314.368 85.7063 314.368C85.1623 314.368 84.6663 314.501 84.2183 314.768C83.7703 315.024 83.4023 315.387 83.1143 315.856C82.8369 316.315 82.6769 316.843 82.6343 317.44ZM93.9129 322.096C93.1449 322.096 92.4889 321.952 91.9449 321.664C91.4009 321.365 90.9849 320.949 90.6969 320.416L91.5929 320.016C91.7955 320.389 92.0889 320.683 92.4729 320.896C92.8569 321.099 93.3209 321.2 93.8649 321.2C94.5155 321.2 95.0329 321.051 95.4169 320.752C95.8115 320.453 96.0089 320.053 96.0089 319.552C96.0089 319.093 95.8542 318.725 95.5449 318.448C95.2355 318.171 94.8089 318.027 94.2649 318.016H93.4169V317.264H94.3289C94.5635 317.264 94.7769 317.2 94.9689 317.072C95.1609 316.944 95.3102 316.773 95.4169 316.56C95.5235 316.347 95.5769 316.107 95.5769 315.84C95.5769 315.424 95.4275 315.088 95.1289 314.832C94.8409 314.576 94.4142 314.448 93.8489 314.448C93.3795 314.448 92.9849 314.544 92.6649 314.736C92.3555 314.917 92.1049 315.189 91.9129 315.552L91.0809 315.104C91.3262 314.613 91.6889 314.229 92.1689 313.952C92.6595 313.675 93.2302 313.536 93.8809 313.536C94.4142 313.536 94.8782 313.627 95.2729 313.808C95.6782 313.979 95.9929 314.229 96.2169 314.56C96.4515 314.88 96.5689 315.269 96.5689 315.728C96.5689 316.123 96.4729 316.491 96.2809 316.832C96.0889 317.163 95.8222 317.413 95.4809 317.584C95.9715 317.733 96.3502 317.995 96.6169 318.368C96.8942 318.741 97.0329 319.179 97.0329 319.68C97.0329 320.181 96.8995 320.613 96.6329 320.976C96.3662 321.339 95.9982 321.616 95.5289 321.808C95.0595 322 94.5209 322.096 93.9129 322.096ZM102.408 322.16C101.811 322.16 101.256 322.048 100.744 321.824C100.243 321.589 99.8056 321.275 99.4323 320.88C99.0696 320.475 98.7869 320.016 98.5843 319.504C98.3816 318.981 98.2803 318.432 98.2803 317.856C98.2803 317.259 98.3816 316.704 98.5843 316.192C98.7869 315.669 99.0749 315.211 99.4483 314.816C99.8216 314.411 100.259 314.096 100.76 313.872C101.272 313.637 101.827 313.52 102.424 313.52C103.022 313.52 103.571 313.637 104.072 313.872C104.574 314.096 105.011 314.411 105.384 314.816C105.758 315.211 106.046 315.669 106.248 316.192C106.451 316.704 106.552 317.259 106.552 317.856C106.552 318.432 106.451 318.981 106.248 319.504C106.046 320.016 105.758 320.475 105.384 320.88C105.022 321.275 104.584 321.589 104.072 321.824C103.571 322.048 103.016 322.16 102.408 322.16ZM99.3843 317.872C99.3843 318.491 99.5176 319.056 99.7843 319.568C100.062 320.069 100.43 320.469 100.888 320.768C101.347 321.056 101.854 321.2 102.408 321.2C102.963 321.2 103.47 321.051 103.928 320.752C104.387 320.453 104.755 320.048 105.032 319.536C105.31 319.013 105.448 318.448 105.448 317.84C105.448 317.221 105.31 316.656 105.032 316.144C104.755 315.632 104.387 315.227 103.928 314.928C103.47 314.629 102.963 314.48 102.408 314.48C101.854 314.48 101.347 314.635 100.888 314.944C100.44 315.253 100.078 315.664 99.8003 316.176C99.5229 316.677 99.3843 317.243 99.3843 317.872ZM108.356 322V313.664H115.06V322H113.972V314.64H109.444V322H108.356ZM116.794 319.6C116.794 319.077 116.943 318.629 117.242 318.256C117.54 317.872 117.951 317.579 118.474 317.376C119.007 317.163 119.62 317.056 120.314 317.056C120.719 317.056 121.14 317.088 121.578 317.152C122.015 317.216 122.404 317.312 122.746 317.44V316.736C122.746 316.032 122.538 315.472 122.122 315.056C121.706 314.64 121.13 314.432 120.394 314.432C119.946 314.432 119.503 314.517 119.066 314.688C118.639 314.848 118.191 315.088 117.722 315.408L117.306 314.64C117.85 314.267 118.383 313.989 118.906 313.808C119.428 313.616 119.962 313.52 120.506 313.52C121.53 313.52 122.34 313.813 122.938 314.4C123.535 314.987 123.834 315.797 123.834 316.832V320.688C123.834 320.837 123.866 320.949 123.93 321.024C123.994 321.088 124.095 321.125 124.234 321.136V322C124.116 322.011 124.015 322.021 123.93 322.032C123.844 322.043 123.78 322.043 123.738 322.032C123.471 322.021 123.268 321.936 123.13 321.776C122.991 321.616 122.916 321.445 122.906 321.264L122.89 320.656C122.516 321.136 122.031 321.509 121.434 321.776C120.836 322.032 120.228 322.16 119.61 322.16C119.076 322.16 118.591 322.048 118.154 321.824C117.727 321.589 117.391 321.28 117.146 320.896C116.911 320.501 116.794 320.069 116.794 319.6ZM122.378 320.24C122.495 320.091 122.586 319.947 122.65 319.808C122.714 319.669 122.746 319.547 122.746 319.44V318.224C122.383 318.085 122.004 317.979 121.61 317.904C121.226 317.829 120.836 317.792 120.442 317.792C119.663 317.792 119.034 317.947 118.554 318.256C118.074 318.565 117.834 318.987 117.834 319.52C117.834 319.829 117.914 320.123 118.074 320.4C118.234 320.667 118.468 320.891 118.778 321.072C119.087 321.243 119.45 321.328 119.866 321.328C120.388 321.328 120.874 321.227 121.322 321.024C121.78 320.821 122.132 320.56 122.378 320.24ZM129.8 322.16C129.192 322.16 128.632 322.048 128.12 321.824C127.619 321.589 127.176 321.269 126.792 320.864C126.419 320.459 126.126 319.995 125.912 319.472C125.71 318.949 125.608 318.395 125.608 317.808C125.608 317.019 125.784 316.299 126.136 315.648C126.488 314.997 126.979 314.48 127.608 314.096C128.238 313.712 128.963 313.52 129.784 313.52C130.563 313.52 131.251 313.701 131.848 314.064C132.446 314.416 132.888 314.896 133.176 315.504L132.12 315.84C131.886 315.413 131.555 315.083 131.128 314.848C130.712 314.603 130.248 314.48 129.736 314.48C129.182 314.48 128.675 314.624 128.216 314.912C127.758 315.2 127.39 315.595 127.112 316.096C126.846 316.597 126.712 317.168 126.712 317.808C126.712 318.437 126.851 319.008 127.128 319.52C127.406 320.032 127.774 320.443 128.232 320.752C128.691 321.051 129.198 321.2 129.752 321.2C130.115 321.2 130.462 321.136 130.792 321.008C131.134 320.88 131.427 320.709 131.672 320.496C131.928 320.272 132.099 320.032 132.184 319.776L133.256 320.096C133.107 320.491 132.856 320.848 132.504 321.168C132.163 321.477 131.758 321.723 131.288 321.904C130.83 322.075 130.334 322.16 129.8 322.16ZM134.95 322V313.664H136.038V317.248H140.806V313.664H141.894V322H140.806V318.224H136.038V322H134.95ZM147.846 322.16C147.248 322.16 146.694 322.048 146.182 321.824C145.68 321.589 145.243 321.275 144.87 320.88C144.507 320.475 144.224 320.016 144.022 319.504C143.819 318.981 143.718 318.432 143.718 317.856C143.718 317.259 143.819 316.704 144.022 316.192C144.224 315.669 144.512 315.211 144.886 314.816C145.259 314.411 145.696 314.096 146.198 313.872C146.71 313.637 147.264 313.52 147.862 313.52C148.459 313.52 149.008 313.637 149.51 313.872C150.011 314.096 150.448 314.411 150.822 314.816C151.195 315.211 151.483 315.669 151.686 316.192C151.888 316.704 151.99 317.259 151.99 317.856C151.99 318.432 151.888 318.981 151.686 319.504C151.483 320.016 151.195 320.475 150.822 320.88C150.459 321.275 150.022 321.589 149.51 321.824C149.008 322.048 148.454 322.16 147.846 322.16ZM144.822 317.872C144.822 318.491 144.955 319.056 145.222 319.568C145.499 320.069 145.867 320.469 146.326 320.768C146.784 321.056 147.291 321.2 147.846 321.2C148.4 321.2 148.907 321.051 149.366 320.752C149.824 320.453 150.192 320.048 150.47 319.536C150.747 319.013 150.886 318.448 150.886 317.84C150.886 317.221 150.747 316.656 150.47 316.144C150.192 315.632 149.824 315.227 149.366 314.928C148.907 314.629 148.4 314.48 147.846 314.48C147.291 314.48 146.784 314.635 146.326 314.944C145.878 315.253 145.515 315.664 145.238 316.176C144.96 316.677 144.822 317.243 144.822 317.872ZM157.425 322.16C156.817 322.16 156.257 322.048 155.745 321.824C155.244 321.589 154.801 321.269 154.417 320.864C154.044 320.459 153.751 319.995 153.537 319.472C153.335 318.949 153.233 318.395 153.233 317.808C153.233 317.019 153.409 316.299 153.761 315.648C154.113 314.997 154.604 314.48 155.233 314.096C155.863 313.712 156.588 313.52 157.409 313.52C158.188 313.52 158.876 313.701 159.473 314.064C160.071 314.416 160.513 314.896 160.801 315.504L159.745 315.84C159.511 315.413 159.18 315.083 158.753 314.848C158.337 314.603 157.873 314.48 157.361 314.48C156.807 314.48 156.3 314.624 155.841 314.912C155.383 315.2 155.015 315.595 154.737 316.096C154.471 316.597 154.337 317.168 154.337 317.808C154.337 318.437 154.476 319.008 154.753 319.52C155.031 320.032 155.399 320.443 155.857 320.752C156.316 321.051 156.823 321.2 157.377 321.2C157.74 321.2 158.087 321.136 158.417 321.008C158.759 320.88 159.052 320.709 159.297 320.496C159.553 320.272 159.724 320.032 159.809 319.776L160.881 320.096C160.732 320.491 160.481 320.848 160.129 321.168C159.788 321.477 159.383 321.723 158.913 321.904C158.455 322.075 157.959 322.16 157.425 322.16ZM164.671 322V314.64H161.695V313.664H168.735V314.64H165.759V322H164.671ZM170.2 322V313.664H171.288V316.608H173.448C174.397 316.608 175.112 316.853 175.592 317.344C176.082 317.824 176.328 318.459 176.328 319.248C176.328 319.76 176.221 320.224 176.008 320.64C175.794 321.056 175.48 321.387 175.064 321.632C174.658 321.877 174.146 322 173.528 322H170.2ZM171.288 321.136H173.384C173.821 321.136 174.173 321.051 174.44 320.88C174.706 320.699 174.904 320.469 175.032 320.192C175.16 319.904 175.224 319.595 175.224 319.264C175.224 318.944 175.165 318.651 175.048 318.384C174.941 318.107 174.749 317.888 174.472 317.728C174.205 317.557 173.832 317.472 173.352 317.472H171.288V321.136Z" fill="black" fill-opacity="0.8"/>
</svg>
