<svg width="184" height="88" viewBox="0 0 184 88" fill="none" xmlns="http://www.w3.org/2000/svg">
<g clip-path="url(#clip0_376_830)">
<path d="M20.0024 48C14.5655 48 13.8879 48.0263 11.7602 48.1163C9.62364 48.2213 8.17846 48.5526 6.9033 49.0476C5.56871 49.5515 4.36007 50.3403 3.36161 51.3592C2.33991 52.3553 1.55063 53.5646 1.05007 54.9009C0.55501 56.176 0.223719 57.6212 0.118706 59.7577C0.0224439 61.8867 0.00244141 62.5631 0.00244141 68C0.00244141 73.4369 0.0286947 74.1145 0.118706 76.2423C0.223719 78.3725 0.55501 79.824 1.05007 81.0991C1.55391 82.4337 2.34275 83.6424 3.36161 84.6408C4.35773 85.6625 5.56705 86.4518 6.9033 86.9524C8.17846 87.4412 9.62989 87.7787 11.7602 87.8837C13.8892 87.98 14.5655 88 20.0024 88C25.4394 88 26.117 87.9737 28.2447 87.8837C30.375 87.7787 31.8264 87.4399 33.1016 86.9524C34.4362 86.4485 35.6448 85.6597 36.6433 84.6408C37.6663 83.6458 38.4558 82.4362 38.9548 81.0991C39.4436 79.824 39.7812 78.3725 39.8862 76.2423C39.9824 74.1133 40.0024 73.4369 40.0024 68C40.0024 62.5631 39.9762 61.8855 39.8862 59.7577C39.7812 57.6275 39.4424 56.1685 38.9548 54.9009C38.451 53.5663 37.6621 52.3576 36.6433 51.3592C35.6482 50.3362 34.4386 49.5467 33.1016 49.0476C31.8264 48.5526 30.375 48.2213 28.2447 48.1163C26.1157 48.02 25.4394 48 20.0024 48ZM20.0024 51.6005C25.3419 51.6005 25.9794 51.6267 28.0897 51.7167C30.0362 51.808 31.0963 52.133 31.8002 52.4081C32.6703 52.7292 33.4579 53.2405 34.1055 53.9045C34.7683 54.5494 35.2777 55.3351 35.5956 56.2035C35.8707 56.9074 36.1957 57.9675 36.287 59.914C36.377 62.0243 36.4032 62.6631 36.4032 68.0012C36.4032 73.3394 36.377 73.9782 36.2795 76.0885C36.1745 78.035 35.8494 79.0951 35.5756 79.799C35.1968 80.7378 34.7743 81.3942 34.0767 82.1043C33.4269 82.7641 32.6399 83.2729 31.7714 83.5944C31.0763 83.8695 30.0012 84.1945 28.0472 84.2858C25.9257 84.3758 25.3006 84.4021 19.9474 84.4021C14.5943 84.4021 13.9704 84.3758 11.8464 84.2783C9.89993 84.1733 8.82605 83.8482 8.12221 83.5744C7.17209 83.1956 6.52076 82.7731 5.82317 82.0755C5.11933 81.3717 4.67177 80.7016 4.32673 79.7702C4.0467 79.0751 3.72666 78 3.62289 76.046C3.55164 73.9495 3.51788 73.2994 3.51788 67.9712C3.51788 62.6456 3.55164 61.9942 3.62289 59.8715C3.72666 57.9175 4.0467 56.8449 4.32673 56.1473C4.67177 55.1959 5.12058 54.5458 5.82317 53.842C6.51951 53.1456 7.17209 52.6956 8.12221 52.343C8.82605 52.0693 9.87368 51.7442 11.8277 51.6467C13.9492 51.5704 14.5743 51.5429 19.9199 51.5429L20.0024 51.6005ZM20.0024 57.735C18.654 57.7345 17.3186 57.9997 16.0726 58.5155C14.8267 59.0313 13.6946 59.7876 12.7411 60.7412C11.7876 61.6947 11.0313 62.8268 10.5155 64.0727C9.99966 65.3186 9.73442 66.654 9.73491 68.0025C9.73442 69.351 9.99966 70.6864 10.5155 71.9323C11.0313 73.1782 11.7876 74.3103 12.7411 75.2638C13.6946 76.2174 14.8267 76.9736 16.0726 77.4895C17.3186 78.0053 18.654 78.2705 20.0024 78.27C21.3509 78.2705 22.6863 78.0053 23.9322 77.4895C25.1782 76.9736 26.3103 76.2174 27.2638 75.2638C28.2173 74.3103 28.9736 73.1782 29.4894 71.9323C30.0052 70.6864 30.2705 69.351 30.27 68.0025C30.2705 66.654 30.0052 65.3186 29.4894 64.0727C28.9736 62.8268 28.2173 61.6947 27.2638 60.7412C26.3103 59.7876 25.1782 59.0313 23.9322 58.5155C22.6863 57.9997 21.3509 57.7345 20.0024 57.735ZM20.0024 74.6696C16.317 74.6696 13.3354 71.688 13.3354 68.0025C13.3354 64.317 16.317 61.3354 20.0024 61.3354C23.6879 61.3354 26.6695 64.317 26.6695 68.0025C26.6695 71.688 23.6879 74.6696 20.0024 74.6696ZM33.0841 57.3249C33.0834 57.9621 32.8298 58.5729 32.3791 59.0232C31.9283 59.4735 31.3172 59.7265 30.68 59.7265C30.365 59.7265 30.053 59.6644 29.7619 59.5438C29.4709 59.4233 29.2064 59.2466 28.9836 59.0238C28.7609 58.801 28.5842 58.5366 28.4636 58.2455C28.343 57.9544 28.281 57.6425 28.281 57.3274C28.281 57.0124 28.343 56.7004 28.4636 56.4093C28.5842 56.1183 28.7609 55.8538 28.9836 55.631C29.2064 55.4083 29.4709 55.2315 29.7619 55.111C30.053 54.9904 30.365 54.9284 30.68 54.9284C32.0014 54.9284 33.0841 56.0035 33.0841 57.3249Z" fill="black" fill-opacity="0.7"/>
</g>
<g clip-path="url(#clip1_376_830)">
<path d="M91.9067 48.0001C86.6185 48.0247 81.5554 50.1428 77.8248 53.8908C74.0943 57.6389 71.9999 62.7119 72 68.0001C72 73.3044 74.1071 78.3915 77.8579 82.1422C81.6086 85.8929 86.6957 88.0001 92 88.0001C97.3043 88.0001 102.391 85.8929 106.142 82.1422C109.893 78.3915 112 73.3044 112 68.0001C112 62.6957 109.893 57.6086 106.142 53.8579C102.391 50.1072 97.3043 48.0001 92 48.0001C91.9689 48 91.9378 48 91.9067 48.0001ZM100.177 60.0401C100.343 60.0367 100.712 60.0784 100.952 60.2734C101.111 60.4119 101.213 60.6052 101.237 60.8151C101.263 60.9701 101.297 61.3251 101.27 61.6017C100.97 64.7651 99.6667 72.4384 99.0033 75.9801C98.7233 77.4801 98.1717 77.9817 97.6367 78.0301C96.4767 78.1384 95.595 77.2634 94.47 76.5267C92.71 75.3717 91.715 74.6534 90.0067 73.5267C88.0317 72.2267 89.3117 71.5101 90.4367 70.3434C90.7317 70.0367 95.8483 65.3817 95.9483 64.9601C95.96 64.9067 95.9717 64.7101 95.855 64.6067C95.7383 64.5034 95.565 64.5384 95.44 64.5667C95.2633 64.6067 92.4517 66.4667 87.005 70.1417C86.205 70.6917 85.4833 70.9584 84.835 70.9417C84.1217 70.9284 82.7483 70.5401 81.7267 70.2084C80.4733 69.8001 79.4783 69.5851 79.565 68.8934C79.61 68.5334 80.1067 68.1651 81.0533 67.7884C86.8833 65.2484 90.77 63.5734 92.7167 62.7651C98.27 60.4551 99.425 60.0534 100.177 60.0401Z" fill="black" fill-opacity="0.7"/>
</g>
<g clip-path="url(#clip2_376_830)">
<path d="M151.304 48C147.258 48 144 51.2578 144 55.3038V80.6963C144 84.7422 147.258 88 151.304 88H165.066V72.3625H160.931V66.7325H165.066V61.9225C165.066 58.1435 167.509 54.6738 173.138 54.6738C175.416 54.6738 177.101 54.8925 177.101 54.8925L176.969 60.15C176.969 60.15 175.25 60.1338 173.375 60.1338C171.345 60.1338 171.02 61.0689 171.02 62.6213V66.7326H177.13L176.864 72.3626H171.02V88.0001H176.696C180.742 88.0001 184 84.7423 184 80.6963V55.3038C184 51.2578 180.742 48 176.696 48H151.304L151.304 48Z" fill="black" fill-opacity="0.7"/>
</g>
<path d="M12.384 6.64V18H11.28V12.688H4.544V18H3.424V6.64H4.544V11.696H11.28V6.64H12.384ZM14.2624 15.6C14.2624 15.0773 14.4117 14.6293 14.7104 14.256C15.009 13.872 15.4197 13.5787 15.9424 13.376C16.4757 13.1627 17.089 13.056 17.7824 13.056C18.1877 13.056 18.609 13.088 19.0464 13.152C19.4837 13.216 19.873 13.312 20.2144 13.44V12.736C20.2144 12.032 20.0064 11.472 19.5904 11.056C19.1744 10.64 18.5984 10.432 17.8624 10.432C17.4144 10.432 16.9717 10.5173 16.5344 10.688C16.1077 10.848 15.6597 11.088 15.1904 11.408L14.7744 10.64C15.3184 10.2667 15.8517 9.98933 16.3744 9.808C16.897 9.616 17.4304 9.52 17.9744 9.52C18.9984 9.52 19.809 9.81333 20.4064 10.4C21.0037 10.9867 21.3024 11.7973 21.3024 12.832V16.688C21.3024 16.8373 21.3344 16.9493 21.3984 17.024C21.4624 17.088 21.5637 17.1253 21.7024 17.136V18C21.585 18.0107 21.4837 18.0213 21.3984 18.032C21.313 18.0427 21.249 18.0427 21.2064 18.032C20.9397 18.0213 20.737 17.936 20.5984 17.776C20.4597 17.616 20.385 17.4453 20.3744 17.264L20.3584 16.656C19.985 17.136 19.4997 17.5093 18.9024 17.776C18.305 18.032 17.697 18.16 17.0784 18.16C16.545 18.16 16.0597 18.048 15.6224 17.824C15.1957 17.5893 14.8597 17.28 14.6144 16.896C14.3797 16.5013 14.2624 16.0693 14.2624 15.6ZM19.8464 16.24C19.9637 16.0907 20.0544 15.9467 20.1184 15.808C20.1824 15.6693 20.2144 15.5467 20.2144 15.44V14.224C19.8517 14.0853 19.473 13.9787 19.0784 13.904C18.6944 13.8293 18.305 13.792 17.9104 13.792C17.1317 13.792 16.5024 13.9467 16.0224 14.256C15.5424 14.5653 15.3024 14.9867 15.3024 15.52C15.3024 15.8293 15.3824 16.1227 15.5424 16.4C15.7024 16.6667 15.937 16.8907 16.2464 17.072C16.5557 17.2427 16.9184 17.328 17.3344 17.328C17.857 17.328 18.3424 17.2267 18.7904 17.024C19.249 16.8213 19.601 16.56 19.8464 16.24ZM23.6371 18V9.664H24.7251V17.04H28.2931V9.664H29.3971V17.04H32.9491V9.664H34.0371V18H23.6371ZM36.4028 18V9.68H37.4908V16.528L42.5628 9.664H43.5388V18H42.4508V11.264L37.4588 18H36.4028ZM53.6129 18.16C53.0049 18.16 52.4449 18.048 51.9329 17.824C51.4315 17.5893 50.9889 17.2693 50.6049 16.864C50.2315 16.4587 49.9382 15.9947 49.7249 15.472C49.5222 14.9493 49.4209 14.3947 49.4209 13.808C49.4209 13.0187 49.5969 12.2987 49.9489 11.648C50.3009 10.9973 50.7915 10.48 51.4209 10.096C52.0502 9.712 52.7755 9.52 53.5969 9.52C54.3755 9.52 55.0635 9.70133 55.6609 10.064C56.2582 10.416 56.7009 10.896 56.9889 11.504L55.9329 11.84C55.6982 11.4133 55.3675 11.0827 54.9409 10.848C54.5249 10.6027 54.0609 10.48 53.5489 10.48C52.9942 10.48 52.4875 10.624 52.0289 10.912C51.5702 11.2 51.2022 11.5947 50.9249 12.096C50.6582 12.5973 50.5249 13.168 50.5249 13.808C50.5249 14.4373 50.6635 15.008 50.9409 15.52C51.2182 16.032 51.5862 16.4427 52.0449 16.752C52.5035 17.0507 53.0102 17.2 53.5649 17.2C53.9275 17.2 54.2742 17.136 54.6049 17.008C54.9462 16.88 55.2395 16.7093 55.4849 16.496C55.7409 16.272 55.9115 16.032 55.9969 15.776L57.0689 16.096C56.9195 16.4907 56.6689 16.848 56.3169 17.168C55.9755 17.4773 55.5702 17.7227 55.1009 17.904C54.6422 18.0747 54.1462 18.16 53.6129 18.16ZM62.252 18.16C61.6547 18.16 61.1 18.048 60.588 17.824C60.0867 17.5893 59.6493 17.2747 59.276 16.88C58.9133 16.4747 58.6307 16.016 58.428 15.504C58.2253 14.9813 58.124 14.432 58.124 13.856C58.124 13.2587 58.2253 12.704 58.428 12.192C58.6307 11.6693 58.9187 11.2107 59.292 10.816C59.6653 10.4107 60.1027 10.096 60.604 9.872C61.116 9.63733 61.6707 9.52 62.268 9.52C62.8653 9.52 63.4147 9.63733 63.916 9.872C64.4173 10.096 64.8547 10.4107 65.228 10.816C65.6013 11.2107 65.8893 11.6693 66.092 12.192C66.2947 12.704 66.396 13.2587 66.396 13.856C66.396 14.432 66.2947 14.9813 66.092 15.504C65.8893 16.016 65.6013 16.4747 65.228 16.88C64.8653 17.2747 64.428 17.5893 63.916 17.824C63.4147 18.048 62.86 18.16 62.252 18.16ZM59.228 13.872C59.228 14.4907 59.3613 15.056 59.628 15.568C59.9053 16.0693 60.2733 16.4693 60.732 16.768C61.1907 17.056 61.6973 17.2 62.252 17.2C62.8067 17.2 63.3133 17.0507 63.772 16.752C64.2307 16.4533 64.5987 16.048 64.876 15.536C65.1533 15.0133 65.292 14.448 65.292 13.84C65.292 13.2213 65.1533 12.656 64.876 12.144C64.5987 11.632 64.2307 11.2267 63.772 10.928C63.3133 10.6293 62.8067 10.48 62.252 10.48C61.6973 10.48 61.1907 10.6347 60.732 10.944C60.284 11.2533 59.9213 11.664 59.644 12.176C59.3667 12.6773 59.228 13.2427 59.228 13.872ZM74.8556 19.936V18H68.1996V9.664H69.2876V17.04H73.6076V9.664H74.6956V17.04H75.8316V19.936H74.8556ZM77.4653 18V9.68H78.5533V16.528L83.6253 9.664H84.6013V18H83.5133V11.264L78.5213 18H77.4653ZM86.3092 15.6C86.3092 15.0773 86.4586 14.6293 86.7573 14.256C87.0559 13.872 87.4666 13.5787 87.9893 13.376C88.5226 13.1627 89.1359 13.056 89.8293 13.056C90.2346 13.056 90.6559 13.088 91.0933 13.152C91.5306 13.216 91.9199 13.312 92.2613 13.44V12.736C92.2613 12.032 92.0533 11.472 91.6373 11.056C91.2213 10.64 90.6453 10.432 89.9093 10.432C89.4613 10.432 89.0186 10.5173 88.5813 10.688C88.1546 10.848 87.7066 11.088 87.2373 11.408L86.8213 10.64C87.3653 10.2667 87.8986 9.98933 88.4213 9.808C88.9439 9.616 89.4773 9.52 90.0213 9.52C91.0453 9.52 91.8559 9.81333 92.4533 10.4C93.0506 10.9867 93.3493 11.7973 93.3493 12.832V16.688C93.3493 16.8373 93.3813 16.9493 93.4453 17.024C93.5093 17.088 93.6106 17.1253 93.7493 17.136V18C93.6319 18.0107 93.5306 18.0213 93.4453 18.032C93.3599 18.0427 93.2959 18.0427 93.2533 18.032C92.9866 18.0213 92.7839 17.936 92.6453 17.776C92.5066 17.616 92.4319 17.4453 92.4213 17.264L92.4053 16.656C92.0319 17.136 91.5466 17.5093 90.9493 17.776C90.3519 18.032 89.7439 18.16 89.1253 18.16C88.5919 18.16 88.1066 18.048 87.6693 17.824C87.2426 17.5893 86.9066 17.28 86.6613 16.896C86.4266 16.5013 86.3092 16.0693 86.3092 15.6ZM91.8933 16.24C92.0106 16.0907 92.1013 15.9467 92.1653 15.808C92.2293 15.6693 92.2613 15.5467 92.2613 15.44V14.224C91.8986 14.0853 91.5199 13.9787 91.1253 13.904C90.7413 13.8293 90.3519 13.792 89.9573 13.792C89.1786 13.792 88.5493 13.9467 88.0693 14.256C87.5893 14.5653 87.3493 14.9867 87.3493 15.52C87.3493 15.8293 87.4293 16.1227 87.5893 16.4C87.7493 16.6667 87.9839 16.8907 88.2933 17.072C88.6026 17.2427 88.9653 17.328 89.3813 17.328C89.9039 17.328 90.3893 17.2267 90.8373 17.024C91.2959 16.8213 91.6479 16.56 91.8933 16.24ZM94.9 18.048V17.056C95.188 17.056 95.444 16.9813 95.668 16.832C95.892 16.672 96.0893 16.4053 96.26 16.032C96.4413 15.6587 96.5853 15.1467 96.692 14.496C96.7987 13.8347 96.868 12.9973 96.9 11.984L96.996 9.664H102.404V18H101.316V10.64H97.956L97.924 12.08C97.8813 13.232 97.7907 14.1973 97.652 14.976C97.5133 15.744 97.316 16.352 97.06 16.8C96.8147 17.248 96.5107 17.568 96.148 17.76C95.7853 17.952 95.3693 18.048 94.9 18.048ZM104.793 18V9.664H105.881V12.608H108.041C108.991 12.608 109.705 12.8533 110.185 13.344C110.676 13.824 110.921 14.4587 110.921 15.248C110.921 15.76 110.815 16.224 110.601 16.64C110.388 17.056 110.073 17.3867 109.657 17.632C109.252 17.8773 108.74 18 108.121 18H104.793ZM105.881 17.136H107.977C108.415 17.136 108.767 17.0507 109.033 16.88C109.3 16.6987 109.497 16.4693 109.625 16.192C109.753 15.904 109.817 15.5947 109.817 15.264C109.817 14.944 109.759 14.6507 109.641 14.384C109.535 14.1067 109.343 13.888 109.065 13.728C108.799 13.5573 108.425 13.472 107.945 13.472H105.881V17.136ZM112.606 18V9.664H113.694V13.248H118.462V9.664H119.55V18H118.462V14.224H113.694V18H112.606ZM121.934 18V9.664H123.022V12.608H124.91C125.859 12.608 126.574 12.8533 127.054 13.344C127.545 13.824 127.79 14.4587 127.79 15.248C127.79 15.76 127.683 16.224 127.47 16.64C127.257 17.056 126.942 17.3867 126.526 17.632C126.121 17.8773 125.609 18 124.99 18H121.934ZM123.022 17.136H124.846C125.283 17.136 125.635 17.0507 125.902 16.88C126.169 16.6987 126.366 16.4693 126.494 16.192C126.622 15.904 126.686 15.5947 126.686 15.264C126.686 14.944 126.627 14.6507 126.51 14.384C126.403 14.1067 126.211 13.888 125.934 13.728C125.667 13.5573 125.294 13.472 124.814 13.472H123.022V17.136ZM129.31 18V9.68H130.398V18H129.31ZM136.394 18.16C135.796 18.16 135.242 18.048 134.73 17.824C134.218 17.5893 133.775 17.2747 133.402 16.88C133.028 16.4747 132.735 16.0107 132.522 15.488C132.319 14.9653 132.218 14.4053 132.218 13.808C132.218 13.0293 132.394 12.3147 132.746 11.664C133.108 11.0133 133.604 10.496 134.234 10.112C134.863 9.71733 135.578 9.52 136.378 9.52C137.199 9.52 137.914 9.71733 138.522 10.112C139.14 10.5067 139.626 11.0293 139.978 11.68C140.33 12.32 140.506 13.024 140.506 13.792C140.506 13.8773 140.506 13.9627 140.506 14.048C140.506 14.1227 140.5 14.1813 140.49 14.224H133.354C133.407 14.8213 133.572 15.3547 133.85 15.824C134.138 16.2827 134.506 16.6507 134.954 16.928C135.412 17.1947 135.908 17.328 136.442 17.328C136.986 17.328 137.498 17.1893 137.978 16.912C138.468 16.6347 138.81 16.272 139.002 15.824L139.946 16.08C139.775 16.4747 139.514 16.832 139.162 17.152C138.81 17.472 138.394 17.7227 137.914 17.904C137.444 18.0747 136.938 18.16 136.394 18.16ZM133.322 13.44H139.482C139.439 12.832 139.274 12.2987 138.986 11.84C138.708 11.3813 138.34 11.024 137.882 10.768C137.434 10.5013 136.938 10.368 136.394 10.368C135.85 10.368 135.354 10.5013 134.906 10.768C134.458 11.024 134.09 11.3867 133.802 11.856C133.524 12.3147 133.364 12.8427 133.322 13.44ZM149.879 18.16C149.271 18.16 148.711 18.048 148.199 17.824C147.697 17.5893 147.255 17.2693 146.871 16.864C146.497 16.4587 146.204 15.9947 145.991 15.472C145.788 14.9493 145.687 14.3947 145.687 13.808C145.687 13.0187 145.863 12.2987 146.215 11.648C146.567 10.9973 147.057 10.48 147.687 10.096C148.316 9.712 149.041 9.52 149.863 9.52C150.641 9.52 151.329 9.70133 151.927 10.064C152.524 10.416 152.967 10.896 153.255 11.504L152.199 11.84C151.964 11.4133 151.633 11.0827 151.207 10.848C150.791 10.6027 150.327 10.48 149.815 10.48C149.26 10.48 148.753 10.624 148.295 10.912C147.836 11.2 147.468 11.5947 147.191 12.096C146.924 12.5973 146.791 13.168 146.791 13.808C146.791 14.4373 146.929 15.008 147.207 15.52C147.484 16.032 147.852 16.4427 148.311 16.752C148.769 17.0507 149.276 17.2 149.831 17.2C150.193 17.2 150.54 17.136 150.871 17.008C151.212 16.88 151.505 16.7093 151.751 16.496C152.007 16.272 152.177 16.032 152.263 15.776L153.335 16.096C153.185 16.4907 152.935 16.848 152.583 17.168C152.241 17.4773 151.836 17.7227 151.367 17.904C150.908 18.0747 150.412 18.16 149.879 18.16ZM158.566 18.16C157.968 18.16 157.414 18.048 156.902 17.824C156.39 17.5893 155.947 17.2747 155.574 16.88C155.2 16.4747 154.907 16.0107 154.694 15.488C154.491 14.9653 154.39 14.4053 154.39 13.808C154.39 13.0293 154.566 12.3147 154.918 11.664C155.28 11.0133 155.776 10.496 156.406 10.112C157.035 9.71733 157.75 9.52 158.55 9.52C159.371 9.52 160.086 9.71733 160.694 10.112C161.312 10.5067 161.798 11.0293 162.15 11.68C162.502 12.32 162.678 13.024 162.678 13.792C162.678 13.8773 162.678 13.9627 162.678 14.048C162.678 14.1227 162.672 14.1813 162.662 14.224H155.526C155.579 14.8213 155.744 15.3547 156.022 15.824C156.31 16.2827 156.678 16.6507 157.126 16.928C157.584 17.1947 158.08 17.328 158.614 17.328C159.158 17.328 159.67 17.1893 160.15 16.912C160.64 16.6347 160.982 16.272 161.174 15.824L162.118 16.08C161.947 16.4747 161.686 16.832 161.334 17.152C160.982 17.472 160.566 17.7227 160.086 17.904C159.616 18.0747 159.11 18.16 158.566 18.16ZM155.494 13.44H161.654C161.611 12.832 161.446 12.2987 161.158 11.84C160.88 11.3813 160.512 11.024 160.054 10.768C159.606 10.5013 159.11 10.368 158.566 10.368C158.022 10.368 157.526 10.5013 157.078 10.768C156.63 11.024 156.262 11.3867 155.974 11.856C155.696 12.3147 155.536 12.8427 155.494 13.44ZM166.436 18V10.64H163.46V9.664H170.5V10.64H167.524V18H166.436ZM171.965 18V9.68H173.053V16.528L178.125 9.664H179.101V18H178.013V11.264L173.021 18H171.965Z" fill="black" fill-opacity="0.7"/>
<defs>
<clipPath id="clip0_376_830">
<rect width="40" height="40" fill="white" transform="translate(0 48)"/>
</clipPath>
<clipPath id="clip1_376_830">
<rect width="40" height="40" fill="white" transform="translate(72 48)"/>
</clipPath>
<clipPath id="clip2_376_830">
<rect width="40" height="40" fill="white" transform="translate(144 48)"/>
</clipPath>
</defs>
</svg>
