<svg width="1371" height="561" viewBox="0 0 1371 561" fill="none" xmlns="http://www.w3.org/2000/svg">
<rect x="71" width="1297" height="486" rx="15" fill="url(#paint0_linear_343_832)"/>
<path d="M231.5 451.5C231.5 511.672 179.816 560.5 116 560.5C52.1836 560.5 0.5 511.672 0.5 451.5C0.5 391.328 52.1836 342.5 116 342.5C179.816 342.5 231.5 391.328 231.5 451.5Z" fill="url(#paint1_radial_343_832)" stroke="url(#paint2_radial_343_832)"/>
<g filter="url(#filter0_bd_343_832)">
<rect x="73" y="1" width="1294" height="488" rx="15" fill="url(#paint3_linear_343_832)" fill-opacity="0.7" shape-rendering="crispEdges"/>
<rect x="74" y="2" width="1292" height="486" rx="14" stroke="url(#paint4_radial_343_832)" stroke-width="2" shape-rendering="crispEdges"/>
<rect x="74" y="2" width="1292" height="486" rx="14" stroke="url(#paint5_radial_343_832)" stroke-width="2" shape-rendering="crispEdges"/>
</g>
<path d="M305.031 156.953V169.516H312.016C313.828 169.516 315.039 169.242 315.648 168.695C316.461 167.977 316.914 166.711 317.008 164.898H317.875V175.961H317.008C316.789 174.414 316.57 173.422 316.352 172.984C316.07 172.438 315.609 172.008 314.969 171.695C314.328 171.383 313.344 171.227 312.016 171.227H305.031V181.703C305.031 183.109 305.094 183.969 305.219 184.281C305.344 184.578 305.562 184.82 305.875 185.008C306.188 185.18 306.781 185.266 307.656 185.266H313.047C314.844 185.266 316.148 185.141 316.961 184.891C317.773 184.641 318.555 184.148 319.305 183.414C320.273 182.445 321.266 180.984 322.281 179.031H323.219L320.477 187H295.984V186.133H297.109C297.859 186.133 298.57 185.953 299.242 185.594C299.742 185.344 300.078 184.969 300.25 184.469C300.438 183.969 300.531 182.945 300.531 181.398V160.75C300.531 158.734 300.328 157.492 299.922 157.023C299.359 156.398 298.422 156.086 297.109 156.086H295.984V155.219H320.477L320.828 162.18H319.914C319.586 160.508 319.219 159.359 318.812 158.734C318.422 158.109 317.836 157.633 317.055 157.305C316.43 157.07 315.328 156.953 313.75 156.953H305.031ZM344.078 178.844C343.5 181.672 342.367 183.852 340.68 185.383C338.992 186.898 337.125 187.656 335.078 187.656C332.641 187.656 330.516 186.633 328.703 184.586C326.891 182.539 325.984 179.773 325.984 176.289C325.984 172.914 326.984 170.172 328.984 168.062C331 165.953 333.414 164.898 336.227 164.898C338.336 164.898 340.07 165.461 341.43 166.586C342.789 167.695 343.469 168.852 343.469 170.055C343.469 170.648 343.273 171.133 342.883 171.508C342.508 171.867 341.977 172.047 341.289 172.047C340.367 172.047 339.672 171.75 339.203 171.156C338.938 170.828 338.758 170.203 338.664 169.281C338.586 168.359 338.273 167.656 337.727 167.172C337.18 166.703 336.422 166.469 335.453 166.469C333.891 166.469 332.633 167.047 331.68 168.203C330.414 169.734 329.781 171.758 329.781 174.273C329.781 176.836 330.406 179.102 331.656 181.07C332.922 183.023 334.625 184 336.766 184C338.297 184 339.672 183.477 340.891 182.43C341.75 181.711 342.586 180.406 343.398 178.516L344.078 178.844ZM346.844 165.531H365.406L366.344 171.344H365.289C365.102 170.172 364.789 169.266 364.352 168.625C363.914 167.984 363.414 167.562 362.852 167.359C362.289 167.156 361.328 167.055 359.969 167.055H358.094V181.961C358.094 183.555 358.188 184.57 358.375 185.008C358.578 185.43 358.898 185.711 359.336 185.852C359.773 185.992 360.773 186.086 362.336 186.133V187H350.664V186.133C352.164 186.102 353.125 185.859 353.547 185.406C353.984 184.953 354.203 183.805 354.203 181.961V167.055H352.281C350.938 167.055 350.023 167.141 349.539 167.312C349.055 167.469 348.586 167.859 348.133 168.484C347.695 169.094 347.32 170.047 347.008 171.344H345.953L346.844 165.531ZM374.875 175.094L377.547 175.047C383.922 175.047 387.109 177.016 387.109 180.953C387.109 182.781 386.328 184.25 384.766 185.359C383.219 186.453 380.984 187 378.062 187H367.75V186.133C369.141 186.133 370.031 185.883 370.422 185.383C370.812 184.867 371.008 183.727 371.008 181.961V170.57C371.008 168.898 370.922 167.914 370.75 167.617C370.578 167.305 370.312 167.031 369.953 166.797C369.594 166.547 368.859 166.422 367.75 166.422V165.531H378.977V166.422C377.43 166.422 376.477 166.516 376.117 166.703C375.758 166.875 375.461 167.109 375.227 167.406C374.992 167.688 374.875 168.742 374.875 170.57V175.094ZM374.875 185.148C375.703 185.367 376.531 185.477 377.359 185.477C378.922 185.477 380.188 185.062 381.156 184.234C382.141 183.406 382.633 182.359 382.633 181.094C382.633 178.094 380.547 176.594 376.375 176.594C376.016 176.594 375.516 176.602 374.875 176.617V185.148ZM415.68 175.656C419.602 176.469 421.562 178.305 421.562 181.164C421.562 183.117 420.742 184.578 419.102 185.547C417.477 186.516 415.203 187 412.281 187H401.688V186.133C403.078 186.133 403.953 185.875 404.312 185.359C404.688 184.828 404.875 183.695 404.875 181.961V170.57C404.875 168.883 404.789 167.891 404.617 167.594C404.461 167.297 404.203 167.031 403.844 166.797C403.5 166.547 402.781 166.422 401.688 166.422V165.531H411.578C413.484 165.531 415.023 165.68 416.195 165.977C417.383 166.273 418.352 166.859 419.102 167.734C419.867 168.609 420.25 169.672 420.25 170.922C420.25 173.359 418.727 174.938 415.68 175.656ZM408.766 175.117C409.453 175.133 409.867 175.141 410.008 175.141C412.148 175.141 413.695 174.734 414.648 173.922C415.602 173.094 416.078 172.094 416.078 170.922C416.078 169.562 415.594 168.578 414.625 167.969C413.656 167.359 412.109 167.055 409.984 167.055H408.766V175.117ZM408.766 185.102C409.547 185.352 410.477 185.477 411.555 185.477C413.414 185.477 414.797 185.07 415.703 184.258C416.609 183.445 417.062 182.398 417.062 181.117C417.062 179.68 416.477 178.578 415.305 177.812C414.133 177.047 412.508 176.664 410.43 176.664C409.914 176.664 409.359 176.68 408.766 176.711V185.102ZM434.922 164.898C438.172 164.898 440.781 166.133 442.75 168.602C444.422 170.711 445.258 173.133 445.258 175.867C445.258 177.789 444.797 179.734 443.875 181.703C442.953 183.672 441.68 185.156 440.055 186.156C438.445 187.156 436.648 187.656 434.664 187.656C431.43 187.656 428.859 186.367 426.953 183.789C425.344 181.617 424.539 179.18 424.539 176.477C424.539 174.508 425.023 172.555 425.992 170.617C426.977 168.664 428.266 167.227 429.859 166.305C431.453 165.367 433.141 164.898 434.922 164.898ZM434.195 166.422C433.367 166.422 432.531 166.672 431.688 167.172C430.859 167.656 430.188 168.516 429.672 169.75C429.156 170.984 428.898 172.57 428.898 174.508C428.898 177.633 429.516 180.328 430.75 182.594C432 184.859 433.641 185.992 435.672 185.992C437.188 185.992 438.438 185.367 439.422 184.117C440.406 182.867 440.898 180.719 440.898 177.672C440.898 173.859 440.078 170.859 438.438 168.672C437.328 167.172 435.914 166.422 434.195 166.422ZM464.406 167.055H455.125V181.961C455.125 183.617 455.211 184.609 455.383 184.938C455.555 185.25 455.82 185.531 456.18 185.781C456.555 186.016 457.289 186.133 458.383 186.133V187H448V186.133C449.391 186.133 450.281 185.883 450.672 185.383C451.062 184.867 451.258 183.727 451.258 181.961V170.57C451.258 168.898 451.172 167.914 451 167.617C450.828 167.305 450.562 167.031 450.203 166.797C449.844 166.547 449.109 166.422 448 166.422V165.531H471.531V166.422C470.484 166.422 469.781 166.531 469.422 166.75C469.062 166.953 468.781 167.211 468.578 167.523C468.375 167.836 468.273 168.852 468.273 170.57V181.961C468.273 183.617 468.359 184.609 468.531 184.938C468.703 185.25 468.969 185.531 469.328 185.781C469.703 186.016 470.438 186.133 471.531 186.133V187H461.148V186.133C462.445 186.133 463.312 185.898 463.75 185.43C464.188 184.945 464.406 183.789 464.406 181.961V167.055ZM472.562 167.664L479.172 164.992H480.062V170.008C481.172 168.117 482.281 166.797 483.391 166.047C484.516 165.281 485.695 164.898 486.93 164.898C489.086 164.898 490.883 165.742 492.32 167.43C494.086 169.492 494.969 172.18 494.969 175.492C494.969 179.195 493.906 182.258 491.781 184.68C490.031 186.664 487.828 187.656 485.172 187.656C484.016 187.656 483.016 187.492 482.172 187.164C481.547 186.93 480.844 186.461 480.062 185.758V192.297C480.062 193.766 480.148 194.695 480.32 195.086C480.508 195.492 480.82 195.812 481.258 196.047C481.711 196.281 482.523 196.398 483.695 196.398V197.266H472.445V196.398H473.031C473.891 196.414 474.625 196.25 475.234 195.906C475.531 195.734 475.758 195.453 475.914 195.062C476.086 194.688 476.172 193.719 476.172 192.156V171.859C476.172 170.469 476.109 169.586 475.984 169.211C475.859 168.836 475.656 168.555 475.375 168.367C475.109 168.18 474.742 168.086 474.273 168.086C473.898 168.086 473.422 168.195 472.844 168.414L472.562 167.664ZM480.062 171.391V179.406C480.062 181.141 480.133 182.281 480.273 182.828C480.492 183.734 481.023 184.531 481.867 185.219C482.727 185.906 483.805 186.25 485.102 186.25C486.664 186.25 487.93 185.641 488.898 184.422C490.164 182.828 490.797 180.586 490.797 177.695C490.797 174.414 490.078 171.891 488.641 170.125C487.641 168.906 486.453 168.297 485.078 168.297C484.328 168.297 483.586 168.484 482.852 168.859C482.289 169.141 481.359 169.984 480.062 171.391ZM508.609 164.898C511.859 164.898 514.469 166.133 516.438 168.602C518.109 170.711 518.945 173.133 518.945 175.867C518.945 177.789 518.484 179.734 517.562 181.703C516.641 183.672 515.367 185.156 513.742 186.156C512.133 187.156 510.336 187.656 508.352 187.656C505.117 187.656 502.547 186.367 500.641 183.789C499.031 181.617 498.227 179.18 498.227 176.477C498.227 174.508 498.711 172.555 499.68 170.617C500.664 168.664 501.953 167.227 503.547 166.305C505.141 165.367 506.828 164.898 508.609 164.898ZM507.883 166.422C507.055 166.422 506.219 166.672 505.375 167.172C504.547 167.656 503.875 168.516 503.359 169.75C502.844 170.984 502.586 172.57 502.586 174.508C502.586 177.633 503.203 180.328 504.438 182.594C505.688 184.859 507.328 185.992 509.359 185.992C510.875 185.992 512.125 185.367 513.109 184.117C514.094 182.867 514.586 180.719 514.586 177.672C514.586 173.859 513.766 170.859 512.125 168.672C511.016 167.172 509.602 166.422 507.883 166.422ZM541.562 178.844C540.984 181.672 539.852 183.852 538.164 185.383C536.477 186.898 534.609 187.656 532.562 187.656C530.125 187.656 528 186.633 526.188 184.586C524.375 182.539 523.469 179.773 523.469 176.289C523.469 172.914 524.469 170.172 526.469 168.062C528.484 165.953 530.898 164.898 533.711 164.898C535.82 164.898 537.555 165.461 538.914 166.586C540.273 167.695 540.953 168.852 540.953 170.055C540.953 170.648 540.758 171.133 540.367 171.508C539.992 171.867 539.461 172.047 538.773 172.047C537.852 172.047 537.156 171.75 536.688 171.156C536.422 170.828 536.242 170.203 536.148 169.281C536.07 168.359 535.758 167.656 535.211 167.172C534.664 166.703 533.906 166.469 532.938 166.469C531.375 166.469 530.117 167.047 529.164 168.203C527.898 169.734 527.266 171.758 527.266 174.273C527.266 176.836 527.891 179.102 529.141 181.07C530.406 183.023 532.109 184 534.25 184C535.781 184 537.156 183.477 538.375 182.43C539.234 181.711 540.07 180.406 540.883 178.516L541.562 178.844ZM563.523 166.422V165.531H574.328V166.422C573.375 166.422 572.68 166.523 572.242 166.727C571.805 166.93 571.5 167.242 571.328 167.664C571.172 168.086 571.094 169.055 571.094 170.57V181.961C571.094 183.43 571.164 184.383 571.305 184.82C571.445 185.242 571.742 185.57 572.195 185.805C572.664 186.023 573.375 186.133 574.328 186.133V187H563.523V186.133C564.742 186.086 565.531 186.008 565.891 185.898C566.266 185.773 566.578 185.469 566.828 184.984C567.078 184.5 567.203 183.492 567.203 181.961V170.57C567.203 169.055 567.117 168.078 566.945 167.641C566.773 167.203 566.469 166.898 566.031 166.727C565.609 166.539 564.773 166.438 563.523 166.422ZM551.336 175.094L554.008 175.047C560.383 175.047 563.57 177.016 563.57 180.953C563.57 182.781 562.789 184.25 561.227 185.359C559.68 186.453 557.445 187 554.523 187H544.211V186.133C545.602 186.133 546.492 185.883 546.883 185.383C547.273 184.867 547.469 183.727 547.469 181.961V170.57C547.469 168.898 547.383 167.914 547.211 167.617C547.039 167.305 546.773 167.031 546.414 166.797C546.055 166.547 545.32 166.422 544.211 166.422V165.531H555.438V166.422C553.891 166.422 552.938 166.516 552.578 166.703C552.219 166.875 551.922 167.109 551.688 167.406C551.453 167.688 551.336 168.742 551.336 170.57V175.094ZM551.336 185.148C552.164 185.367 552.992 185.477 553.82 185.477C555.383 185.477 556.648 185.062 557.617 184.234C558.602 183.406 559.094 182.359 559.094 181.094C559.094 178.094 557.008 176.594 552.836 176.594C552.477 176.594 551.977 176.602 551.336 176.617V185.148ZM586.047 179.5H585.086C585.195 177.531 585.438 175.906 585.812 174.625C586.203 173.328 587 171.531 588.203 169.234C589.141 167.469 589.75 166.117 590.031 165.18C590.312 164.227 590.453 163.266 590.453 162.297C590.453 160.312 589.922 158.734 588.859 157.562C587.812 156.391 586.523 155.805 584.992 155.805C583.633 155.805 582.562 156.125 581.781 156.766C581 157.406 580.609 158.102 580.609 158.852C580.609 159.43 580.844 160.141 581.312 160.984C581.781 161.828 582.016 162.469 582.016 162.906C582.016 163.469 581.836 163.945 581.477 164.336C581.117 164.711 580.68 164.898 580.164 164.898C579.508 164.898 578.906 164.578 578.359 163.938C577.828 163.281 577.562 162.375 577.562 161.219C577.562 159.453 578.32 157.891 579.836 156.531C581.352 155.172 583.406 154.492 586 154.492C589.219 154.492 591.586 155.43 593.102 157.305C594.227 158.68 594.789 160.203 594.789 161.875C594.789 163.016 594.531 164.188 594.016 165.391C593.516 166.594 592.555 168.008 591.133 169.633C588.867 172.195 587.477 174.016 586.961 175.094C586.461 176.156 586.156 177.625 586.047 179.5ZM585.719 182.406C586.453 182.406 587.07 182.664 587.57 183.18C588.086 183.68 588.344 184.297 588.344 185.031C588.344 185.75 588.086 186.367 587.57 186.883C587.055 187.383 586.438 187.633 585.719 187.633C585 187.633 584.383 187.383 583.867 186.883C583.367 186.367 583.117 185.75 583.117 185.031C583.117 184.297 583.367 183.68 583.867 183.18C584.383 182.664 585 182.406 585.719 182.406Z" fill="black" fill-opacity="0.7"/>
<path d="M200.555 231.492C204.68 231.492 208.25 233.062 211.266 236.203C214.297 239.328 215.812 243.234 215.812 247.922C215.812 252.75 214.289 256.758 211.242 259.945C208.195 263.133 204.508 264.727 200.18 264.727C195.805 264.727 192.125 263.172 189.141 260.062C186.172 256.953 184.688 252.93 184.688 247.992C184.688 242.945 186.406 238.828 189.844 235.641C192.828 232.875 196.398 231.492 200.555 231.492ZM200.109 233.203C197.266 233.203 194.984 234.258 193.266 236.367C191.125 238.992 190.055 242.836 190.055 247.898C190.055 253.086 191.164 257.078 193.383 259.875C195.086 262 197.336 263.062 200.133 263.062C203.117 263.062 205.578 261.898 207.516 259.57C209.469 257.242 210.445 253.57 210.445 248.555C210.445 243.117 209.375 239.062 207.234 236.391C205.516 234.266 203.141 233.203 200.109 233.203ZM218.859 242.531H237.422L238.359 248.344H237.305C237.117 247.172 236.805 246.266 236.367 245.625C235.93 244.984 235.43 244.562 234.867 244.359C234.305 244.156 233.344 244.055 231.984 244.055H230.109V258.961C230.109 260.555 230.203 261.57 230.391 262.008C230.594 262.43 230.914 262.711 231.352 262.852C231.789 262.992 232.789 263.086 234.352 263.133V264H222.68V263.133C224.18 263.102 225.141 262.859 225.562 262.406C226 261.953 226.219 260.805 226.219 258.961V244.055H224.297C222.953 244.055 222.039 244.141 221.555 244.312C221.07 244.469 220.602 244.859 220.148 245.484C219.711 246.094 219.336 247.047 219.023 248.344H217.969L218.859 242.531ZM253.805 252.656C257.727 253.469 259.688 255.305 259.688 258.164C259.688 260.117 258.867 261.578 257.227 262.547C255.602 263.516 253.328 264 250.406 264H239.812V263.133C241.203 263.133 242.078 262.875 242.438 262.359C242.812 261.828 243 260.695 243 258.961V247.57C243 245.883 242.914 244.891 242.742 244.594C242.586 244.297 242.328 244.031 241.969 243.797C241.625 243.547 240.906 243.422 239.812 243.422V242.531H249.703C251.609 242.531 253.148 242.68 254.32 242.977C255.508 243.273 256.477 243.859 257.227 244.734C257.992 245.609 258.375 246.672 258.375 247.922C258.375 250.359 256.852 251.938 253.805 252.656ZM246.891 252.117C247.578 252.133 247.992 252.141 248.133 252.141C250.273 252.141 251.82 251.734 252.773 250.922C253.727 250.094 254.203 249.094 254.203 247.922C254.203 246.562 253.719 245.578 252.75 244.969C251.781 244.359 250.234 244.055 248.109 244.055H246.891V252.117ZM246.891 262.102C247.672 262.352 248.602 262.477 249.68 262.477C251.539 262.477 252.922 262.07 253.828 261.258C254.734 260.445 255.188 259.398 255.188 258.117C255.188 256.68 254.602 255.578 253.43 254.812C252.258 254.047 250.633 253.664 248.555 253.664C248.039 253.664 247.484 253.68 246.891 253.711V262.102ZM266.203 250.617C266.188 253.805 266.961 256.305 268.523 258.117C270.086 259.93 271.922 260.836 274.031 260.836C275.438 260.836 276.656 260.453 277.688 259.688C278.734 258.906 279.609 257.578 280.312 255.703L281.039 256.172C280.711 258.312 279.758 260.266 278.18 262.031C276.602 263.781 274.625 264.656 272.25 264.656C269.672 264.656 267.461 263.656 265.617 261.656C263.789 259.641 262.875 256.938 262.875 253.547C262.875 249.875 263.812 247.016 265.688 244.969C267.578 242.906 269.945 241.875 272.789 241.875C275.195 241.875 277.172 242.672 278.719 244.266C280.266 245.844 281.039 247.961 281.039 250.617H266.203ZM266.203 249.258H276.141C276.062 247.883 275.898 246.914 275.648 246.352C275.258 245.477 274.672 244.789 273.891 244.289C273.125 243.789 272.32 243.539 271.477 243.539C270.18 243.539 269.016 244.047 267.984 245.062C266.969 246.062 266.375 247.461 266.203 249.258ZM283.594 242.531H302.156L303.094 248.344H302.039C301.852 247.172 301.539 246.266 301.102 245.625C300.664 244.984 300.164 244.562 299.602 244.359C299.039 244.156 298.078 244.055 296.719 244.055H294.844V258.961C294.844 260.555 294.938 261.57 295.125 262.008C295.328 262.43 295.648 262.711 296.086 262.852C296.523 262.992 297.523 263.086 299.086 263.133V264H287.414V263.133C288.914 263.102 289.875 262.859 290.297 262.406C290.734 261.953 290.953 260.805 290.953 258.961V244.055H289.031C287.688 244.055 286.773 244.141 286.289 244.312C285.805 244.469 285.336 244.859 284.883 245.484C284.445 246.094 284.07 247.047 283.758 248.344H282.703L283.594 242.531ZM311.625 257.391L320.906 246.656C320.875 245.453 320.648 244.617 320.227 244.148C319.805 243.68 319.078 243.438 318.047 243.422V242.531H328.031V243.422C326.984 243.422 326.281 243.531 325.922 243.75C325.562 243.953 325.281 244.211 325.078 244.523C324.875 244.836 324.773 245.852 324.773 247.57V258.961C324.773 260.617 324.859 261.609 325.031 261.938C325.203 262.25 325.469 262.531 325.828 262.781C326.203 263.016 326.938 263.133 328.031 263.133V264H317.648V263.133C318.945 263.133 319.812 262.898 320.25 262.43C320.688 261.945 320.906 260.789 320.906 258.961V248.859L311.625 259.617C311.656 260.945 311.844 261.859 312.188 262.359C312.531 262.859 313.273 263.117 314.414 263.133V264H304.5V263.133C305.891 263.133 306.781 262.883 307.172 262.383C307.562 261.867 307.758 260.727 307.758 258.961V247.57C307.758 245.898 307.672 244.914 307.5 244.617C307.328 244.305 307.062 244.031 306.703 243.797C306.344 243.547 305.609 243.422 304.5 243.422V242.531H314.883V243.422C313.836 243.422 313.133 243.531 312.773 243.75C312.414 243.953 312.133 244.211 311.93 244.523C311.727 244.836 311.625 245.852 311.625 247.57V257.391ZM344.484 258.398L351.188 242.531H358.43V243.422C357.367 243.422 356.656 243.531 356.297 243.75C355.953 243.953 355.68 244.211 355.477 244.523C355.273 244.836 355.172 245.852 355.172 247.57V258.961C355.172 260.445 355.242 261.406 355.383 261.844C355.539 262.266 355.844 262.586 356.297 262.805C356.766 263.023 357.477 263.133 358.43 263.133V264H348.047V263.133C349.328 263.133 350.188 262.898 350.625 262.43C351.062 261.945 351.281 260.789 351.281 258.961V246.047L343.688 264H342.867L335.133 246.047V258.961C335.133 260.445 335.211 261.406 335.367 261.844C335.523 262.266 335.828 262.586 336.281 262.805C336.734 263.023 337.438 263.133 338.391 263.133V264H330.188V263.133C331.578 263.133 332.469 262.883 332.859 262.383C333.25 261.867 333.445 260.727 333.445 258.961V247.57C333.445 245.898 333.359 244.914 333.188 244.617C333.016 244.305 332.75 244.031 332.391 243.797C332.031 243.547 331.297 243.422 330.188 243.422V242.531H337.734L344.484 258.398ZM391.219 255.844C390.641 258.672 389.508 260.852 387.82 262.383C386.133 263.898 384.266 264.656 382.219 264.656C379.781 264.656 377.656 263.633 375.844 261.586C374.031 259.539 373.125 256.773 373.125 253.289C373.125 249.914 374.125 247.172 376.125 245.062C378.141 242.953 380.555 241.898 383.367 241.898C385.477 241.898 387.211 242.461 388.57 243.586C389.93 244.695 390.609 245.852 390.609 247.055C390.609 247.648 390.414 248.133 390.023 248.508C389.648 248.867 389.117 249.047 388.43 249.047C387.508 249.047 386.812 248.75 386.344 248.156C386.078 247.828 385.898 247.203 385.805 246.281C385.727 245.359 385.414 244.656 384.867 244.172C384.32 243.703 383.562 243.469 382.594 243.469C381.031 243.469 379.773 244.047 378.82 245.203C377.555 246.734 376.922 248.758 376.922 251.273C376.922 253.836 377.547 256.102 378.797 258.07C380.062 260.023 381.766 261 383.906 261C385.438 261 386.812 260.477 388.031 259.43C388.891 258.711 389.727 257.406 390.539 255.516L391.219 255.844ZM405.094 242.531H415.102V243.398H414.609C413.906 243.398 413.375 243.555 413.016 243.867C412.672 244.164 412.5 244.539 412.5 244.992C412.5 245.602 412.758 246.445 413.273 247.523L418.5 258.352L423.305 246.492C423.57 245.852 423.703 245.219 423.703 244.594C423.703 244.312 423.648 244.102 423.539 243.961C423.414 243.789 423.219 243.656 422.953 243.562C422.688 243.453 422.219 243.398 421.547 243.398V242.531H428.531V243.398C427.953 243.461 427.508 243.586 427.195 243.773C426.883 243.961 426.539 244.312 426.164 244.828C426.023 245.047 425.758 245.648 425.367 246.633L416.625 268.055C415.781 270.133 414.672 271.703 413.297 272.766C411.938 273.828 410.625 274.359 409.359 274.359C408.438 274.359 407.68 274.094 407.086 273.562C406.492 273.031 406.195 272.422 406.195 271.734C406.195 271.078 406.406 270.547 406.828 270.141C407.266 269.75 407.859 269.555 408.609 269.555C409.125 269.555 409.828 269.727 410.719 270.07C411.344 270.305 411.734 270.422 411.891 270.422C412.359 270.422 412.867 270.18 413.414 269.695C413.977 269.211 414.539 268.273 415.102 266.883L416.625 263.156L408.914 246.961C408.68 246.477 408.305 245.875 407.789 245.156C407.398 244.609 407.078 244.242 406.828 244.055C406.469 243.805 405.891 243.586 405.094 243.398V242.531ZM430.195 242.531H449.133V243.422C448.07 243.422 447.359 243.531 447 243.75C446.656 243.953 446.383 244.211 446.18 244.523C445.977 244.836 445.875 245.852 445.875 247.57V258.188C445.875 260.422 446.062 261.797 446.438 262.312C446.828 262.812 447.727 263.086 449.133 263.133V269.953H448.242C448.18 268.672 447.859 267.555 447.281 266.602C446.719 265.648 445.93 264.977 444.914 264.586C443.898 264.195 442.398 264 440.414 264H434.883C433.164 264 431.82 264.148 430.852 264.445C429.883 264.758 429.07 265.398 428.414 266.367C427.773 267.336 427.383 268.531 427.242 269.953H426.375V263.133C427.656 263.086 428.82 262.578 429.867 261.609C430.914 260.641 431.836 258.742 432.633 255.914C433.43 253.086 433.828 250.305 433.828 247.57C433.828 244.883 432.617 243.5 430.195 243.422V242.531ZM435.375 244.055V245.344C435.375 253.016 433.984 258.727 431.203 262.477H439.172C440.609 262.477 441.438 262.359 441.656 262.125C441.875 261.875 441.984 260.977 441.984 259.43V244.055H435.375ZM462.188 241.898C465.438 241.898 468.047 243.133 470.016 245.602C471.688 247.711 472.523 250.133 472.523 252.867C472.523 254.789 472.062 256.734 471.141 258.703C470.219 260.672 468.945 262.156 467.32 263.156C465.711 264.156 463.914 264.656 461.93 264.656C458.695 264.656 456.125 263.367 454.219 260.789C452.609 258.617 451.805 256.18 451.805 253.477C451.805 251.508 452.289 249.555 453.258 247.617C454.242 245.664 455.531 244.227 457.125 243.305C458.719 242.367 460.406 241.898 462.188 241.898ZM461.461 243.422C460.633 243.422 459.797 243.672 458.953 244.172C458.125 244.656 457.453 245.516 456.938 246.75C456.422 247.984 456.164 249.57 456.164 251.508C456.164 254.633 456.781 257.328 458.016 259.594C459.266 261.859 460.906 262.992 462.938 262.992C464.453 262.992 465.703 262.367 466.688 261.117C467.672 259.867 468.164 257.719 468.164 254.672C468.164 250.859 467.344 247.859 465.703 245.672C464.594 244.172 463.18 243.422 461.461 243.422ZM489.305 252.656C493.227 253.469 495.188 255.305 495.188 258.164C495.188 260.117 494.367 261.578 492.727 262.547C491.102 263.516 488.828 264 485.906 264H475.312V263.133C476.703 263.133 477.578 262.875 477.938 262.359C478.312 261.828 478.5 260.695 478.5 258.961V247.57C478.5 245.883 478.414 244.891 478.242 244.594C478.086 244.297 477.828 244.031 477.469 243.797C477.125 243.547 476.406 243.422 475.312 243.422V242.531H485.203C487.109 242.531 488.648 242.68 489.82 242.977C491.008 243.273 491.977 243.859 492.727 244.734C493.492 245.609 493.875 246.672 493.875 247.922C493.875 250.359 492.352 251.938 489.305 252.656ZM482.391 252.117C483.078 252.133 483.492 252.141 483.633 252.141C485.773 252.141 487.32 251.734 488.273 250.922C489.227 250.094 489.703 249.094 489.703 247.922C489.703 246.562 489.219 245.578 488.25 244.969C487.281 244.359 485.734 244.055 483.609 244.055H482.391V252.117ZM482.391 262.102C483.172 262.352 484.102 262.477 485.18 262.477C487.039 262.477 488.422 262.07 489.328 261.258C490.234 260.445 490.688 259.398 490.688 258.117C490.688 256.68 490.102 255.578 488.93 254.812C487.758 254.047 486.133 253.664 484.055 253.664C483.539 253.664 482.984 253.68 482.391 253.711V262.102ZM508.547 241.898C511.797 241.898 514.406 243.133 516.375 245.602C518.047 247.711 518.883 250.133 518.883 252.867C518.883 254.789 518.422 256.734 517.5 258.703C516.578 260.672 515.305 262.156 513.68 263.156C512.07 264.156 510.273 264.656 508.289 264.656C505.055 264.656 502.484 263.367 500.578 260.789C498.969 258.617 498.164 256.18 498.164 253.477C498.164 251.508 498.648 249.555 499.617 247.617C500.602 245.664 501.891 244.227 503.484 243.305C505.078 242.367 506.766 241.898 508.547 241.898ZM507.82 243.422C506.992 243.422 506.156 243.672 505.312 244.172C504.484 244.656 503.812 245.516 503.297 246.75C502.781 247.984 502.523 249.57 502.523 251.508C502.523 254.633 503.141 257.328 504.375 259.594C505.625 261.859 507.266 262.992 509.297 262.992C510.812 262.992 512.062 262.367 513.047 261.117C514.031 259.867 514.523 257.719 514.523 254.672C514.523 250.859 513.703 247.859 512.062 245.672C510.953 244.172 509.539 243.422 507.82 243.422ZM523.594 242.531H542.789V243.422C541.727 243.422 541.016 243.531 540.656 243.75C540.312 243.953 540.039 244.211 539.836 244.523C539.633 244.836 539.531 245.852 539.531 247.57V258.961C539.531 260.617 539.617 261.609 539.789 261.938C539.961 262.25 540.227 262.531 540.586 262.781C540.961 263.016 541.695 263.133 542.789 263.133V264H531.68V263.133C532.883 263.133 533.711 263.07 534.164 262.945C534.633 262.82 535 262.523 535.266 262.055C535.531 261.57 535.664 260.539 535.664 258.961V244.055H528.516V253.102C528.516 256.523 528.359 258.93 528.047 260.32C527.75 261.695 527.148 262.719 526.242 263.391C525.352 264.047 524.328 264.375 523.172 264.375C521.172 264.375 520.172 263.547 520.172 261.891C520.172 261.328 520.328 260.867 520.641 260.508C520.969 260.148 521.391 259.969 521.906 259.969C522.453 259.969 522.961 260.195 523.43 260.648C524.039 261.242 524.5 261.539 524.812 261.539C525.516 261.539 526.023 260.953 526.336 259.781C526.664 258.594 526.828 256.523 526.828 253.57V248.836C526.828 246.398 526.648 244.914 526.289 244.383C525.945 243.852 525.047 243.531 523.594 243.422V242.531ZM552.047 252.094L554.719 252.047C561.094 252.047 564.281 254.016 564.281 257.953C564.281 259.781 563.5 261.25 561.938 262.359C560.391 263.453 558.156 264 555.234 264H544.922V263.133C546.312 263.133 547.203 262.883 547.594 262.383C547.984 261.867 548.18 260.727 548.18 258.961V247.57C548.18 245.898 548.094 244.914 547.922 244.617C547.75 244.305 547.484 244.031 547.125 243.797C546.766 243.547 546.031 243.422 544.922 243.422V242.531H556.148V243.422C554.602 243.422 553.648 243.516 553.289 243.703C552.93 243.875 552.633 244.109 552.398 244.406C552.164 244.688 552.047 245.742 552.047 247.57V252.094ZM552.047 262.148C552.875 262.367 553.703 262.477 554.531 262.477C556.094 262.477 557.359 262.062 558.328 261.234C559.312 260.406 559.805 259.359 559.805 258.094C559.805 255.094 557.719 253.594 553.547 253.594C553.188 253.594 552.688 253.602 552.047 253.617V262.148ZM585.469 255.844C584.891 258.672 583.758 260.852 582.07 262.383C580.383 263.898 578.516 264.656 576.469 264.656C574.031 264.656 571.906 263.633 570.094 261.586C568.281 259.539 567.375 256.773 567.375 253.289C567.375 249.914 568.375 247.172 570.375 245.062C572.391 242.953 574.805 241.898 577.617 241.898C579.727 241.898 581.461 242.461 582.82 243.586C584.18 244.695 584.859 245.852 584.859 247.055C584.859 247.648 584.664 248.133 584.273 248.508C583.898 248.867 583.367 249.047 582.68 249.047C581.758 249.047 581.062 248.75 580.594 248.156C580.328 247.828 580.148 247.203 580.055 246.281C579.977 245.359 579.664 244.656 579.117 244.172C578.57 243.703 577.812 243.469 576.844 243.469C575.281 243.469 574.023 244.047 573.07 245.203C571.805 246.734 571.172 248.758 571.172 251.273C571.172 253.836 571.797 256.102 573.047 258.07C574.312 260.023 576.016 261 578.156 261C579.688 261 581.062 260.477 582.281 259.43C583.141 258.711 583.977 257.406 584.789 255.516L585.469 255.844ZM588.234 242.531H606.797L607.734 248.344H606.68C606.492 247.172 606.18 246.266 605.742 245.625C605.305 244.984 604.805 244.562 604.242 244.359C603.68 244.156 602.719 244.055 601.359 244.055H599.484V258.961C599.484 260.555 599.578 261.57 599.766 262.008C599.969 262.43 600.289 262.711 600.727 262.852C601.164 262.992 602.164 263.086 603.727 263.133V264H592.055V263.133C593.555 263.102 594.516 262.859 594.938 262.406C595.375 261.953 595.594 260.805 595.594 258.961V244.055H593.672C592.328 244.055 591.414 244.141 590.93 244.312C590.445 244.469 589.977 244.859 589.523 245.484C589.086 246.094 588.711 247.047 588.398 248.344H587.344L588.234 242.531ZM623.18 252.656C627.102 253.469 629.062 255.305 629.062 258.164C629.062 260.117 628.242 261.578 626.602 262.547C624.977 263.516 622.703 264 619.781 264H609.188V263.133C610.578 263.133 611.453 262.875 611.812 262.359C612.188 261.828 612.375 260.695 612.375 258.961V247.57C612.375 245.883 612.289 244.891 612.117 244.594C611.961 244.297 611.703 244.031 611.344 243.797C611 243.547 610.281 243.422 609.188 243.422V242.531H619.078C620.984 242.531 622.523 242.68 623.695 242.977C624.883 243.273 625.852 243.859 626.602 244.734C627.367 245.609 627.75 246.672 627.75 247.922C627.75 250.359 626.227 251.938 623.18 252.656ZM616.266 252.117C616.953 252.133 617.367 252.141 617.508 252.141C619.648 252.141 621.195 251.734 622.148 250.922C623.102 250.094 623.578 249.094 623.578 247.922C623.578 246.562 623.094 245.578 622.125 244.969C621.156 244.359 619.609 244.055 617.484 244.055H616.266V252.117ZM616.266 262.102C617.047 262.352 617.977 262.477 619.055 262.477C620.914 262.477 622.297 262.07 623.203 261.258C624.109 260.445 624.562 259.398 624.562 258.117C624.562 256.68 623.977 255.578 622.805 254.812C621.633 254.047 620.008 253.664 617.93 253.664C617.414 253.664 616.859 253.68 616.266 253.711V262.102ZM638.953 257.391L648.234 246.656C648.203 245.453 647.977 244.617 647.555 244.148C647.133 243.68 646.406 243.438 645.375 243.422V242.531H655.359V243.422C654.312 243.422 653.609 243.531 653.25 243.75C652.891 243.953 652.609 244.211 652.406 244.523C652.203 244.836 652.102 245.852 652.102 247.57V258.961C652.102 260.617 652.188 261.609 652.359 261.938C652.531 262.25 652.797 262.531 653.156 262.781C653.531 263.016 654.266 263.133 655.359 263.133V264H644.977V263.133C646.273 263.133 647.141 262.898 647.578 262.43C648.016 261.945 648.234 260.789 648.234 258.961V248.859L638.953 259.617C638.984 260.945 639.172 261.859 639.516 262.359C639.859 262.859 640.602 263.117 641.742 263.133V264H631.828V263.133C633.219 263.133 634.109 262.883 634.5 262.383C634.891 261.867 635.086 260.727 635.086 258.961V247.57C635.086 245.898 635 244.914 634.828 244.617C634.656 244.305 634.391 244.031 634.031 243.797C633.672 243.547 632.938 243.422 631.828 243.422V242.531H642.211V243.422C641.164 243.422 640.461 243.531 640.102 243.75C639.742 243.953 639.461 244.211 639.258 244.523C639.055 244.836 638.953 245.852 638.953 247.57V257.391ZM661.547 250.617C661.531 253.805 662.305 256.305 663.867 258.117C665.43 259.93 667.266 260.836 669.375 260.836C670.781 260.836 672 260.453 673.031 259.688C674.078 258.906 674.953 257.578 675.656 255.703L676.383 256.172C676.055 258.312 675.102 260.266 673.523 262.031C671.945 263.781 669.969 264.656 667.594 264.656C665.016 264.656 662.805 263.656 660.961 261.656C659.133 259.641 658.219 256.938 658.219 253.547C658.219 249.875 659.156 247.016 661.031 244.969C662.922 242.906 665.289 241.875 668.133 241.875C670.539 241.875 672.516 242.672 674.062 244.266C675.609 245.844 676.383 247.961 676.383 250.617H661.547ZM661.547 249.258H671.484C671.406 247.883 671.242 246.914 670.992 246.352C670.602 245.477 670.016 244.789 669.234 244.289C668.469 243.789 667.664 243.539 666.82 243.539C665.523 243.539 664.359 244.047 663.328 245.062C662.312 246.062 661.719 247.461 661.547 249.258ZM693.141 258.398L699.844 242.531H707.086V243.422C706.023 243.422 705.312 243.531 704.953 243.75C704.609 243.953 704.336 244.211 704.133 244.523C703.93 244.836 703.828 245.852 703.828 247.57V258.961C703.828 260.445 703.898 261.406 704.039 261.844C704.195 262.266 704.5 262.586 704.953 262.805C705.422 263.023 706.133 263.133 707.086 263.133V264H696.703V263.133C697.984 263.133 698.844 262.898 699.281 262.43C699.719 261.945 699.938 260.789 699.938 258.961V246.047L692.344 264H691.523L683.789 246.047V258.961C683.789 260.445 683.867 261.406 684.023 261.844C684.18 262.266 684.484 262.586 684.938 262.805C685.391 263.023 686.094 263.133 687.047 263.133V264H678.844V263.133C680.234 263.133 681.125 262.883 681.516 262.383C681.906 261.867 682.102 260.727 682.102 258.961V247.57C682.102 245.898 682.016 244.914 681.844 244.617C681.672 244.305 681.406 244.031 681.047 243.797C680.688 243.547 679.953 243.422 678.844 243.422V242.531H686.391L693.141 258.398Z" fill="black" fill-opacity="0.7"/>
<path d="M859.352 118.734C859.352 117.781 859.195 117.18 858.883 116.93C858.578 116.672 857.957 116.543 857.02 116.543V116.109H863.898V116.543C862.914 116.574 862.285 116.73 862.012 117.012C861.738 117.293 861.602 117.957 861.602 119.004V129.105C861.602 130.152 861.738 130.816 862.012 131.098C862.285 131.379 862.914 131.535 863.898 131.566V132H857.02V131.566C858.027 131.535 858.668 131.379 858.941 131.098C859.215 130.809 859.352 130.145 859.352 129.105V119.988L851.98 129.434C851.988 130.113 852.031 130.57 852.109 130.805C852.195 131.031 852.387 131.211 852.684 131.344C852.988 131.477 853.523 131.551 854.289 131.566V132H847.434V131.566C848.418 131.535 849.047 131.379 849.32 131.098C849.594 130.816 849.73 130.152 849.73 129.105V119.004C849.73 117.957 849.594 117.293 849.32 117.012C849.047 116.73 848.418 116.574 847.434 116.543V116.109H854.289V116.543C853.297 116.574 852.664 116.73 852.391 117.012C852.117 117.293 851.98 117.957 851.98 119.004V128.156L859.352 118.734ZM872.031 129.199L875.383 121.266H879.004V121.711C878.473 121.711 878.117 121.766 877.938 121.875C877.766 121.977 877.629 122.105 877.527 122.262C877.426 122.418 877.375 122.926 877.375 123.785V129.48C877.375 130.223 877.41 130.703 877.48 130.922C877.559 131.133 877.711 131.293 877.938 131.402C878.172 131.512 878.527 131.566 879.004 131.566V132H873.812V131.566C874.453 131.566 874.883 131.449 875.102 131.215C875.32 130.973 875.43 130.395 875.43 129.48V123.023L871.633 132H871.223L867.355 123.023V129.48C867.355 130.223 867.395 130.703 867.473 130.922C867.551 131.133 867.703 131.293 867.93 131.402C868.156 131.512 868.508 131.566 868.984 131.566V132H864.883V131.566C865.578 131.566 866.023 131.441 866.219 131.191C866.414 130.934 866.512 130.363 866.512 129.48V123.785C866.512 122.949 866.469 122.457 866.383 122.309C866.297 122.152 866.164 122.016 865.984 121.898C865.805 121.773 865.438 121.711 864.883 121.711V121.266H868.656L872.031 129.199ZM890.031 121.266V121.711C889.547 121.711 889.188 121.777 888.953 121.91C888.727 122.043 888.578 122.211 888.508 122.414C888.438 122.617 888.402 123.074 888.402 123.785V129.48C888.402 130.16 888.434 130.609 888.496 130.828C888.559 131.039 888.707 131.215 888.941 131.355C889.184 131.496 889.547 131.566 890.031 131.566V132H884.84V131.566C885.488 131.566 885.922 131.449 886.141 131.215C886.359 130.973 886.469 130.395 886.469 129.48V127.148L885.988 127.16C885.918 127.16 885.793 127.156 885.613 127.148L882.191 132H879.52V131.566C879.91 131.566 880.18 131.516 880.328 131.414C880.484 131.305 880.77 130.957 881.184 130.371L883.691 126.832C881.895 126.207 880.996 125.25 880.996 123.961C880.996 123.234 881.316 122.605 881.957 122.074C882.605 121.535 883.707 121.266 885.262 121.266H890.031ZM886.469 122.156C886.164 122.07 885.875 122.027 885.602 122.027C884.812 122.027 884.223 122.223 883.832 122.613C883.441 123.004 883.246 123.469 883.246 124.008C883.246 124.695 883.523 125.266 884.078 125.719C884.633 126.172 885.332 126.398 886.176 126.398C886.262 126.398 886.359 126.391 886.469 126.375V122.156Z" fill="black" fill-opacity="0.6"/>
<line x1="847" y1="141.5" x2="1258" y2="141.5" stroke="black" stroke-opacity="0.6"/>
<path d="M851.934 179.48H859.316V174.934C859.316 174.121 859.266 173.586 859.164 173.328C859.086 173.133 858.922 172.965 858.672 172.824C858.336 172.637 857.98 172.543 857.605 172.543H857.043V172.109H863.84V172.543H863.277C862.902 172.543 862.547 172.633 862.211 172.812C861.961 172.938 861.789 173.129 861.695 173.387C861.609 173.637 861.566 174.152 861.566 174.934V185.188C861.566 185.992 861.617 186.523 861.719 186.781C861.797 186.977 861.957 187.145 862.199 187.285C862.543 187.473 862.902 187.566 863.277 187.566H863.84V188H857.043V187.566H857.605C858.254 187.566 858.727 187.375 859.023 186.992C859.219 186.742 859.316 186.141 859.316 185.188V180.348H851.934V185.188C851.934 185.992 851.984 186.523 852.086 186.781C852.164 186.977 852.328 187.145 852.578 187.285C852.914 187.473 853.27 187.566 853.645 187.566H854.219V188H847.41V187.566H847.973C848.629 187.566 849.105 187.375 849.402 186.992C849.59 186.742 849.684 186.141 849.684 185.188V174.934C849.684 174.121 849.633 173.586 849.531 173.328C849.453 173.133 849.293 172.965 849.051 172.824C848.707 172.637 848.348 172.543 847.973 172.543H847.41V172.109H854.219V172.543H853.645C853.27 172.543 852.914 172.633 852.578 172.812C852.336 172.938 852.168 173.129 852.074 173.387C851.98 173.637 851.934 174.152 851.934 174.934V179.48ZM870.344 176.949C871.969 176.949 873.273 177.566 874.258 178.801C875.094 179.855 875.512 181.066 875.512 182.434C875.512 183.395 875.281 184.367 874.82 185.352C874.359 186.336 873.723 187.078 872.91 187.578C872.105 188.078 871.207 188.328 870.215 188.328C868.598 188.328 867.312 187.684 866.359 186.395C865.555 185.309 865.152 184.09 865.152 182.738C865.152 181.754 865.395 180.777 865.879 179.809C866.371 178.832 867.016 178.113 867.812 177.652C868.609 177.184 869.453 176.949 870.344 176.949ZM869.98 177.711C869.566 177.711 869.148 177.836 868.727 178.086C868.312 178.328 867.977 178.758 867.719 179.375C867.461 179.992 867.332 180.785 867.332 181.754C867.332 183.316 867.641 184.664 868.258 185.797C868.883 186.93 869.703 187.496 870.719 187.496C871.477 187.496 872.102 187.184 872.594 186.559C873.086 185.934 873.332 184.859 873.332 183.336C873.332 181.43 872.922 179.93 872.102 178.836C871.547 178.086 870.84 177.711 869.98 177.711ZM883.562 185.199L886.914 177.266H890.535V177.711C890.004 177.711 889.648 177.766 889.469 177.875C889.297 177.977 889.16 178.105 889.059 178.262C888.957 178.418 888.906 178.926 888.906 179.785V185.48C888.906 186.223 888.941 186.703 889.012 186.922C889.09 187.133 889.242 187.293 889.469 187.402C889.703 187.512 890.059 187.566 890.535 187.566V188H885.344V187.566C885.984 187.566 886.414 187.449 886.633 187.215C886.852 186.973 886.961 186.395 886.961 185.48V179.023L883.164 188H882.754L878.887 179.023V185.48C878.887 186.223 878.926 186.703 879.004 186.922C879.082 187.133 879.234 187.293 879.461 187.402C879.688 187.512 880.039 187.566 880.516 187.566V188H876.414V187.566C877.109 187.566 877.555 187.441 877.75 187.191C877.945 186.934 878.043 186.363 878.043 185.48V179.785C878.043 178.949 878 178.457 877.914 178.309C877.828 178.152 877.695 178.016 877.516 177.898C877.336 177.773 876.969 177.711 876.414 177.711V177.266H880.188L883.562 185.199ZM893.617 181.309C893.609 182.902 893.996 184.152 894.777 185.059C895.559 185.965 896.477 186.418 897.531 186.418C898.234 186.418 898.844 186.227 899.359 185.844C899.883 185.453 900.32 184.789 900.672 183.852L901.035 184.086C900.871 185.156 900.395 186.133 899.605 187.016C898.816 187.891 897.828 188.328 896.641 188.328C895.352 188.328 894.246 187.828 893.324 186.828C892.41 185.82 891.953 184.469 891.953 182.773C891.953 180.938 892.422 179.508 893.359 178.484C894.305 177.453 895.488 176.938 896.91 176.938C898.113 176.938 899.102 177.336 899.875 178.133C900.648 178.922 901.035 179.98 901.035 181.309H893.617ZM893.617 180.629H898.586C898.547 179.941 898.465 179.457 898.34 179.176C898.145 178.738 897.852 178.395 897.461 178.145C897.078 177.895 896.676 177.77 896.254 177.77C895.605 177.77 895.023 178.023 894.508 178.531C894 179.031 893.703 179.73 893.617 180.629ZM901.703 178.332L905.008 176.996H905.453V179.504C906.008 178.559 906.562 177.898 907.117 177.523C907.68 177.141 908.27 176.949 908.887 176.949C909.965 176.949 910.863 177.371 911.582 178.215C912.465 179.246 912.906 180.59 912.906 182.246C912.906 184.098 912.375 185.629 911.312 186.84C910.438 187.832 909.336 188.328 908.008 188.328C907.43 188.328 906.93 188.246 906.508 188.082C906.195 187.965 905.844 187.73 905.453 187.379V190.648C905.453 191.383 905.496 191.848 905.582 192.043C905.676 192.246 905.832 192.406 906.051 192.523C906.277 192.641 906.684 192.699 907.27 192.699V193.133H901.645V192.699H901.938C902.367 192.707 902.734 192.625 903.039 192.453C903.188 192.367 903.301 192.227 903.379 192.031C903.465 191.844 903.508 191.359 903.508 190.578V180.43C903.508 179.734 903.477 179.293 903.414 179.105C903.352 178.918 903.25 178.777 903.109 178.684C902.977 178.59 902.793 178.543 902.559 178.543C902.371 178.543 902.133 178.598 901.844 178.707L901.703 178.332ZM905.453 180.195V184.203C905.453 185.07 905.488 185.641 905.559 185.914C905.668 186.367 905.934 186.766 906.355 187.109C906.785 187.453 907.324 187.625 907.973 187.625C908.754 187.625 909.387 187.32 909.871 186.711C910.504 185.914 910.82 184.793 910.82 183.348C910.82 181.707 910.461 180.445 909.742 179.562C909.242 178.953 908.648 178.648 907.961 178.648C907.586 178.648 907.215 178.742 906.848 178.93C906.566 179.07 906.102 179.492 905.453 180.195Z" fill="black" fill-opacity="0.6"/>
<line x1="847" y1="197.5" x2="1258" y2="197.5" stroke="black" stroke-opacity="0.6"/>
<path d="M859.352 228.977H851.98V241.105C851.98 242.152 852.113 242.816 852.379 243.098C852.652 243.379 853.285 243.535 854.277 243.566V244H847.434V243.566C848.418 243.535 849.047 243.379 849.32 243.098C849.594 242.816 849.73 242.152 849.73 241.105V231.004C849.73 229.957 849.594 229.293 849.32 229.012C849.047 228.73 848.418 228.574 847.434 228.543V228.109H863.898V228.543C862.914 228.574 862.285 228.73 862.012 229.012C861.738 229.293 861.602 229.957 861.602 231.004V241.105C861.602 242.152 861.738 242.816 862.012 243.098C862.285 243.379 862.914 243.535 863.898 243.566V244H857.066V243.566C858.043 243.535 858.668 243.383 858.941 243.109C859.215 242.828 859.352 242.16 859.352 241.105V228.977ZM870.344 232.949C871.969 232.949 873.273 233.566 874.258 234.801C875.094 235.855 875.512 237.066 875.512 238.434C875.512 239.395 875.281 240.367 874.82 241.352C874.359 242.336 873.723 243.078 872.91 243.578C872.105 244.078 871.207 244.328 870.215 244.328C868.598 244.328 867.312 243.684 866.359 242.395C865.555 241.309 865.152 240.09 865.152 238.738C865.152 237.754 865.395 236.777 865.879 235.809C866.371 234.832 867.016 234.113 867.812 233.652C868.609 233.184 869.453 232.949 870.344 232.949ZM869.98 233.711C869.566 233.711 869.148 233.836 868.727 234.086C868.312 234.328 867.977 234.758 867.719 235.375C867.461 235.992 867.332 236.785 867.332 237.754C867.332 239.316 867.641 240.664 868.258 241.797C868.883 242.93 869.703 243.496 870.719 243.496C871.477 243.496 872.102 243.184 872.594 242.559C873.086 241.934 873.332 240.859 873.332 239.336C873.332 237.43 872.922 235.93 872.102 234.836C871.547 234.086 870.84 233.711 869.98 233.711ZM883.68 238.082V235.785C883.68 235.043 883.641 234.566 883.562 234.355C883.492 234.137 883.34 233.977 883.105 233.875C882.879 233.766 882.531 233.711 882.062 233.711V233.266H887.254V233.711C886.723 233.711 886.367 233.766 886.188 233.875C886.016 233.977 885.879 234.105 885.777 234.262C885.676 234.418 885.625 234.926 885.625 235.785V241.48C885.625 242.223 885.66 242.703 885.73 242.922C885.809 243.133 885.961 243.293 886.188 243.402C886.422 243.512 886.777 243.566 887.254 243.566V244H881.805V243.566C882.43 243.543 882.836 243.504 883.023 243.449C883.219 243.387 883.375 243.234 883.492 242.992C883.617 242.75 883.68 242.246 883.68 241.48V238.855C882.531 239.441 881.32 239.734 880.047 239.734C879.352 239.734 878.812 239.648 878.43 239.477C878.047 239.297 877.805 239.094 877.703 238.867C877.602 238.633 877.551 238.258 877.551 237.742V235.785C877.551 235.09 877.52 234.633 877.457 234.414C877.395 234.195 877.254 234.023 877.035 233.898C876.816 233.773 876.492 233.711 876.062 233.711V233.266H881.113V233.711C880.59 233.711 880.238 233.766 880.059 233.875C879.879 233.977 879.738 234.105 879.637 234.262C879.535 234.418 879.484 234.926 879.484 235.785V237.109C879.484 237.625 879.52 237.973 879.59 238.152C879.668 238.332 879.84 238.484 880.105 238.609C880.379 238.727 880.762 238.785 881.254 238.785C882.105 238.785 882.914 238.551 883.68 238.082ZM888.367 233.266H897.648L898.117 236.172H897.59C897.496 235.586 897.34 235.133 897.121 234.812C896.902 234.492 896.652 234.281 896.371 234.18C896.09 234.078 895.609 234.027 894.93 234.027H893.992V241.48C893.992 242.277 894.039 242.785 894.133 243.004C894.234 243.215 894.395 243.355 894.613 243.426C894.832 243.496 895.332 243.543 896.113 243.566V244H890.277V243.566C891.027 243.551 891.508 243.43 891.719 243.203C891.938 242.977 892.047 242.402 892.047 241.48V234.027H891.086C890.414 234.027 889.957 234.07 889.715 234.156C889.473 234.234 889.238 234.43 889.012 234.742C888.793 235.047 888.605 235.523 888.449 236.172H887.922L888.367 233.266ZM905.418 242.453C904.316 243.305 903.625 243.797 903.344 243.93C902.922 244.125 902.473 244.223 901.996 244.223C901.254 244.223 900.641 243.969 900.156 243.461C899.68 242.953 899.441 242.285 899.441 241.457C899.441 240.934 899.559 240.48 899.793 240.098C900.113 239.566 900.668 239.066 901.457 238.598C902.254 238.129 903.574 237.559 905.418 236.887V236.465C905.418 235.395 905.246 234.66 904.902 234.262C904.566 233.863 904.074 233.664 903.426 233.664C902.934 233.664 902.543 233.797 902.254 234.062C901.957 234.328 901.809 234.633 901.809 234.977L901.832 235.656C901.832 236.016 901.738 236.293 901.551 236.488C901.371 236.684 901.133 236.781 900.836 236.781C900.547 236.781 900.309 236.68 900.121 236.477C899.941 236.273 899.852 235.996 899.852 235.645C899.852 234.973 900.195 234.355 900.883 233.793C901.57 233.23 902.535 232.949 903.777 232.949C904.73 232.949 905.512 233.109 906.121 233.43C906.582 233.672 906.922 234.051 907.141 234.566C907.281 234.902 907.352 235.59 907.352 236.629V240.273C907.352 241.297 907.371 241.926 907.41 242.16C907.449 242.387 907.512 242.539 907.598 242.617C907.691 242.695 907.797 242.734 907.914 242.734C908.039 242.734 908.148 242.707 908.242 242.652C908.406 242.551 908.723 242.266 909.191 241.797V242.453C908.316 243.625 907.48 244.211 906.684 244.211C906.301 244.211 905.996 244.078 905.77 243.812C905.543 243.547 905.426 243.094 905.418 242.453ZM905.418 241.691V237.602C904.238 238.07 903.477 238.402 903.133 238.598C902.516 238.941 902.074 239.301 901.809 239.676C901.543 240.051 901.41 240.461 901.41 240.906C901.41 241.469 901.578 241.938 901.914 242.312C902.25 242.68 902.637 242.863 903.074 242.863C903.668 242.863 904.449 242.473 905.418 241.691Z" fill="black" fill-opacity="0.6"/>
<line x1="847" y1="253.5" x2="1258" y2="253.5" stroke="black" stroke-opacity="0.6"/>
<path d="M858.086 291.891C859.188 292.125 860.012 292.5 860.559 293.016C861.316 293.734 861.695 294.613 861.695 295.652C861.695 296.441 861.445 297.199 860.945 297.926C860.445 298.645 859.758 299.172 858.883 299.508C858.016 299.836 856.688 300 854.898 300H847.398V299.566H847.996C848.66 299.566 849.137 299.355 849.426 298.934C849.605 298.66 849.695 298.078 849.695 297.188V286.922C849.695 285.938 849.582 285.316 849.355 285.059C849.051 284.715 848.598 284.543 847.996 284.543H847.398V284.109H854.266C855.547 284.109 856.574 284.203 857.348 284.391C858.52 284.672 859.414 285.172 860.031 285.891C860.648 286.602 860.957 287.422 860.957 288.352C860.957 289.148 860.715 289.863 860.23 290.496C859.746 291.121 859.031 291.586 858.086 291.891ZM851.945 291.258C852.234 291.312 852.562 291.355 852.93 291.387C853.305 291.41 853.715 291.422 854.16 291.422C855.301 291.422 856.156 291.301 856.727 291.059C857.305 290.809 857.746 290.43 858.051 289.922C858.355 289.414 858.508 288.859 858.508 288.258C858.508 287.328 858.129 286.535 857.371 285.879C856.613 285.223 855.508 284.895 854.055 284.895C853.273 284.895 852.57 284.98 851.945 285.152V291.258ZM851.945 298.852C852.852 299.062 853.746 299.168 854.629 299.168C856.043 299.168 857.121 298.852 857.863 298.219C858.605 297.578 858.977 296.789 858.977 295.852C858.977 295.234 858.809 294.641 858.473 294.07C858.137 293.5 857.59 293.051 856.832 292.723C856.074 292.395 855.137 292.23 854.02 292.23C853.535 292.23 853.121 292.238 852.777 292.254C852.434 292.27 852.156 292.297 851.945 292.336V298.852ZM869.008 288.949C870.633 288.949 871.938 289.566 872.922 290.801C873.758 291.855 874.176 293.066 874.176 294.434C874.176 295.395 873.945 296.367 873.484 297.352C873.023 298.336 872.387 299.078 871.574 299.578C870.77 300.078 869.871 300.328 868.879 300.328C867.262 300.328 865.977 299.684 865.023 298.395C864.219 297.309 863.816 296.09 863.816 294.738C863.816 293.754 864.059 292.777 864.543 291.809C865.035 290.832 865.68 290.113 866.477 289.652C867.273 289.184 868.117 288.949 869.008 288.949ZM868.645 289.711C868.23 289.711 867.812 289.836 867.391 290.086C866.977 290.328 866.641 290.758 866.383 291.375C866.125 291.992 865.996 292.785 865.996 293.754C865.996 295.316 866.305 296.664 866.922 297.797C867.547 298.93 868.367 299.496 869.383 299.496C870.141 299.496 870.766 299.184 871.258 298.559C871.75 297.934 871.996 296.859 871.996 295.336C871.996 293.43 871.586 291.93 870.766 290.836C870.211 290.086 869.504 289.711 868.645 289.711ZM883.75 290.027H879.109V297.48C879.109 298.309 879.152 298.805 879.238 298.969C879.324 299.125 879.457 299.266 879.637 299.391C879.824 299.508 880.191 299.566 880.738 299.566V300H875.547V299.566C876.242 299.566 876.688 299.441 876.883 299.191C877.078 298.934 877.176 298.363 877.176 297.48V291.785C877.176 290.949 877.133 290.457 877.047 290.309C876.961 290.152 876.828 290.016 876.648 289.898C876.469 289.773 876.102 289.711 875.547 289.711V289.266H887.312V289.711C886.789 289.711 886.438 289.766 886.258 289.875C886.078 289.977 885.938 290.105 885.836 290.262C885.734 290.418 885.684 290.926 885.684 291.785V297.48C885.684 298.309 885.727 298.805 885.812 298.969C885.898 299.125 886.031 299.266 886.211 299.391C886.398 299.508 886.766 299.566 887.312 299.566V300H882.121V299.566C882.77 299.566 883.203 299.449 883.422 299.215C883.641 298.973 883.75 298.395 883.75 297.48V290.027ZM887.828 290.332L891.133 288.996H891.578V291.504C892.133 290.559 892.688 289.898 893.242 289.523C893.805 289.141 894.395 288.949 895.012 288.949C896.09 288.949 896.988 289.371 897.707 290.215C898.59 291.246 899.031 292.59 899.031 294.246C899.031 296.098 898.5 297.629 897.438 298.84C896.562 299.832 895.461 300.328 894.133 300.328C893.555 300.328 893.055 300.246 892.633 300.082C892.32 299.965 891.969 299.73 891.578 299.379V302.648C891.578 303.383 891.621 303.848 891.707 304.043C891.801 304.246 891.957 304.406 892.176 304.523C892.402 304.641 892.809 304.699 893.395 304.699V305.133H887.77V304.699H888.062C888.492 304.707 888.859 304.625 889.164 304.453C889.312 304.367 889.426 304.227 889.504 304.031C889.59 303.844 889.633 303.359 889.633 302.578V292.43C889.633 291.734 889.602 291.293 889.539 291.105C889.477 290.918 889.375 290.777 889.234 290.684C889.102 290.59 888.918 290.543 888.684 290.543C888.496 290.543 888.258 290.598 887.969 290.707L887.828 290.332ZM891.578 292.195V296.203C891.578 297.07 891.613 297.641 891.684 297.914C891.793 298.367 892.059 298.766 892.48 299.109C892.91 299.453 893.449 299.625 894.098 299.625C894.879 299.625 895.512 299.32 895.996 298.711C896.629 297.914 896.945 296.793 896.945 295.348C896.945 293.707 896.586 292.445 895.867 291.562C895.367 290.953 894.773 290.648 894.086 290.648C893.711 290.648 893.34 290.742 892.973 290.93C892.691 291.07 892.227 291.492 891.578 292.195ZM905.852 288.949C907.477 288.949 908.781 289.566 909.766 290.801C910.602 291.855 911.02 293.066 911.02 294.434C911.02 295.395 910.789 296.367 910.328 297.352C909.867 298.336 909.23 299.078 908.418 299.578C907.613 300.078 906.715 300.328 905.723 300.328C904.105 300.328 902.82 299.684 901.867 298.395C901.062 297.309 900.66 296.09 900.66 294.738C900.66 293.754 900.902 292.777 901.387 291.809C901.879 290.832 902.523 290.113 903.32 289.652C904.117 289.184 904.961 288.949 905.852 288.949ZM905.488 289.711C905.074 289.711 904.656 289.836 904.234 290.086C903.82 290.328 903.484 290.758 903.227 291.375C902.969 291.992 902.84 292.785 902.84 293.754C902.84 295.316 903.148 296.664 903.766 297.797C904.391 298.93 905.211 299.496 906.227 299.496C906.984 299.496 907.609 299.184 908.102 298.559C908.594 297.934 908.84 296.859 908.84 295.336C908.84 293.43 908.43 291.93 907.609 290.836C907.055 290.086 906.348 289.711 905.488 289.711ZM922.328 295.922C922.039 297.336 921.473 298.426 920.629 299.191C919.785 299.949 918.852 300.328 917.828 300.328C916.609 300.328 915.547 299.816 914.641 298.793C913.734 297.77 913.281 296.387 913.281 294.645C913.281 292.957 913.781 291.586 914.781 290.531C915.789 289.477 916.996 288.949 918.402 288.949C919.457 288.949 920.324 289.23 921.004 289.793C921.684 290.348 922.023 290.926 922.023 291.527C922.023 291.824 921.926 292.066 921.73 292.254C921.543 292.434 921.277 292.523 920.934 292.523C920.473 292.523 920.125 292.375 919.891 292.078C919.758 291.914 919.668 291.602 919.621 291.141C919.582 290.68 919.426 290.328 919.152 290.086C918.879 289.852 918.5 289.734 918.016 289.734C917.234 289.734 916.605 290.023 916.129 290.602C915.496 291.367 915.18 292.379 915.18 293.637C915.18 294.918 915.492 296.051 916.117 297.035C916.75 298.012 917.602 298.5 918.672 298.5C919.438 298.5 920.125 298.238 920.734 297.715C921.164 297.355 921.582 296.703 921.988 295.758L922.328 295.922Z" fill="black" fill-opacity="0.6"/>
<line x1="847" y1="309.5" x2="1258" y2="309.5" stroke="black" stroke-opacity="0.6"/>
<rect x="933" y="342" width="235" height="52" rx="8" fill="#A2765E"/>
<path d="M979.8 374.096C978.957 374.096 978.173 373.957 977.448 373.68C976.733 373.392 976.109 372.992 975.576 372.48C975.053 371.957 974.643 371.355 974.344 370.672C974.056 369.979 973.912 369.221 973.912 368.4C973.912 367.579 974.056 366.827 974.344 366.144C974.643 365.451 975.053 364.848 975.576 364.336C976.109 363.813 976.733 363.413 977.448 363.136C978.163 362.848 978.947 362.704 979.8 362.704C980.643 362.704 981.421 362.848 982.136 363.136C982.851 363.413 983.469 363.808 983.992 364.32C984.525 364.832 984.936 365.435 985.224 366.128C985.523 366.821 985.672 367.579 985.672 368.4C985.672 369.221 985.523 369.979 985.224 370.672C984.936 371.365 984.525 371.968 983.992 372.48C983.469 372.992 982.851 373.392 982.136 373.68C981.421 373.957 980.643 374.096 979.8 374.096ZM979.8 373.04C980.472 373.04 981.091 372.928 981.656 372.704C982.232 372.469 982.728 372.144 983.144 371.728C983.571 371.301 983.901 370.811 984.136 370.256C984.371 369.691 984.488 369.072 984.488 368.4C984.488 367.728 984.371 367.115 984.136 366.56C983.901 365.995 983.571 365.504 983.144 365.088C982.728 364.661 982.232 364.336 981.656 364.112C981.091 363.877 980.472 363.76 979.8 363.76C979.128 363.76 978.504 363.877 977.928 364.112C977.352 364.336 976.851 364.661 976.424 365.088C976.008 365.504 975.677 365.995 975.432 366.56C975.197 367.115 975.08 367.728 975.08 368.4C975.08 369.061 975.197 369.675 975.432 370.24C975.677 370.805 976.008 371.301 976.424 371.728C976.851 372.144 977.352 372.469 977.928 372.704C978.504 372.928 979.128 373.04 979.8 373.04ZM989.591 374V366.288L989.879 366.592H986.407V365.6H993.911V366.592H990.439L990.727 366.288V374H989.591ZM995.554 374V365.6H1003.11V374H1001.97V366.288L1002.26 366.592H996.402L996.69 366.288V374H995.554ZM1010.67 374.08C1009.95 374.08 1009.29 373.915 1008.7 373.584C1008.12 373.243 1007.65 372.757 1007.29 372.128C1006.95 371.488 1006.78 370.709 1006.78 369.792C1006.78 368.875 1006.95 368.101 1007.29 367.472C1007.64 366.832 1008.1 366.347 1008.69 366.016C1009.27 365.685 1009.93 365.52 1010.67 365.52C1011.47 365.52 1012.19 365.701 1012.81 366.064C1013.45 366.416 1013.96 366.917 1014.32 367.568C1014.68 368.208 1014.86 368.949 1014.86 369.792C1014.86 370.645 1014.68 371.392 1014.32 372.032C1013.96 372.672 1013.45 373.173 1012.81 373.536C1012.19 373.899 1011.47 374.08 1010.67 374.08ZM1006.33 377.104V365.6H1007.42V368.128L1007.31 369.808L1007.47 371.504V377.104H1006.33ZM1010.59 373.072C1011.19 373.072 1011.72 372.939 1012.19 372.672C1012.66 372.395 1013.03 372.011 1013.31 371.52C1013.59 371.019 1013.73 370.443 1013.73 369.792C1013.73 369.141 1013.59 368.571 1013.31 368.08C1013.03 367.589 1012.66 367.205 1012.19 366.928C1011.72 366.651 1011.19 366.512 1010.59 366.512C1009.99 366.512 1009.45 366.651 1008.97 366.928C1008.51 367.205 1008.13 367.589 1007.85 368.08C1007.59 368.571 1007.45 369.141 1007.45 369.792C1007.45 370.443 1007.59 371.019 1007.85 371.52C1008.13 372.011 1008.51 372.395 1008.97 372.672C1009.45 372.939 1009.99 373.072 1010.59 373.072ZM1022.47 374V372.144L1022.42 371.84V368.736C1022.42 368.021 1022.22 367.472 1021.82 367.088C1021.42 366.704 1020.83 366.512 1020.04 366.512C1019.5 366.512 1018.98 366.603 1018.49 366.784C1018 366.965 1017.58 367.205 1017.24 367.504L1016.73 366.656C1017.16 366.293 1017.67 366.016 1018.26 365.824C1018.86 365.621 1019.49 365.52 1020.15 365.52C1021.24 365.52 1022.08 365.792 1022.66 366.336C1023.26 366.869 1023.56 367.685 1023.56 368.784V374H1022.47ZM1019.58 374.08C1018.95 374.08 1018.4 373.979 1017.93 373.776C1017.47 373.563 1017.12 373.275 1016.87 372.912C1016.63 372.539 1016.5 372.112 1016.5 371.632C1016.5 371.195 1016.61 370.8 1016.81 370.448C1017.02 370.085 1017.36 369.797 1017.83 369.584C1018.31 369.36 1018.95 369.248 1019.75 369.248H1022.65V370.096H1019.78C1018.97 370.096 1018.41 370.24 1018.09 370.528C1017.78 370.816 1017.62 371.173 1017.62 371.6C1017.62 372.08 1017.81 372.464 1018.18 372.752C1018.56 373.04 1019.08 373.184 1019.75 373.184C1020.39 373.184 1020.94 373.04 1021.4 372.752C1021.87 372.453 1022.21 372.027 1022.42 371.472L1022.68 372.256C1022.47 372.811 1022.09 373.253 1021.56 373.584C1021.04 373.915 1020.38 374.08 1019.58 374.08ZM1026.58 374V365.6H1030.3C1031.25 365.6 1031.99 365.781 1032.54 366.144C1033.09 366.507 1033.37 367.04 1033.37 367.744C1033.37 368.427 1033.11 368.955 1032.58 369.328C1032.06 369.691 1031.37 369.872 1030.52 369.872L1030.74 369.536C1031.75 369.536 1032.48 369.723 1032.95 370.096C1033.42 370.469 1033.66 371.008 1033.66 371.712C1033.66 372.437 1033.39 373.003 1032.86 373.408C1032.33 373.803 1031.52 374 1030.41 374H1026.58ZM1027.69 373.104H1030.36C1031.08 373.104 1031.61 372.992 1031.98 372.768C1032.35 372.533 1032.54 372.16 1032.54 371.648C1032.54 371.136 1032.37 370.763 1032.04 370.528C1031.71 370.293 1031.19 370.176 1030.47 370.176H1027.69V373.104ZM1027.69 369.328H1030.22C1030.87 369.328 1031.36 369.205 1031.7 368.96C1032.06 368.715 1032.23 368.357 1032.23 367.888C1032.23 367.419 1032.06 367.067 1031.7 366.832C1031.36 366.597 1030.87 366.48 1030.22 366.48H1027.69V369.328ZM1036.32 374V365.6H1037.46V372.272L1043.07 365.6H1044.08V374H1042.94V367.312L1037.34 374H1036.32ZM1048.93 374V366.288L1049.22 366.592H1045.75V365.6H1053.25V366.592H1049.78L1050.07 366.288V374H1048.93ZM1058.51 368.56C1059.57 368.571 1060.37 368.805 1060.91 369.264C1061.47 369.723 1061.75 370.384 1061.75 371.248C1061.75 372.144 1061.45 372.832 1060.85 373.312C1060.26 373.792 1059.41 374.027 1058.29 374.016L1054.9 374V365.6H1056.03V368.528L1058.51 368.56ZM1058.23 373.152C1059 373.163 1059.59 373.008 1059.99 372.688C1060.39 372.357 1060.59 371.877 1060.59 371.248C1060.59 370.619 1060.4 370.16 1060 369.872C1059.61 369.573 1059.01 369.419 1058.23 369.408L1056.03 369.376V373.12L1058.23 373.152ZM1068.1 374V365.6H1071.81C1072.76 365.6 1073.51 365.781 1074.05 366.144C1074.61 366.507 1074.88 367.04 1074.88 367.744C1074.88 368.427 1074.62 368.955 1074.1 369.328C1073.58 369.691 1072.89 369.872 1072.04 369.872L1072.26 369.536C1073.26 369.536 1074 369.723 1074.47 370.096C1074.94 370.469 1075.17 371.008 1075.17 371.712C1075.17 372.437 1074.91 373.003 1074.37 373.408C1073.85 373.803 1073.03 374 1071.92 374H1068.1ZM1069.2 373.104H1071.88C1072.59 373.104 1073.13 372.992 1073.49 372.768C1073.87 372.533 1074.05 372.16 1074.05 371.648C1074.05 371.136 1073.89 370.763 1073.56 370.528C1073.23 370.293 1072.7 370.176 1071.99 370.176H1069.2V373.104ZM1069.2 369.328H1071.73C1072.38 369.328 1072.88 369.205 1073.22 368.96C1073.57 368.715 1073.75 368.357 1073.75 367.888C1073.75 367.419 1073.57 367.067 1073.22 366.832C1072.88 366.597 1072.38 366.48 1071.73 366.48H1069.2V369.328ZM1081.29 374.08C1080.48 374.08 1079.75 373.899 1079.1 373.536C1078.46 373.163 1077.95 372.656 1077.58 372.016C1077.21 371.365 1077.02 370.624 1077.02 369.792C1077.02 368.949 1077.21 368.208 1077.58 367.568C1077.95 366.928 1078.46 366.427 1079.1 366.064C1079.74 365.701 1080.47 365.52 1081.29 365.52C1082.12 365.52 1082.86 365.701 1083.5 366.064C1084.15 366.427 1084.66 366.928 1085.02 367.568C1085.39 368.208 1085.58 368.949 1085.58 369.792C1085.58 370.624 1085.39 371.365 1085.02 372.016C1084.66 372.656 1084.15 373.163 1083.5 373.536C1082.85 373.899 1082.11 374.08 1081.29 374.08ZM1081.29 373.072C1081.9 373.072 1082.44 372.939 1082.91 372.672C1083.38 372.395 1083.74 372.011 1084.01 371.52C1084.29 371.019 1084.43 370.443 1084.43 369.792C1084.43 369.131 1084.29 368.555 1084.01 368.064C1083.74 367.573 1083.38 367.195 1082.91 366.928C1082.44 366.651 1081.9 366.512 1081.31 366.512C1080.71 366.512 1080.18 366.651 1079.71 366.928C1079.24 367.195 1078.86 367.573 1078.59 368.064C1078.31 368.555 1078.17 369.131 1078.17 369.792C1078.17 370.443 1078.31 371.019 1078.59 371.52C1078.86 372.011 1079.24 372.395 1079.71 372.672C1080.18 372.939 1080.7 373.072 1081.29 373.072ZM1088.01 374V365.6H1095.56V374H1094.42V366.288L1094.71 366.592H1088.85L1089.14 366.288V374H1088.01ZM1103.12 374.08C1102.4 374.08 1101.74 373.915 1101.16 373.584C1100.57 373.243 1100.1 372.757 1099.75 372.128C1099.41 371.488 1099.24 370.709 1099.24 369.792C1099.24 368.875 1099.41 368.101 1099.75 367.472C1100.09 366.832 1100.55 366.347 1101.14 366.016C1101.73 365.685 1102.39 365.52 1103.12 365.52C1103.92 365.52 1104.64 365.701 1105.27 366.064C1105.91 366.416 1106.41 366.917 1106.77 367.568C1107.13 368.208 1107.32 368.949 1107.32 369.792C1107.32 370.645 1107.13 371.392 1106.77 372.032C1106.41 372.672 1105.91 373.173 1105.27 373.536C1104.64 373.899 1103.92 374.08 1103.12 374.08ZM1098.79 377.104V365.6H1099.88V368.128L1099.76 369.808L1099.92 371.504V377.104H1098.79ZM1103.04 373.072C1103.64 373.072 1104.17 372.939 1104.64 372.672C1105.11 372.395 1105.49 372.011 1105.76 371.52C1106.04 371.019 1106.18 370.443 1106.18 369.792C1106.18 369.141 1106.04 368.571 1105.76 368.08C1105.49 367.589 1105.11 367.205 1104.64 366.928C1104.17 366.651 1103.64 366.512 1103.04 366.512C1102.45 366.512 1101.91 366.651 1101.43 366.928C1100.96 367.205 1100.59 367.589 1100.31 368.08C1100.04 368.571 1099.91 369.141 1099.91 369.792C1099.91 370.443 1100.04 371.019 1100.31 371.52C1100.59 372.011 1100.96 372.395 1101.43 372.672C1101.91 372.939 1102.45 373.072 1103.04 373.072ZM1113.21 374.08C1112.4 374.08 1111.67 373.899 1111.02 373.536C1110.38 373.163 1109.87 372.656 1109.5 372.016C1109.13 371.365 1108.94 370.624 1108.94 369.792C1108.94 368.949 1109.13 368.208 1109.5 367.568C1109.87 366.928 1110.38 366.427 1111.02 366.064C1111.66 365.701 1112.39 365.52 1113.21 365.52C1114.04 365.52 1114.78 365.701 1115.42 366.064C1116.07 366.427 1116.58 366.928 1116.94 367.568C1117.31 368.208 1117.5 368.949 1117.5 369.792C1117.5 370.624 1117.31 371.365 1116.94 372.016C1116.58 372.656 1116.07 373.163 1115.42 373.536C1114.77 373.899 1114.03 374.08 1113.21 374.08ZM1113.21 373.072C1113.82 373.072 1114.36 372.939 1114.83 372.672C1115.3 372.395 1115.67 372.011 1115.93 371.52C1116.21 371.019 1116.35 370.443 1116.35 369.792C1116.35 369.131 1116.21 368.555 1115.93 368.064C1115.67 367.573 1115.3 367.195 1114.83 366.928C1114.36 366.651 1113.83 366.512 1113.23 366.512C1112.63 366.512 1112.1 366.651 1111.63 366.928C1111.16 367.195 1110.79 367.573 1110.51 368.064C1110.23 368.555 1110.09 369.131 1110.09 369.792C1110.09 370.443 1110.23 371.019 1110.51 371.52C1110.79 372.011 1111.16 372.395 1111.63 372.672C1112.1 372.939 1112.63 373.072 1113.21 373.072ZM1123.45 374.08C1122.62 374.08 1121.87 373.899 1121.21 373.536C1120.56 373.163 1120.05 372.656 1119.67 372.016C1119.3 371.365 1119.11 370.624 1119.11 369.792C1119.11 368.949 1119.3 368.208 1119.67 367.568C1120.05 366.928 1120.56 366.427 1121.21 366.064C1121.87 365.701 1122.62 365.52 1123.45 365.52C1124.16 365.52 1124.81 365.659 1125.38 365.936C1125.96 366.213 1126.41 366.629 1126.74 367.184L1125.9 367.76C1125.61 367.333 1125.25 367.019 1124.82 366.816C1124.4 366.613 1123.93 366.512 1123.43 366.512C1122.84 366.512 1122.3 366.651 1121.82 366.928C1121.34 367.195 1120.96 367.573 1120.68 368.064C1120.4 368.555 1120.26 369.131 1120.26 369.792C1120.26 370.453 1120.4 371.029 1120.68 371.52C1120.96 372.011 1121.34 372.395 1121.82 372.672C1122.3 372.939 1122.84 373.072 1123.43 373.072C1123.93 373.072 1124.4 372.971 1124.82 372.768C1125.25 372.565 1125.61 372.256 1125.9 371.84L1126.74 372.416C1126.41 372.96 1125.96 373.376 1125.38 373.664C1124.81 373.941 1124.16 374.08 1123.45 374.08Z" fill="white"/>
<defs>
<filter id="filter0_bd_343_832" x="58" y="-14" width="1324" height="518" filterUnits="userSpaceOnUse" color-interpolation-filters="sRGB">
<feFlood flood-opacity="0" result="BackgroundImageFix"/>
<feGaussianBlur in="BackgroundImageFix" stdDeviation="7.5"/>
<feComposite in2="SourceAlpha" operator="in" result="effect1_backgroundBlur_343_832"/>
<feColorMatrix in="SourceAlpha" type="matrix" values="0 0 0 0 0 0 0 0 0 0 0 0 0 0 0 0 0 0 127 0" result="hardAlpha"/>
<feOffset dy="4"/>
<feGaussianBlur stdDeviation="2"/>
<feComposite in2="hardAlpha" operator="out"/>
<feColorMatrix type="matrix" values="0 0 0 0 0.32549 0 0 0 0 0.388235 0 0 0 0 0.517647 0 0 0 0.3 0"/>
<feBlend mode="normal" in2="effect1_backgroundBlur_343_832" result="effect2_dropShadow_343_832"/>
<feBlend mode="normal" in="SourceGraphic" in2="effect2_dropShadow_343_832" result="shape"/>
</filter>
<linearGradient id="paint0_linear_343_832" x1="-215.286" y1="-4.2999e-06" x2="307.27" y2="1070.97" gradientUnits="userSpaceOnUse">
<stop stop-color="#A2765E"/>
<stop offset="1" stop-color="#A2765E" stop-opacity="0.2"/>
</linearGradient>
<radialGradient id="paint1_radial_343_832" cx="0" cy="0" r="1" gradientUnits="userSpaceOnUse" gradientTransform="translate(153.844 384.802) rotate(108.812) scale(116.511 122.361)">
<stop stop-color="#D9D9D9"/>
<stop offset="1" stop-color="#A2765E"/>
</radialGradient>
<radialGradient id="paint2_radial_343_832" cx="0" cy="0" r="1" gradientUnits="userSpaceOnUse" gradientTransform="translate(83.6407 354.867) rotate(81.0784) scale(208.658 220.602)">
<stop offset="0.9999" stop-color="#D9D9D9"/>
<stop offset="1" stop-opacity="0"/>
</radialGradient>
<linearGradient id="paint3_linear_343_832" x1="73" y1="1" x2="233.434" y2="736.323" gradientUnits="userSpaceOnUse">
<stop stop-color="white" stop-opacity="0.4"/>
<stop offset="1" stop-color="white" stop-opacity="0"/>
</linearGradient>
<radialGradient id="paint4_radial_343_832" cx="0" cy="0" r="1" gradientUnits="userSpaceOnUse" gradientTransform="translate(720 245) rotate(159.337) scale(691.48 360.388)">
<stop/>
<stop offset="1" stop-opacity="0"/>
</radialGradient>
<radialGradient id="paint5_radial_343_832" cx="0" cy="0" r="1" gradientUnits="userSpaceOnUse" gradientTransform="translate(720 245) rotate(-159.155) scale(658.343 346.494)">
<stop stop-color="white"/>
<stop offset="1" stop-color="white" stop-opacity="0"/>
</radialGradient>
</defs>
</svg>
