<svg width="461" height="50" viewBox="0 0 461 50" fill="none" xmlns="http://www.w3.org/2000/svg">
<path d="M23.8008 44.0312C24.4753 44.0312 25.1589 43.8398 25.8516 43.457C26.5625 43.056 27.2461 42.5182 27.9023 41.8438C28.5768 41.151 29.2148 40.3398 29.8164 39.4102C30.418 38.4805 30.9648 37.487 31.457 36.4297C31.9674 35.3542 32.3958 34.2422 32.7422 33.0938C33.1068 31.9271 33.3802 30.7604 33.5625 29.5938C33.599 27.8984 33.681 26.2214 33.8086 24.5625C33.9544 22.8854 34.1094 21.3633 34.2734 19.9961C34.474 18.4102 34.6836 16.888 34.9023 15.4297L39.25 14.2539C39.0312 15.8581 38.8307 17.6719 38.6484 19.6953C38.5026 21.4271 38.3659 23.4779 38.2383 25.8477C38.1289 28.2174 38.0742 30.8242 38.0742 33.668C38.0742 35.9648 38.2201 37.888 38.5117 39.4375C38.8216 40.9688 39.2318 42.2083 39.7422 43.1562C40.2708 44.0859 40.8724 44.7513 41.5469 45.1523C42.2396 45.5352 42.9688 45.7266 43.7344 45.7266C44.7188 45.7266 45.6302 45.4258 46.4688 44.8242C47.3255 44.2227 48.0911 43.3841 48.7656 42.3086C49.4583 41.2331 50.069 39.9661 50.5977 38.5078C51.1263 37.0312 51.5729 35.4271 51.9375 33.6953C52.3021 31.9635 52.5755 30.1406 52.7578 28.2266C52.9401 26.3125 53.0312 24.3802 53.0312 22.4297C53.0312 19.8776 52.9219 17.6263 52.7031 15.6758C52.5026 13.707 52.2201 12.0026 51.8555 10.5625C51.5091 9.1224 51.099 7.91927 50.625 6.95312C50.151 5.98698 49.6497 5.21224 49.1211 4.62891C48.6107 4.02734 48.082 3.60807 47.5352 3.37109C46.9883 3.11589 46.4688 2.98828 45.9766 2.98828C45.4479 2.98828 44.9648 3.08854 44.5273 3.28906C44.0898 3.47135 43.6888 3.70833 43.3242 4C42.9779 4.29167 42.6589 4.60156 42.3672 4.92969C42.0938 5.23958 41.8659 5.53125 41.6836 5.80469L40.4258 5.06641C40.6445 4.72005 40.9727 4.28255 41.4102 3.75391C41.8659 3.20703 42.4036 2.6875 43.0234 2.19531C43.6615 1.6849 44.3724 1.25651 45.1562 0.910156C45.9583 0.545573 46.8151 0.363281 47.7266 0.363281C49.0573 0.363281 50.2331 0.809896 51.2539 1.70312C52.293 2.59635 53.1589 3.86328 53.8516 5.50391C54.5625 7.14453 55.1003 9.11328 55.4648 11.4102C55.8294 13.707 56.0117 16.2591 56.0117 19.0664C56.0117 21.3997 55.8932 23.724 55.6562 26.0391C55.4375 28.3359 55.1003 30.5326 54.6445 32.6289C54.1888 34.7253 53.6146 36.6758 52.9219 38.4805C52.2292 40.2852 51.418 41.8529 50.4883 43.1836C49.5586 44.4961 48.5104 45.526 47.3438 46.2734C46.1771 47.0208 44.8828 47.3945 43.4609 47.3945C42.2031 47.3945 41.0365 47.1393 39.9609 46.6289C38.9036 46.1185 37.9648 45.362 37.1445 44.3594C36.3242 43.3385 35.6315 42.0807 35.0664 40.5859C34.5013 39.0729 34.0911 37.332 33.8359 35.3633C33.3073 36.7487 32.6602 38.0885 31.8945 39.3828C31.1289 40.6589 30.2721 41.7891 29.3242 42.7734C28.3763 43.7578 27.3555 44.5417 26.2617 45.125C25.168 45.7083 24.0286 46 22.8438 46C21.75 46 20.6927 45.8268 19.6719 45.4805C18.651 45.1159 17.7396 44.5052 16.9375 43.6484C16.1536 42.7917 15.5247 41.6523 15.0508 40.2305C14.5768 38.7904 14.3398 36.9948 14.3398 34.8438C14.3398 33.1849 14.4948 31.5078 14.8047 29.8125C15.1146 28.099 15.5065 26.3945 15.9805 24.6992C16.4544 23.0039 16.9648 21.3268 17.5117 19.668C18.0586 18.0091 18.569 16.3958 19.043 14.8281C19.5169 13.2604 19.9089 11.7565 20.2188 10.3164C20.5286 8.8763 20.6836 7.51823 20.6836 6.24219C20.6836 4.58333 20.3464 3.38021 19.6719 2.63281C19.0156 1.86719 18.1133 1.48438 16.9648 1.48438C15.6888 1.48438 14.4674 1.77604 13.3008 2.35938C12.1523 2.92448 11.0768 3.6901 10.0742 4.65625C9.08984 5.6224 8.1875 6.74349 7.36719 8.01953C6.5651 9.27734 5.88151 10.6081 5.31641 12.0117C4.7513 13.4154 4.3138 14.8372 4.00391 16.2773C3.69401 17.7174 3.53906 19.0938 3.53906 20.4062C3.53906 24.0339 4.6237 25.8477 6.79297 25.8477C7.48568 25.8477 8.17839 25.638 8.87109 25.2188C9.5638 24.7812 10.2201 24.1797 10.8398 23.4141C11.4596 22.6484 12.0247 21.737 12.5352 20.6797C13.0456 19.6042 13.4831 18.4284 13.8477 17.1523L15.0234 17.7266C14.8411 18.2917 14.6042 18.9206 14.3125 19.6133C14.0391 20.2878 13.7109 20.9805 13.3281 21.6914C12.9453 22.4023 12.5078 23.0951 12.0156 23.7695C11.5234 24.4258 10.9766 25.0182 10.375 25.5469C9.77344 26.0573 9.10807 26.4674 8.37891 26.7773C7.66797 27.0872 6.89323 27.2422 6.05469 27.2422C4.28646 27.2422 2.8737 26.6497 1.81641 25.4648C0.759115 24.2617 0.230469 22.4661 0.230469 20.0781C0.230469 18.4922 0.476562 16.8971 0.96875 15.293C1.44271 13.6888 2.09896 12.1484 2.9375 10.6719C3.77604 9.19531 4.76042 7.8099 5.89062 6.51562C7.02083 5.22135 8.23307 4.10026 9.52734 3.15234C10.8216 2.20443 12.1615 1.45703 13.5469 0.910156C14.9505 0.363281 16.3359 0.0898438 17.7031 0.0898438C18.8333 0.0898438 19.8542 0.235677 20.7656 0.527344C21.6771 0.81901 22.4427 1.27474 23.0625 1.89453C23.7005 2.51432 24.1836 3.29818 24.5117 4.24609C24.8581 5.19401 25.0312 6.32422 25.0312 7.63672C25.0312 8.93099 24.8854 10.3346 24.5938 11.8477C24.3203 13.3607 23.9648 14.9466 23.5273 16.6055C23.1081 18.2461 22.6432 19.9414 22.1328 21.6914C21.6406 23.4232 21.1758 25.1732 20.7383 26.9414C20.319 28.6914 19.9635 30.4323 19.6719 32.1641C19.3984 33.8776 19.2617 35.5365 19.2617 37.1406C19.2617 38.3802 19.362 39.4375 19.5625 40.3125C19.763 41.1875 20.0547 41.8984 20.4375 42.4453C20.8203 42.9922 21.2943 43.3932 21.8594 43.6484C22.4245 43.9036 23.0716 44.0312 23.8008 44.0312ZM60.1133 33.9688L59.8398 34.5156L59.5664 35.0898L58.4453 34.2422L58.7188 33.668C59.1745 32.7383 59.5482 31.8086 59.8398 30.8789C60.1497 29.931 60.3958 29.0469 60.5781 28.2266C60.7786 27.4062 60.9427 26.6862 61.0703 26.0664C61.1979 25.4466 61.3255 25 61.4531 24.7266C61.5625 24.5078 61.7174 24.3346 61.918 24.207C62.1367 24.0612 62.3555 23.9427 62.5742 23.8516C62.8112 23.7604 63.0299 23.6966 63.2305 23.6602C63.4492 23.6237 63.6042 23.6055 63.6953 23.6055C64.0964 23.6055 64.3607 23.6875 64.4883 23.8516C64.6341 24.0156 64.707 24.3073 64.707 24.7266C64.707 24.9271 64.6615 25.4284 64.5703 26.2305C64.4974 27.0143 64.4062 28.0078 64.2969 29.2109C64.2057 30.3958 64.1146 31.7357 64.0234 33.2305C63.9505 34.707 63.9141 36.2383 63.9141 37.8242C63.9141 38.9727 63.9688 39.8841 64.0781 40.5586C64.1875 41.2148 64.3242 41.707 64.4883 42.0352C64.6706 42.3633 64.862 42.5729 65.0625 42.6641C65.2812 42.7552 65.5 42.8008 65.7188 42.8008C66.0104 42.8008 66.3385 42.6732 66.7031 42.418C67.0677 42.1628 67.4961 41.7161 67.9883 41.0781C68.4805 40.4219 69.0456 39.5469 69.6836 38.4531C70.3216 37.3411 71.069 35.9375 71.9258 34.2422L72.2266 33.668L73.3477 34.5156L73.0469 35.0898C72.3542 36.4388 71.6615 37.7695 70.9688 39.082C70.2943 40.3945 69.6016 41.5612 68.8906 42.582C68.1979 43.6029 67.4961 44.4323 66.7852 45.0703C66.0742 45.6901 65.3633 46 64.6523 46C63.9049 46 63.2578 45.8542 62.7109 45.5625C62.1823 45.2526 61.7357 44.7513 61.3711 44.0586C61.0247 43.3659 60.7604 42.4544 60.5781 41.3242C60.4141 40.1758 60.332 38.763 60.332 37.0859C60.332 36.612 60.332 36.1198 60.332 35.6094C60.332 35.0807 60.3503 34.5339 60.3867 33.9688H60.1133ZM65.7188 18C65.7188 18.638 65.5 19.1758 65.0625 19.6133C64.6432 20.0326 64.1146 20.2422 63.4766 20.2422C62.8568 20.2422 62.3281 20.0326 61.8906 19.6133C61.4531 19.1758 61.2344 18.638 61.2344 18C61.2344 17.3802 61.4531 16.8516 61.8906 16.4141C62.3281 15.9766 62.8568 15.7578 63.4766 15.7578C64.1146 15.7578 64.6432 15.9766 65.0625 16.4141C65.5 16.8516 65.7188 17.3802 65.7188 18ZM72.1172 37.0312C72.1172 35.099 72.1901 33.1576 72.3359 31.207C72.4818 29.2565 72.6732 27.2786 72.9102 25.2734H70.4219L70.7227 23.6055H73.1289C73.3841 21.7461 73.6393 19.8867 73.8945 18.0273C74.168 16.1497 74.4141 14.2721 74.6328 12.3945H77.4219C77.3854 12.7956 77.3307 13.3789 77.2578 14.1445C77.2031 14.8919 77.1302 15.7669 77.0391 16.7695C76.9661 17.7539 76.8932 18.8385 76.8203 20.0234C76.7474 21.1901 76.6745 22.3841 76.6016 23.6055H81.9062L81.6328 25.2734H76.4922C76.4193 26.3125 76.3555 27.3333 76.3008 28.3359C76.2461 29.3385 76.1914 30.2956 76.1367 31.207C76.1003 32.1003 76.0729 32.9297 76.0547 33.6953C76.0365 34.4427 76.0273 35.0898 76.0273 35.6367C76.0273 37.0221 76.0638 38.1797 76.1367 39.1094C76.2279 40.0391 76.3555 40.7865 76.5195 41.3516C76.7018 41.9167 76.9206 42.3177 77.1758 42.5547C77.4492 42.7917 77.7591 42.9102 78.1055 42.9102C78.5612 42.9102 79.0625 42.6823 79.6094 42.2266C80.1745 41.7526 80.7578 41.1237 81.3594 40.3398C81.9609 39.556 82.5716 38.6445 83.1914 37.6055C83.8112 36.5482 84.4128 35.4271 84.9961 34.2422L85.2695 33.668L86.3906 34.5156L86.1172 35.0898C85.2786 36.7852 84.4401 38.3073 83.6016 39.6562C82.7812 41.0052 81.9701 42.1536 81.168 43.1016C80.3659 44.0312 79.582 44.7513 78.8164 45.2617C78.0508 45.7539 77.3125 46 76.6016 46C75.8906 46 75.2526 45.8359 74.6875 45.5078C74.1406 45.1797 73.6758 44.6602 73.293 43.9492C72.9102 43.2201 72.6185 42.2904 72.418 41.1602C72.2174 40.0299 72.1172 38.6536 72.1172 37.0312ZM88.9336 36.4844C88.9336 37.3776 88.9062 38.3255 88.8516 39.3281C88.7969 40.3125 88.6784 41.306 88.4961 42.3086C88.332 43.293 88.0859 44.2591 87.7578 45.207C87.4297 46.1367 86.9831 47.0026 86.418 47.8047L84.3398 47.1758C84.7956 45.6445 85.069 44.0404 85.1602 42.3633C85.2513 40.6862 85.2969 39.0091 85.2969 37.332C85.2969 35.5091 85.2422 33.6862 85.1328 31.8633C85.0052 30.0404 84.8685 28.2174 84.7227 26.3945C84.5586 24.5534 84.4219 22.7031 84.3125 20.8438C84.1849 18.9844 84.1211 17.1068 84.1211 15.2109C84.1211 14.0625 84.2487 13.0599 84.5039 12.2031C84.7409 11.3464 85.0599 10.6354 85.4609 10.0703C85.862 9.50521 86.3086 9.08594 86.8008 8.8125C87.293 8.52083 87.7852 8.375 88.2773 8.375C88.9701 8.375 89.5169 8.62109 89.918 9.11328C90.3372 9.60547 90.6471 10.2708 90.8477 11.1094C91.0482 11.9479 91.1484 12.9232 91.1484 14.0352C91.1667 15.1471 91.1211 16.3229 91.0117 17.5625C90.9023 18.8021 90.7474 20.069 90.5469 21.3633C90.3464 22.6576 90.1276 23.9154 89.8906 25.1367C89.6536 26.3581 89.4167 27.4974 89.1797 28.5547C88.9609 29.612 88.7695 30.5143 88.6055 31.2617C88.6055 31.4076 88.6146 31.5625 88.6328 31.7266C88.651 31.8724 88.6602 32.0182 88.6602 32.1641C89.043 31.3073 89.5078 30.3867 90.0547 29.4023C90.6198 28.3997 91.2487 27.4701 91.9414 26.6133C92.6523 25.7565 93.418 25.0456 94.2383 24.4805C95.0768 23.8971 95.9609 23.6055 96.8906 23.6055C98.2578 23.6055 99.2878 24.0612 99.9805 24.9727C100.673 25.8841 101.02 27.1966 101.02 28.9102C101.02 30.0951 100.956 31.2344 100.828 32.3281C100.701 33.4219 100.555 34.4792 100.391 35.5C100.245 36.5026 100.108 37.4779 99.9805 38.4258C99.8529 39.3737 99.7891 40.3125 99.7891 41.2422C99.7891 42.3542 100.072 42.9102 100.637 42.9102C100.91 42.9102 101.257 42.6732 101.676 42.1992C102.113 41.707 102.596 41.0599 103.125 40.2578C103.654 39.4557 104.21 38.5352 104.793 37.4961C105.376 36.457 105.951 35.3724 106.516 34.2422L106.789 33.668L107.91 34.5156L107.637 35.0898C106.999 36.3477 106.333 37.6237 105.641 38.918C104.948 40.2122 104.237 41.388 103.508 42.4453C102.779 43.4844 102.031 44.3411 101.266 45.0156C100.518 45.6719 99.7708 46 99.0234 46C98.6953 46 98.3581 45.9453 98.0117 45.8359C97.6836 45.7266 97.3828 45.5352 97.1094 45.2617C96.8359 44.9883 96.6081 44.6237 96.4258 44.168C96.2435 43.694 96.1523 43.0924 96.1523 42.3633C96.1523 41.6341 96.1888 40.8411 96.2617 39.9844C96.3346 39.1276 96.4167 38.2526 96.5078 37.3594C96.6172 36.4479 96.7357 35.5456 96.8633 34.6523C96.9909 33.7591 97.1003 32.9206 97.1914 32.1367C97.3008 31.3529 97.3919 30.651 97.4648 30.0312C97.5378 29.3932 97.5742 28.8737 97.5742 28.4727C97.5742 27.4336 97.4284 26.6771 97.1367 26.2031C96.8451 25.7292 96.4076 25.4922 95.8242 25.4922C95.0951 25.4922 94.3932 25.8112 93.7188 26.4492C93.0443 27.0872 92.4062 27.8893 91.8047 28.8555C91.2214 29.8034 90.6836 30.8333 90.1914 31.9453C89.6992 33.0391 89.2617 34.0508 88.8789 34.9805C88.8789 35.2539 88.888 35.5273 88.9062 35.8008C88.9245 36.056 88.9336 36.2839 88.9336 36.4844ZM87.1562 13.0781C87.1562 13.8255 87.1836 14.737 87.2383 15.8125C87.3112 16.8698 87.3932 18.0182 87.4844 19.2578C87.5938 20.4974 87.7031 21.7917 87.8125 23.1406C87.9401 24.4896 88.0677 25.8203 88.1953 27.1328C88.3958 26.112 88.5964 24.9909 88.7969 23.7695C88.9974 22.5299 89.1706 21.2904 89.3164 20.0508C89.4805 18.793 89.599 17.5716 89.6719 16.3867C89.763 15.2018 89.7812 14.1536 89.7266 13.2422C89.6901 12.3307 89.5716 11.6016 89.3711 11.0547C89.1706 10.4896 88.8789 10.207 88.4961 10.207C88.1497 10.207 87.8398 10.4167 87.5664 10.8359C87.293 11.2552 87.1562 12.0026 87.1562 13.0781ZM125.574 42.5273C125.902 42.5273 126.276 42.3177 126.695 41.8984C127.133 41.4609 127.598 40.8685 128.09 40.1211C128.582 39.3737 129.102 38.4987 129.648 37.4961C130.195 36.4935 130.76 35.4089 131.344 34.2422L131.617 33.668L132.738 34.5156L132.465 35.0898C131.499 37.0221 130.633 38.681 129.867 40.0664C129.12 41.4336 128.418 42.5638 127.762 43.457C127.105 44.332 126.477 44.9792 125.875 45.3984C125.292 45.7995 124.69 46 124.07 46C123.25 46 122.539 45.7357 121.938 45.207C121.354 44.6602 120.862 43.7578 120.461 42.5C120.078 41.224 119.796 39.5469 119.613 37.4688C119.413 35.3906 119.312 32.8203 119.312 29.7578C119.312 25.4193 119.495 21.7005 119.859 18.6016C120.224 15.4844 120.716 12.9323 121.336 10.9453C121.974 8.9401 122.703 7.47266 123.523 6.54297C124.362 5.59505 125.237 5.12109 126.148 5.12109C126.695 5.12109 127.151 5.34896 127.516 5.80469C127.898 6.24219 128.09 7.04427 128.09 8.21094C128.09 9.1224 128.017 10.1615 127.871 11.3281C127.725 12.4948 127.534 13.7435 127.297 15.0742C127.06 16.4049 126.777 17.7904 126.449 19.2305C126.121 20.6523 125.775 22.0742 125.41 23.4961C125.046 24.8997 124.672 26.2852 124.289 27.6523C123.906 29.0013 123.533 30.2682 123.168 31.4531C123.277 33.6953 123.396 35.5365 123.523 36.9766C123.669 38.3984 123.833 39.5195 124.016 40.3398C124.216 41.1602 124.444 41.7344 124.699 42.0625C124.954 42.3724 125.246 42.5273 125.574 42.5273ZM126.312 8.86719C126.312 8.48438 126.267 8.18359 126.176 7.96484C126.085 7.74609 125.939 7.63672 125.738 7.63672C125.538 7.63672 125.337 7.91927 125.137 8.48438C124.936 9.04948 124.736 9.8151 124.535 10.7812C124.353 11.7474 124.18 12.8685 124.016 14.1445C123.87 15.4206 123.733 16.7786 123.605 18.2188C123.478 19.6406 123.378 21.099 123.305 22.5938C123.232 24.0885 123.186 25.5286 123.168 26.9141C123.605 25.3099 124.007 23.6693 124.371 21.9922C124.754 20.2969 125.091 18.6562 125.383 17.0703C125.674 15.4844 125.902 13.9896 126.066 12.5859C126.23 11.1641 126.312 9.92448 126.312 8.86719ZM154.531 34.5156L154.23 35.0898C153.611 36.3294 152.781 37.3229 151.742 38.0703C150.721 38.7995 149.609 39.2734 148.406 39.4922C148.078 40.4219 147.65 41.2878 147.121 42.0898C146.611 42.8737 146.018 43.5573 145.344 44.1406C144.688 44.724 143.94 45.1797 143.102 45.5078C142.281 45.8359 141.388 46 140.422 46C139.018 46 137.751 45.7083 136.621 45.125C135.509 44.5234 134.561 43.7214 133.777 42.7188C132.993 41.6979 132.392 40.513 131.973 39.1641C131.553 37.7969 131.344 36.3385 131.344 34.7891C131.344 33.4401 131.499 32.2188 131.809 31.125C132.118 30.013 132.51 29.0286 132.984 28.1719C133.458 27.2969 133.987 26.5404 134.57 25.9023C135.154 25.2461 135.728 24.7083 136.293 24.2891C136.858 23.8698 137.368 23.5599 137.824 23.3594C138.298 23.1406 138.654 23.0312 138.891 23.0312L139.246 23.9883C138.499 24.5352 137.833 25.3008 137.25 26.2852C136.74 27.1237 136.275 28.2357 135.855 29.6211C135.454 31.0065 135.254 32.7292 135.254 34.7891C135.254 36.0469 135.372 37.2682 135.609 38.4531C135.846 39.638 136.193 40.6862 136.648 41.5977C137.104 42.5091 137.66 43.2383 138.316 43.7852C138.991 44.332 139.747 44.6055 140.586 44.6055C141.734 44.6055 142.682 44.1497 143.43 43.2383C144.195 42.3086 144.76 41.0417 145.125 39.4375C144.177 39.237 143.275 38.8633 142.418 38.3164C141.561 37.7695 140.805 37.0951 140.148 36.293C139.492 35.4727 138.964 34.5339 138.562 33.4766C138.18 32.4193 137.988 31.2708 137.988 30.0312C137.988 29.0104 138.116 28.1172 138.371 27.3516C138.645 26.5677 139 25.9206 139.438 25.4102C139.875 24.8815 140.376 24.4896 140.941 24.2344C141.525 23.9609 142.135 23.8242 142.773 23.8242C143.521 23.8242 144.286 24.043 145.07 24.4805C145.854 24.8997 146.565 25.5378 147.203 26.3945C147.841 27.2331 148.361 28.2904 148.762 29.5664C149.163 30.8424 149.363 32.3281 149.363 34.0234C149.363 34.6615 149.327 35.2904 149.254 35.9102C149.181 36.5299 149.072 37.1315 148.926 37.7148C149.801 37.4596 150.594 37.0495 151.305 36.4844C152.034 35.9193 152.635 35.1719 153.109 34.2422L153.41 33.668L154.531 34.5156ZM139.793 29.8125C139.793 30.888 139.939 31.8815 140.23 32.793C140.54 33.6862 140.951 34.4792 141.461 35.1719C141.971 35.8464 142.564 36.4115 143.238 36.8672C143.913 37.3229 144.633 37.6419 145.398 37.8242C145.49 37.3138 145.544 36.7852 145.562 36.2383C145.599 35.6732 145.617 35.099 145.617 34.5156C145.617 33.2214 145.517 32.0547 145.316 31.0156C145.116 29.9583 144.852 29.0651 144.523 28.3359C144.195 27.5885 143.812 27.0143 143.375 26.6133C142.938 26.2122 142.491 26.0117 142.035 26.0117C141.415 26.0117 140.887 26.349 140.449 27.0234C140.012 27.6797 139.793 28.6094 139.793 29.8125ZM158.031 25.2734C158.031 25.9844 157.967 26.8867 157.84 27.9805C157.73 29.0742 157.603 30.2956 157.457 31.6445C157.329 32.9753 157.202 34.4062 157.074 35.9375C156.965 37.4688 156.91 39.0273 156.91 40.6133C156.91 41.8893 157.12 42.7734 157.539 43.2656C157.958 43.7396 158.533 43.9766 159.262 43.9766C159.772 43.9766 160.292 43.8398 160.82 43.5664C161.349 43.293 161.85 42.9193 162.324 42.4453C162.816 41.9714 163.272 41.4062 163.691 40.75C164.111 40.0938 164.484 39.3828 164.812 38.6172C163.773 37.9792 162.898 36.9401 162.188 35.5C161.477 34.0417 161.121 32.2005 161.121 29.9766C161.121 28.8646 161.24 27.9258 161.477 27.1602C161.714 26.3763 162.023 25.7383 162.406 25.2461C162.807 24.7539 163.254 24.3984 163.746 24.1797C164.238 23.9427 164.74 23.8242 165.25 23.8242C165.706 23.8242 166.152 23.9154 166.59 24.0977C167.027 24.2799 167.41 24.5807 167.738 25C168.066 25.401 168.331 25.9388 168.531 26.6133C168.732 27.2878 168.832 28.1172 168.832 29.1016C168.832 30.3411 168.677 31.7357 168.367 33.2852C168.076 34.8164 167.638 36.3477 167.055 37.8789C167.146 37.8789 167.237 37.888 167.328 37.9062C167.419 37.9245 167.51 37.9336 167.602 37.9336C168.622 37.9336 169.488 37.6055 170.199 36.9492C170.928 36.2747 171.576 35.3724 172.141 34.2422L172.414 33.668L173.535 34.5156L173.262 35.0898C172.533 36.5117 171.648 37.5781 170.609 38.2891C169.589 38.9818 168.531 39.3281 167.438 39.3281C167.273 39.3281 167.091 39.319 166.891 39.3008C166.708 39.2826 166.572 39.2552 166.48 39.2188C166.061 40.1484 165.569 41.0234 165.004 41.8438C164.439 42.6641 163.81 43.3841 163.117 44.0039C162.443 44.6055 161.695 45.0885 160.875 45.4531C160.073 45.8177 159.216 46 158.305 46C157.557 46 156.865 45.8906 156.227 45.6719C155.589 45.4349 155.023 45.0156 154.531 44.4141C154.057 43.7943 153.684 42.9648 153.41 41.9258C153.137 40.8685 153 39.5195 153 37.8789C153 37.1497 153.018 36.3385 153.055 35.4453C153.091 34.5339 153.146 33.6133 153.219 32.6836C153.273 31.7539 153.346 30.8424 153.438 29.9492C153.51 29.056 153.592 28.2448 153.684 27.5156C153.775 26.7682 153.866 26.1484 153.957 25.6562C154.048 25.1458 154.139 24.8177 154.23 24.6719C154.449 24.2708 154.814 23.9974 155.324 23.8516C155.835 23.6875 156.327 23.6055 156.801 23.6055C157.129 23.6055 157.411 23.724 157.648 23.9609C157.904 24.1979 158.031 24.6354 158.031 25.2734ZM162.625 30.0859C162.625 31.8359 162.88 33.3125 163.391 34.5156C163.919 35.7005 164.576 36.5755 165.359 37.1406C165.76 35.9922 166.07 34.8073 166.289 33.5859C166.526 32.3464 166.645 31.1615 166.645 30.0312C166.645 29.3021 166.581 28.6914 166.453 28.1992C166.344 27.6888 166.198 27.2786 166.016 26.9688C165.833 26.6589 165.615 26.4401 165.359 26.3125C165.122 26.1849 164.885 26.1211 164.648 26.1211C164.393 26.1211 164.147 26.194 163.91 26.3398C163.673 26.4674 163.454 26.6862 163.254 26.9961C163.072 27.306 162.917 27.7161 162.789 28.2266C162.68 28.737 162.625 29.3568 162.625 30.0859ZM180.48 42.9102C181.118 42.9102 181.766 42.7461 182.422 42.418C183.096 42.0898 183.771 41.5794 184.445 40.8867C185.138 40.194 185.849 39.3008 186.578 38.207C187.307 37.0951 188.055 35.7734 188.82 34.2422L189.094 33.668L190.215 34.5156L189.941 35.0898C188.957 37.0404 187.973 38.7083 186.988 40.0938C186.022 41.4792 185.065 42.6094 184.117 43.4844C183.188 44.3594 182.267 44.9974 181.355 45.3984C180.444 45.7995 179.569 46 178.73 46C177.546 46 176.488 45.7539 175.559 45.2617C174.629 44.7695 173.845 44.1042 173.207 43.2656C172.569 42.4089 172.086 41.4245 171.758 40.3125C171.411 39.1823 171.238 37.9974 171.238 36.7578C171.238 34.7891 171.512 33.0026 172.059 31.3984C172.587 29.776 173.298 28.3906 174.191 27.2422C175.103 26.0938 176.133 25.2005 177.281 24.5625C178.43 23.9245 179.624 23.6055 180.863 23.6055C182.121 23.6055 183.078 23.9245 183.734 24.5625C184.409 25.2005 184.746 26.0026 184.746 26.9688C184.746 27.8984 184.482 28.7734 183.953 29.5938C183.424 30.3958 182.704 31.1888 181.793 31.9727C180.9 32.7383 179.861 33.5039 178.676 34.2695C177.491 35.0169 176.242 35.7917 174.93 36.5938C175.057 37.5417 175.276 38.4076 175.586 39.1914C175.896 39.957 176.288 40.6224 176.762 41.1875C177.236 41.7344 177.783 42.1628 178.402 42.4727C179.022 42.7643 179.715 42.9102 180.48 42.9102ZM181.328 27.7891C181.328 27.0599 181.128 26.4857 180.727 26.0664C180.344 25.6471 179.87 25.4375 179.305 25.4375C178.831 25.4375 178.329 25.6107 177.801 25.957C177.272 26.2852 176.789 26.8229 176.352 27.5703C175.914 28.2995 175.549 29.2383 175.258 30.3867C174.966 31.5352 174.82 32.9297 174.82 34.5703V35.1992C175.44 34.8711 176.124 34.4427 176.871 33.9141C177.637 33.3672 178.348 32.7656 179.004 32.1094C179.66 31.4531 180.207 30.7604 180.645 30.0312C181.1 29.2839 181.328 28.5365 181.328 27.7891ZM193.797 39.8477C194.216 39.8477 194.599 39.9388 194.945 40.1211C195.292 40.2852 195.592 40.5221 195.848 40.832C196.103 41.1419 196.294 41.5065 196.422 41.9258C196.568 42.3451 196.641 42.7917 196.641 43.2656C196.641 44.2135 196.431 45.0885 196.012 45.8906C195.592 46.6927 195.137 47.3854 194.645 47.9688C194.061 48.6615 193.405 49.2904 192.676 49.8555L191.883 49.1445C192.047 49.0352 192.238 48.8529 192.457 48.5977C192.694 48.3607 192.904 48.0872 193.086 47.7773C193.286 47.4674 193.451 47.1393 193.578 46.793C193.724 46.4466 193.797 46.1094 193.797 45.7812C193.797 45.5625 193.669 45.3802 193.414 45.2344C193.159 45.0703 192.876 44.8789 192.566 44.6602C192.257 44.4414 191.974 44.168 191.719 43.8398C191.464 43.4935 191.336 43.0195 191.336 42.418C191.336 42.0716 191.4 41.7435 191.527 41.4336C191.655 41.1237 191.828 40.8503 192.047 40.6133C192.284 40.3763 192.548 40.194 192.84 40.0664C193.15 39.9206 193.469 39.8477 193.797 39.8477ZM227.074 0.144531C227.329 0.83724 227.639 1.8763 228.004 3.26172C228.368 4.62891 228.77 6.21484 229.207 8.01953C229.645 9.82422 230.1 11.7839 230.574 13.8984C231.066 16.013 231.549 18.1641 232.023 20.3516C232.516 22.5391 232.99 24.6992 233.445 26.832C233.919 28.9648 234.357 30.9427 234.758 32.7656C235.159 34.5885 235.514 36.2109 235.824 37.6328C236.152 39.0365 236.408 40.112 236.59 40.8594C236.991 39.8385 237.456 38.5807 237.984 37.0859C238.531 35.5911 239.115 33.9596 239.734 32.1914C240.372 30.4049 241.029 28.5182 241.703 26.5312C242.396 24.526 243.089 22.5117 243.781 20.4883C244.492 18.4466 245.203 16.4323 245.914 14.4453C246.625 12.4583 247.309 10.5807 247.965 8.8125C248.621 7.02604 249.241 5.39453 249.824 3.91797C250.426 2.42318 250.964 1.16536 251.438 0.144531L253.68 0.417969C253.352 1.56641 253.023 2.90625 252.695 4.4375C252.367 5.95052 252.048 7.60026 251.738 9.38672C251.447 11.1549 251.164 13.0234 250.891 14.9922C250.617 16.9427 250.38 18.9115 250.18 20.8984C249.979 22.8854 249.815 24.8542 249.688 26.8047C249.578 28.7552 249.523 30.6146 249.523 32.3828C249.523 35.8281 249.77 38.444 250.262 40.2305C250.754 42.0169 251.52 42.9102 252.559 42.9102C253.014 42.9102 253.452 42.7279 253.871 42.3633C254.309 41.9987 254.764 41.4518 255.238 40.7227C255.73 39.9935 256.25 39.0911 256.797 38.0156C257.362 36.9219 258 35.6641 258.711 34.2422L258.984 33.668L260.105 34.5156L259.832 35.0898C258.921 36.9128 258.1 38.5078 257.371 39.875C256.66 41.224 255.967 42.3542 255.293 43.2656C254.637 44.1771 253.971 44.8607 253.297 45.3164C252.641 45.7721 251.921 46 251.137 46C250.043 46 249.132 45.7357 248.402 45.207C247.673 44.6602 247.081 43.8945 246.625 42.9102C246.188 41.9076 245.868 40.6953 245.668 39.2734C245.486 37.8516 245.395 36.2474 245.395 34.4609C245.395 32.5104 245.495 30.4688 245.695 28.3359C245.896 26.1849 246.133 24.0977 246.406 22.0742C246.698 20.0508 246.99 18.1823 247.281 16.4688C247.591 14.737 247.855 13.306 248.074 12.1758L235.742 47.3945L233.5 46.8477C233.5 46.4648 233.382 45.6536 233.145 44.4141C232.908 43.1562 232.598 41.6432 232.215 39.875C231.832 38.0885 231.395 36.1289 230.902 33.9961C230.428 31.8451 229.936 29.6849 229.426 27.5156C228.241 22.4115 226.892 16.7422 225.379 10.5078C225.434 11.8203 225.497 13.1419 225.57 14.4727C225.625 15.6211 225.671 16.8516 225.707 18.1641C225.762 19.4583 225.789 20.6706 225.789 21.8008C225.789 25.1003 225.598 28.026 225.215 30.5781C224.85 33.1302 224.349 35.3542 223.711 37.25C223.073 39.1276 222.326 40.7135 221.469 42.0078C220.612 43.3021 219.701 44.3411 218.734 45.125C217.768 45.9089 216.775 46.474 215.754 46.8203C214.751 47.1667 213.767 47.3398 212.801 47.3398C211.835 47.3398 210.932 47.1758 210.094 46.8477C209.237 46.5378 208.499 46.1003 207.879 45.5352C207.241 44.9518 206.74 44.2773 206.375 43.5117C205.992 42.7279 205.801 41.8802 205.801 40.9688C205.801 39.8932 205.983 38.8633 206.348 37.8789C206.694 36.8945 207.186 35.974 207.824 35.1172C208.444 34.2422 209.182 33.431 210.039 32.6836C210.896 31.9362 211.816 31.2435 212.801 30.6055L213.621 31.4531C212.928 31.9453 212.29 32.5013 211.707 33.1211C211.124 33.7227 210.622 34.3789 210.203 35.0898C209.784 35.7826 209.456 36.5117 209.219 37.2773C208.982 38.0247 208.863 38.7812 208.863 39.5469C208.863 40.2578 208.982 40.9232 209.219 41.543C209.438 42.1628 209.766 42.7096 210.203 43.1836C210.622 43.6576 211.133 44.0312 211.734 44.3047C212.318 44.5781 212.983 44.7148 213.73 44.7148C214.496 44.7148 215.289 44.5599 216.109 44.25C216.93 43.9219 217.723 43.3932 218.488 42.6641C219.272 41.9167 220.01 40.9414 220.703 39.7383C221.414 38.5169 222.025 37.0221 222.535 35.2539C223.064 33.4674 223.483 31.3802 223.793 28.9922C224.103 26.6042 224.258 23.8516 224.258 20.7344C224.258 19.8411 224.23 18.793 224.176 17.5898C224.139 16.3867 224.076 15.1289 223.984 13.8164C223.911 12.5039 223.82 11.1914 223.711 9.87891C223.602 8.54818 223.483 7.31771 223.355 6.1875C223.246 5.03906 223.118 4.03646 222.973 3.17969C222.845 2.30469 222.717 1.66667 222.59 1.26562L227.074 0.144531ZM260.379 33.9688L260.105 34.5156L259.832 35.0898L258.711 34.2422L258.984 33.668C259.44 32.7383 259.814 31.8086 260.105 30.8789C260.415 29.931 260.661 29.0469 260.844 28.2266C261.044 27.4062 261.208 26.6862 261.336 26.0664C261.464 25.4466 261.591 25 261.719 24.7266C261.828 24.5078 261.983 24.3346 262.184 24.207C262.402 24.0612 262.621 23.9427 262.84 23.8516C263.077 23.7604 263.296 23.6966 263.496 23.6602C263.715 23.6237 263.87 23.6055 263.961 23.6055C264.362 23.6055 264.626 23.6875 264.754 23.8516C264.9 24.0156 264.973 24.3073 264.973 24.7266C264.973 24.9271 264.927 25.4284 264.836 26.2305C264.763 27.0143 264.672 28.0078 264.562 29.2109C264.471 30.3958 264.38 31.7357 264.289 33.2305C264.216 34.707 264.18 36.2383 264.18 37.8242C264.18 38.9727 264.234 39.8841 264.344 40.5586C264.453 41.2148 264.59 41.707 264.754 42.0352C264.936 42.3633 265.128 42.5729 265.328 42.6641C265.547 42.7552 265.766 42.8008 265.984 42.8008C266.276 42.8008 266.604 42.6732 266.969 42.418C267.333 42.1628 267.762 41.7161 268.254 41.0781C268.746 40.4219 269.311 39.5469 269.949 38.4531C270.587 37.3411 271.335 35.9375 272.191 34.2422L272.492 33.668L273.613 34.5156L273.312 35.0898C272.62 36.4388 271.927 37.7695 271.234 39.082C270.56 40.3945 269.867 41.5612 269.156 42.582C268.464 43.6029 267.762 44.4323 267.051 45.0703C266.34 45.6901 265.629 46 264.918 46C264.171 46 263.523 45.8542 262.977 45.5625C262.448 45.2526 262.001 44.7513 261.637 44.0586C261.29 43.3659 261.026 42.4544 260.844 41.3242C260.68 40.1758 260.598 38.763 260.598 37.0859C260.598 36.612 260.598 36.1198 260.598 35.6094C260.598 35.0807 260.616 34.5339 260.652 33.9688H260.379ZM265.984 18C265.984 18.638 265.766 19.1758 265.328 19.6133C264.909 20.0326 264.38 20.2422 263.742 20.2422C263.122 20.2422 262.594 20.0326 262.156 19.6133C261.719 19.1758 261.5 18.638 261.5 18C261.5 17.3802 261.719 16.8516 262.156 16.4141C262.594 15.9766 263.122 15.7578 263.742 15.7578C264.38 15.7578 264.909 15.9766 265.328 16.4141C265.766 16.8516 265.984 17.3802 265.984 18ZM289.062 39.2188C289.062 40.2578 289.154 41.1328 289.336 41.8438C289.518 42.5547 289.837 42.9102 290.293 42.9102C290.566 42.9102 290.858 42.7826 291.168 42.5273C291.496 42.2539 291.87 41.8164 292.289 41.2148C292.708 40.6133 293.182 39.8385 293.711 38.8906C294.258 37.9245 294.878 36.7487 295.57 35.3633L296.391 33.668L297.512 34.5156L296.691 36.2109C295.926 37.7422 295.206 39.1185 294.531 40.3398C293.875 41.543 293.246 42.5638 292.645 43.4023C292.043 44.2409 291.451 44.888 290.867 45.3438C290.302 45.7812 289.737 46 289.172 46C288.57 46 288.06 45.8359 287.641 45.5078C287.24 45.1797 286.902 44.7331 286.629 44.168C286.355 43.5846 286.146 42.9193 286 42.1719C285.854 41.4062 285.754 40.5951 285.699 39.7383C285.262 40.6133 284.779 41.4336 284.25 42.1992C283.721 42.9466 283.165 43.6029 282.582 44.168C282.017 44.7331 281.424 45.1797 280.805 45.5078C280.185 45.8359 279.565 46 278.945 46C278.034 46 277.15 45.8086 276.293 45.4258C275.436 45.043 274.671 44.4596 273.996 43.6758C273.34 42.8919 272.811 41.9076 272.41 40.7227C272.009 39.5195 271.809 38.1068 271.809 36.4844C271.809 34.5885 272.055 32.8568 272.547 31.2891C273.039 29.7031 273.704 28.3451 274.543 27.2148C275.382 26.0664 276.348 25.1823 277.441 24.5625C278.535 23.9245 279.684 23.6055 280.887 23.6055C281.616 23.6055 282.29 23.7695 282.91 24.0977C283.53 24.4258 284.068 24.8268 284.523 25.3008C284.997 25.7565 285.389 26.2487 285.699 26.7773C286.009 27.2878 286.219 27.7253 286.328 28.0898L286.656 25.4375C286.693 25.0911 286.857 24.7995 287.148 24.5625C287.458 24.3255 287.796 24.1432 288.16 24.0156C288.525 23.8698 288.88 23.7695 289.227 23.7148C289.573 23.6419 289.819 23.6055 289.965 23.6055C290.184 23.6055 290.329 23.6419 290.402 23.7148C290.475 23.7878 290.512 23.9336 290.512 24.1523C290.512 24.4258 290.43 24.9818 290.266 25.8203C290.12 26.6406 289.956 27.6979 289.773 28.9922C289.609 30.2682 289.445 31.7721 289.281 33.5039C289.135 35.2357 289.062 37.1406 289.062 39.2188ZM286.055 32C286.055 31.1615 285.927 30.3411 285.672 29.5391C285.417 28.7188 285.07 27.9987 284.633 27.3789C284.195 26.7409 283.685 26.2305 283.102 25.8477C282.536 25.4648 281.935 25.2734 281.297 25.2734C280.513 25.2734 279.775 25.5013 279.082 25.957C278.408 26.3945 277.815 27.0234 277.305 27.8438C276.812 28.6458 276.421 29.6211 276.129 30.7695C275.837 31.8997 275.691 33.1484 275.691 34.5156C275.691 37.25 276.12 39.3372 276.977 40.7773C277.833 42.1992 278.973 42.9102 280.395 42.9102C281.014 42.9102 281.652 42.6641 282.309 42.1719C282.983 41.6615 283.594 40.9414 284.141 40.0117C284.706 39.0638 285.161 37.9154 285.508 36.5664C285.872 35.2174 286.055 33.6953 286.055 32ZM305.305 25.5469C304.776 25.5469 304.266 25.7383 303.773 26.1211C303.299 26.4857 302.844 26.9961 302.406 27.6523C301.969 28.2904 301.54 29.0469 301.121 29.9219C300.72 30.7786 300.319 31.6992 299.918 32.6836V33.0117C299.863 34.6159 299.809 36.3203 299.754 38.125C299.717 39.9297 299.699 41.8984 299.699 44.0312C299.699 44.3958 299.572 44.7057 299.316 44.9609C299.079 45.1979 298.797 45.3984 298.469 45.5625C298.141 45.7083 297.803 45.8177 297.457 45.8906C297.111 45.9635 296.828 46 296.609 46C296.336 46 296.081 45.918 295.844 45.7539C295.607 45.5898 295.488 45.2253 295.488 44.6602C295.488 44.3867 295.516 44.0495 295.57 43.6484C295.625 43.2292 295.698 42.7826 295.789 42.3086C295.862 41.8346 295.953 41.3516 296.062 40.8594C296.154 40.349 296.245 39.875 296.336 39.4375C296.336 37.888 296.336 36.4935 296.336 35.2539C296.318 34.0143 296.309 32.9115 296.309 31.9453C296.309 30.9792 296.309 30.1315 296.309 29.4023C296.29 28.6732 296.281 28.0443 296.281 27.5156C296.281 26.6406 296.299 26.0026 296.336 25.6016C296.354 25.1823 296.391 24.8906 296.445 24.7266C296.536 24.4714 296.701 24.2708 296.938 24.125C297.193 23.9792 297.457 23.8698 297.73 23.7969C298.004 23.7057 298.277 23.651 298.551 23.6328C298.824 23.6146 299.034 23.6055 299.18 23.6055C299.526 23.6055 299.754 23.7057 299.863 23.9062C299.973 24.1068 300.027 24.4167 300.027 24.8359C300.027 25.7839 300.027 26.6406 300.027 27.4062C300.027 28.1719 300.009 28.9375 299.973 29.7031C300.319 28.8828 300.72 28.1081 301.176 27.3789C301.65 26.6315 302.169 25.9844 302.734 25.4375C303.299 24.8724 303.892 24.4258 304.512 24.0977C305.15 23.7695 305.806 23.6055 306.48 23.6055C307.301 23.6055 307.975 23.7786 308.504 24.125C309.051 24.4531 309.479 24.918 309.789 25.5195C310.117 26.1211 310.354 26.832 310.5 27.6523C310.664 28.4544 310.773 29.3294 310.828 30.2773C311.339 29.3477 311.885 28.4818 312.469 27.6797C313.07 26.8594 313.699 26.1484 314.355 25.5469C315.03 24.9453 315.732 24.4714 316.461 24.125C317.208 23.7786 317.983 23.6055 318.785 23.6055C320.171 23.6055 321.182 24.043 321.82 24.918C322.458 25.7747 322.777 26.9414 322.777 28.418C322.777 29.3477 322.704 30.3867 322.559 31.5352C322.413 32.6836 322.258 33.8503 322.094 35.0352C321.93 36.2018 321.775 37.3503 321.629 38.4805C321.483 39.6107 321.41 40.6406 321.41 41.5703C321.41 42.7005 321.693 43.2656 322.258 43.2656C322.549 43.2656 322.868 43.0924 323.215 42.7461C323.561 42.3815 323.953 41.8346 324.391 41.1055C324.846 40.3581 325.366 39.4193 325.949 38.2891C326.551 37.1589 327.243 35.8099 328.027 34.2422L328.301 33.668L329.422 34.5156L329.148 35.0898C328.073 37.2409 327.152 39.0182 326.387 40.4219C325.639 41.8255 324.965 42.9466 324.363 43.7852C323.762 44.6055 323.188 45.1797 322.641 45.5078C322.112 45.8359 321.52 46 320.863 46C320.48 46 320.107 45.9453 319.742 45.8359C319.378 45.7266 319.059 45.5352 318.785 45.2617C318.512 44.9883 318.293 44.6237 318.129 44.168C317.965 43.694 317.883 43.0924 317.883 42.3633C317.883 41.2695 317.956 40.0391 318.102 38.6719C318.247 37.3047 318.411 35.9375 318.594 34.5703C318.776 33.2031 318.94 31.918 319.086 30.7148C319.232 29.4935 319.305 28.5 319.305 27.7344C319.305 27.0599 319.159 26.5221 318.867 26.1211C318.576 25.7018 318.138 25.4922 317.555 25.4922C316.971 25.4922 316.361 25.7201 315.723 26.1758C315.103 26.6315 314.492 27.224 313.891 27.9531C313.307 28.6641 312.751 29.4661 312.223 30.3594C311.712 31.2526 311.266 32.1367 310.883 33.0117C310.883 34.9258 310.865 36.6029 310.828 38.043C310.792 39.4648 310.737 40.668 310.664 41.6523C310.609 42.6367 310.527 43.4206 310.418 44.0039C310.309 44.569 310.19 44.9518 310.062 45.1523C309.971 45.2799 309.816 45.3984 309.598 45.5078C309.379 45.6172 309.133 45.7083 308.859 45.7812C308.604 45.8542 308.349 45.9089 308.094 45.9453C307.857 45.9818 307.674 46 307.547 46C307.255 46 307 45.918 306.781 45.7539C306.581 45.5716 306.48 45.2253 306.48 44.7148C306.48 44.4779 306.499 44.1589 306.535 43.7578C306.59 43.3568 306.654 42.9102 306.727 42.418C306.799 41.9258 306.882 41.3971 306.973 40.832C307.064 40.2669 307.155 39.6927 307.246 39.1094C307.264 38.5625 307.283 37.9518 307.301 37.2773C307.319 36.6029 307.337 35.9375 307.355 35.2812C307.374 34.6068 307.383 33.9688 307.383 33.3672C307.401 32.7474 307.41 32.2188 307.41 31.7812C307.41 30.8516 307.383 30.0039 307.328 29.2383C307.273 28.4727 307.164 27.8164 307 27.2695C306.854 26.7227 306.645 26.3034 306.371 26.0117C306.098 25.7018 305.742 25.5469 305.305 25.5469ZM329.723 33.9688L329.449 34.5156L329.176 35.0898L328.055 34.2422L328.328 33.668C328.784 32.7383 329.158 31.8086 329.449 30.8789C329.759 29.931 330.005 29.0469 330.188 28.2266C330.388 27.4062 330.552 26.6862 330.68 26.0664C330.807 25.4466 330.935 25 331.062 24.7266C331.172 24.5078 331.327 24.3346 331.527 24.207C331.746 24.0612 331.965 23.9427 332.184 23.8516C332.421 23.7604 332.639 23.6966 332.84 23.6602C333.059 23.6237 333.214 23.6055 333.305 23.6055C333.706 23.6055 333.97 23.6875 334.098 23.8516C334.243 24.0156 334.316 24.3073 334.316 24.7266C334.316 24.9271 334.271 25.4284 334.18 26.2305C334.107 27.0143 334.016 28.0078 333.906 29.2109C333.815 30.3958 333.724 31.7357 333.633 33.2305C333.56 34.707 333.523 36.2383 333.523 37.8242C333.523 38.9727 333.578 39.8841 333.688 40.5586C333.797 41.2148 333.934 41.707 334.098 42.0352C334.28 42.3633 334.471 42.5729 334.672 42.6641C334.891 42.7552 335.109 42.8008 335.328 42.8008C335.62 42.8008 335.948 42.6732 336.312 42.418C336.677 42.1628 337.105 41.7161 337.598 41.0781C338.09 40.4219 338.655 39.5469 339.293 38.4531C339.931 37.3411 340.678 35.9375 341.535 34.2422L341.836 33.668L342.957 34.5156L342.656 35.0898C341.964 36.4388 341.271 37.7695 340.578 39.082C339.904 40.3945 339.211 41.5612 338.5 42.582C337.807 43.6029 337.105 44.4323 336.395 45.0703C335.684 45.6901 334.973 46 334.262 46C333.514 46 332.867 45.8542 332.32 45.5625C331.792 45.2526 331.345 44.7513 330.98 44.0586C330.634 43.3659 330.37 42.4544 330.188 41.3242C330.023 40.1758 329.941 38.763 329.941 37.0859C329.941 36.612 329.941 36.1198 329.941 35.6094C329.941 35.0807 329.96 34.5339 329.996 33.9688H329.723ZM335.328 18C335.328 18.638 335.109 19.1758 334.672 19.6133C334.253 20.0326 333.724 20.2422 333.086 20.2422C332.466 20.2422 331.938 20.0326 331.5 19.6133C331.062 19.1758 330.844 18.638 330.844 18C330.844 17.3802 331.062 16.8516 331.5 16.4141C331.938 15.9766 332.466 15.7578 333.086 15.7578C333.724 15.7578 334.253 15.9766 334.672 16.4141C335.109 16.8516 335.328 17.3802 335.328 18ZM379.598 13.5156C379.598 15.375 379.698 17.1888 379.898 18.957C380.099 20.707 380.318 22.457 380.555 24.207C380.81 25.957 381.038 27.7344 381.238 29.5391C381.457 31.3438 381.566 33.2305 381.566 35.1992C381.566 37.0404 381.32 38.7174 380.828 40.2305C380.336 41.7253 379.552 43.0104 378.477 44.0859C377.401 45.1432 376.016 45.9544 374.32 46.5195C372.643 47.1029 370.62 47.3945 368.25 47.3945C366.682 47.3945 365.188 47.1758 363.766 46.7383C362.344 46.3008 361.095 45.6901 360.02 44.9062C358.944 44.1224 358.087 43.1836 357.449 42.0898C356.811 40.9961 356.492 39.7839 356.492 38.4531C356.492 37.4688 356.647 36.5846 356.957 35.8008C357.285 35.0169 357.695 34.3242 358.188 33.7227C358.698 33.1029 359.254 32.5742 359.855 32.1367C360.475 31.6992 361.077 31.3346 361.66 31.043C362.243 30.7513 362.772 30.5234 363.246 30.3594C363.72 30.1953 364.076 30.0859 364.312 30.0312L364.887 31.1523C364.467 31.3711 363.993 31.6719 363.465 32.0547C362.954 32.4193 362.471 32.8932 362.016 33.4766C361.56 34.0417 361.177 34.7344 360.867 35.5547C360.557 36.375 360.402 37.3411 360.402 38.4531C360.402 39.638 360.603 40.7044 361.004 41.6523C361.405 42.582 361.961 43.375 362.672 44.0312C363.401 44.6693 364.258 45.1615 365.242 45.5078C366.245 45.8359 367.339 46 368.523 46C369.745 46 370.902 45.8542 371.996 45.5625C373.108 45.2526 374.083 44.7422 374.922 44.0312C375.76 43.3203 376.426 42.3815 376.918 41.2148C377.41 40.0482 377.656 38.599 377.656 36.8672C377.656 35.1354 377.556 33.4036 377.355 31.6719C377.173 29.9219 376.973 28.1719 376.754 26.4219C376.535 24.6536 376.326 22.8854 376.125 21.1172C375.943 19.3307 375.852 17.526 375.852 15.7031C375.852 14.1172 375.934 12.668 376.098 11.3555C376.28 10.0247 376.553 8.76693 376.918 7.58203C375.478 7.36328 374.001 7.10807 372.488 6.81641C370.975 6.50651 369.49 6.21484 368.031 5.94141C366.591 5.66797 365.215 5.4401 363.902 5.25781C362.608 5.05729 361.441 4.95703 360.402 4.95703C358.999 4.95703 357.832 5.07552 356.902 5.3125C355.973 5.53125 355.225 5.83203 354.66 6.21484C354.095 6.59766 353.703 7.04427 353.484 7.55469C353.247 8.04688 353.129 8.57552 353.129 9.14062C353.129 9.70573 353.266 10.2253 353.539 10.6992C353.794 11.1732 354.168 11.5924 354.66 11.957C355.152 12.3034 355.736 12.5768 356.41 12.7773C357.103 12.9779 357.868 13.0781 358.707 13.0781C359.637 13.0781 360.457 12.9779 361.168 12.7773C361.897 12.5586 362.517 12.3216 363.027 12.0664C363.629 11.7747 364.158 11.4375 364.613 11.0547L365.16 12.2305C364.595 12.6497 363.975 13.0234 363.301 13.3516C362.717 13.6432 362.034 13.9076 361.25 14.1445C360.484 14.3633 359.637 14.4727 358.707 14.4727C357.486 14.4727 356.401 14.3086 355.453 13.9805C354.523 13.6523 353.74 13.2148 353.102 12.668C352.464 12.1029 351.98 11.4466 351.652 10.6992C351.324 9.95182 351.16 9.15885 351.16 8.32031C351.16 7.42708 351.315 6.5612 351.625 5.72266C351.917 4.88411 352.418 4.13672 353.129 3.48047C353.822 2.82422 354.742 2.30469 355.891 1.92188C357.039 1.52083 358.452 1.32031 360.129 1.32031C361.678 1.32031 363.228 1.44792 364.777 1.70312C366.345 1.9401 367.885 2.24089 369.398 2.60547C370.93 2.95182 372.415 3.33464 373.855 3.75391C375.314 4.15495 376.708 4.51953 378.039 4.84766C378.823 3.40755 379.798 2.25911 380.965 1.40234C382.132 0.527344 383.398 0.0898438 384.766 0.0898438C385.349 0.0898438 385.868 0.190104 386.324 0.390625C386.78 0.572917 387.163 0.81901 387.473 1.12891C387.783 1.4388 388.01 1.80339 388.156 2.22266C388.32 2.6237 388.402 3.05208 388.402 3.50781C388.402 4.27344 388.22 4.9388 387.855 5.50391C387.509 6.05078 387.026 6.51562 386.406 6.89844C385.786 7.26302 385.057 7.53646 384.219 7.71875C383.38 7.88281 382.478 7.96484 381.512 7.96484C381.293 7.96484 381.065 7.96484 380.828 7.96484C380.609 7.96484 380.391 7.94661 380.172 7.91016C380.008 8.52995 379.871 9.33203 379.762 10.3164C379.652 11.3008 379.598 12.3672 379.598 13.5156ZM384.766 1.59375C383.945 1.59375 383.189 1.89453 382.496 2.49609C381.803 3.07943 381.229 4.08203 380.773 5.50391C381.339 5.59505 381.885 5.66797 382.414 5.72266C382.943 5.77734 383.444 5.80469 383.918 5.80469C384.41 5.80469 384.829 5.74089 385.176 5.61328C385.54 5.46745 385.832 5.28516 386.051 5.06641C386.27 4.84766 386.434 4.60156 386.543 4.32812C386.652 4.05469 386.707 3.78125 386.707 3.50781C386.707 2.97917 386.525 2.53255 386.16 2.16797C385.796 1.78516 385.331 1.59375 384.766 1.59375ZM395.348 42.9102C395.986 42.9102 396.633 42.7461 397.289 42.418C397.964 42.0898 398.638 41.5794 399.312 40.8867C400.005 40.194 400.716 39.3008 401.445 38.207C402.174 37.0951 402.922 35.7734 403.688 34.2422L403.961 33.668L405.082 34.5156L404.809 35.0898C403.824 37.0404 402.84 38.7083 401.855 40.0938C400.889 41.4792 399.932 42.6094 398.984 43.4844C398.055 44.3594 397.134 44.9974 396.223 45.3984C395.311 45.7995 394.436 46 393.598 46C392.413 46 391.355 45.7539 390.426 45.2617C389.496 44.7695 388.712 44.1042 388.074 43.2656C387.436 42.4089 386.953 41.4245 386.625 40.3125C386.279 39.1823 386.105 37.9974 386.105 36.7578C386.105 34.7891 386.379 33.0026 386.926 31.3984C387.454 29.776 388.165 28.3906 389.059 27.2422C389.97 26.0938 391 25.2005 392.148 24.5625C393.297 23.9245 394.491 23.6055 395.73 23.6055C396.988 23.6055 397.945 23.9245 398.602 24.5625C399.276 25.2005 399.613 26.0026 399.613 26.9688C399.613 27.8984 399.349 28.7734 398.82 29.5938C398.292 30.3958 397.572 31.1888 396.66 31.9727C395.767 32.7383 394.728 33.5039 393.543 34.2695C392.358 35.0169 391.109 35.7917 389.797 36.5938C389.924 37.5417 390.143 38.4076 390.453 39.1914C390.763 39.957 391.155 40.6224 391.629 41.1875C392.103 41.7344 392.65 42.1628 393.27 42.4727C393.889 42.7643 394.582 42.9102 395.348 42.9102ZM396.195 27.7891C396.195 27.0599 395.995 26.4857 395.594 26.0664C395.211 25.6471 394.737 25.4375 394.172 25.4375C393.698 25.4375 393.197 25.6107 392.668 25.957C392.139 26.2852 391.656 26.8229 391.219 27.5703C390.781 28.2995 390.417 29.2383 390.125 30.3867C389.833 31.5352 389.688 32.9297 389.688 34.5703V35.1992C390.307 34.8711 390.991 34.4427 391.738 33.9141C392.504 33.3672 393.215 32.7656 393.871 32.1094C394.527 31.4531 395.074 30.7604 395.512 30.0312C395.967 29.2839 396.195 28.5365 396.195 27.7891ZM420.531 39.2188C420.531 40.2578 420.622 41.1328 420.805 41.8438C420.987 42.5547 421.306 42.9102 421.762 42.9102C422.035 42.9102 422.327 42.7826 422.637 42.5273C422.965 42.2539 423.339 41.8164 423.758 41.2148C424.177 40.6133 424.651 39.8385 425.18 38.8906C425.727 37.9245 426.346 36.7487 427.039 35.3633L427.859 33.668L428.98 34.5156L428.16 36.2109C427.395 37.7422 426.674 39.1185 426 40.3398C425.344 41.543 424.715 42.5638 424.113 43.4023C423.512 44.2409 422.919 44.888 422.336 45.3438C421.771 45.7812 421.206 46 420.641 46C420.039 46 419.529 45.8359 419.109 45.5078C418.708 45.1797 418.371 44.7331 418.098 44.168C417.824 43.5846 417.615 42.9193 417.469 42.1719C417.323 41.4062 417.223 40.5951 417.168 39.7383C416.73 40.6133 416.247 41.4336 415.719 42.1992C415.19 42.9466 414.634 43.6029 414.051 44.168C413.486 44.7331 412.893 45.1797 412.273 45.5078C411.654 45.8359 411.034 46 410.414 46C409.503 46 408.618 45.8086 407.762 45.4258C406.905 45.043 406.139 44.4596 405.465 43.6758C404.809 42.8919 404.28 41.9076 403.879 40.7227C403.478 39.5195 403.277 38.1068 403.277 36.4844C403.277 34.5885 403.523 32.8568 404.016 31.2891C404.508 29.7031 405.173 28.3451 406.012 27.2148C406.85 26.0664 407.816 25.1823 408.91 24.5625C410.004 23.9245 411.152 23.6055 412.355 23.6055C413.085 23.6055 413.759 23.7695 414.379 24.0977C414.999 24.4258 415.536 24.8268 415.992 25.3008C416.466 25.7565 416.858 26.2487 417.168 26.7773C417.478 27.2878 417.688 27.7253 417.797 28.0898L418.125 25.4375C418.161 25.0911 418.326 24.7995 418.617 24.5625C418.927 24.3255 419.264 24.1432 419.629 24.0156C419.993 23.8698 420.349 23.7695 420.695 23.7148C421.042 23.6419 421.288 23.6055 421.434 23.6055C421.652 23.6055 421.798 23.6419 421.871 23.7148C421.944 23.7878 421.98 23.9336 421.98 24.1523C421.98 24.4258 421.898 24.9818 421.734 25.8203C421.589 26.6406 421.424 27.6979 421.242 28.9922C421.078 30.2682 420.914 31.7721 420.75 33.5039C420.604 35.2357 420.531 37.1406 420.531 39.2188ZM417.523 32C417.523 31.1615 417.396 30.3411 417.141 29.5391C416.885 28.7188 416.539 27.9987 416.102 27.3789C415.664 26.7409 415.154 26.2305 414.57 25.8477C414.005 25.4648 413.404 25.2734 412.766 25.2734C411.982 25.2734 411.243 25.5013 410.551 25.957C409.876 26.3945 409.284 27.0234 408.773 27.8438C408.281 28.6458 407.889 29.6211 407.598 30.7695C407.306 31.8997 407.16 33.1484 407.16 34.5156C407.16 37.25 407.589 39.3372 408.445 40.7773C409.302 42.1992 410.441 42.9102 411.863 42.9102C412.483 42.9102 413.121 42.6641 413.777 42.1719C414.452 41.6615 415.062 40.9414 415.609 40.0117C416.174 39.0638 416.63 37.9154 416.977 36.5664C417.341 35.2174 417.523 33.6953 417.523 32ZM436.773 25.5469C436.245 25.5469 435.734 25.7383 435.242 26.1211C434.768 26.4857 434.312 26.9961 433.875 27.6523C433.438 28.2904 433.009 29.0469 432.59 29.9219C432.189 30.7786 431.788 31.6992 431.387 32.6836V33.0117C431.332 34.6159 431.277 36.3203 431.223 38.125C431.186 39.9297 431.168 41.8984 431.168 44.0312C431.168 44.3958 431.04 44.7057 430.785 44.9609C430.548 45.1979 430.266 45.3984 429.938 45.5625C429.609 45.7083 429.272 45.8177 428.926 45.8906C428.579 45.9635 428.297 46 428.078 46C427.805 46 427.549 45.918 427.312 45.7539C427.076 45.5898 426.957 45.2253 426.957 44.6602C426.957 44.3867 426.984 44.0495 427.039 43.6484C427.094 43.2292 427.167 42.7826 427.258 42.3086C427.331 41.8346 427.422 41.3516 427.531 40.8594C427.622 40.349 427.714 39.875 427.805 39.4375C427.805 37.888 427.805 36.4935 427.805 35.2539C427.786 34.0143 427.777 32.9115 427.777 31.9453C427.777 30.9792 427.777 30.1315 427.777 29.4023C427.759 28.6732 427.75 28.0443 427.75 27.5156C427.75 26.6406 427.768 26.0026 427.805 25.6016C427.823 25.1823 427.859 24.8906 427.914 24.7266C428.005 24.4714 428.169 24.2708 428.406 24.125C428.661 23.9792 428.926 23.8698 429.199 23.7969C429.473 23.7057 429.746 23.651 430.02 23.6328C430.293 23.6146 430.503 23.6055 430.648 23.6055C430.995 23.6055 431.223 23.7057 431.332 23.9062C431.441 24.1068 431.496 24.4167 431.496 24.8359C431.496 25.7839 431.496 26.6406 431.496 27.4062C431.496 28.1719 431.478 28.9375 431.441 29.7031C431.788 28.8828 432.189 28.1081 432.645 27.3789C433.118 26.6315 433.638 25.9844 434.203 25.4375C434.768 24.8724 435.361 24.4258 435.98 24.0977C436.618 23.7695 437.275 23.6055 437.949 23.6055C438.77 23.6055 439.444 23.7786 439.973 24.125C440.52 24.4531 440.948 24.918 441.258 25.5195C441.586 26.1211 441.823 26.832 441.969 27.6523C442.133 28.4544 442.242 29.3294 442.297 30.2773C442.807 29.3477 443.354 28.4818 443.938 27.6797C444.539 26.8594 445.168 26.1484 445.824 25.5469C446.499 24.9453 447.201 24.4714 447.93 24.125C448.677 23.7786 449.452 23.6055 450.254 23.6055C451.639 23.6055 452.651 24.043 453.289 24.918C453.927 25.7747 454.246 26.9414 454.246 28.418C454.246 29.3477 454.173 30.3867 454.027 31.5352C453.882 32.6836 453.727 33.8503 453.562 35.0352C453.398 36.2018 453.243 37.3503 453.098 38.4805C452.952 39.6107 452.879 40.6406 452.879 41.5703C452.879 42.7005 453.161 43.2656 453.727 43.2656C454.018 43.2656 454.337 43.0924 454.684 42.7461C455.03 42.3815 455.422 41.8346 455.859 41.1055C456.315 40.3581 456.835 39.4193 457.418 38.2891C458.02 37.1589 458.712 35.8099 459.496 34.2422L459.77 33.668L460.891 34.5156L460.617 35.0898C459.542 37.2409 458.621 39.0182 457.855 40.4219C457.108 41.8255 456.434 42.9466 455.832 43.7852C455.23 44.6055 454.656 45.1797 454.109 45.5078C453.581 45.8359 452.988 46 452.332 46C451.949 46 451.576 45.9453 451.211 45.8359C450.846 45.7266 450.527 45.5352 450.254 45.2617C449.98 44.9883 449.762 44.6237 449.598 44.168C449.434 43.694 449.352 43.0924 449.352 42.3633C449.352 41.2695 449.424 40.0391 449.57 38.6719C449.716 37.3047 449.88 35.9375 450.062 34.5703C450.245 33.2031 450.409 31.918 450.555 30.7148C450.701 29.4935 450.773 28.5 450.773 27.7344C450.773 27.0599 450.628 26.5221 450.336 26.1211C450.044 25.7018 449.607 25.4922 449.023 25.4922C448.44 25.4922 447.829 25.7201 447.191 26.1758C446.572 26.6315 445.961 27.224 445.359 27.9531C444.776 28.6641 444.22 29.4661 443.691 30.3594C443.181 31.2526 442.734 32.1367 442.352 33.0117C442.352 34.9258 442.333 36.6029 442.297 38.043C442.26 39.4648 442.206 40.668 442.133 41.6523C442.078 42.6367 441.996 43.4206 441.887 44.0039C441.777 44.569 441.659 44.9518 441.531 45.1523C441.44 45.2799 441.285 45.3984 441.066 45.5078C440.848 45.6172 440.602 45.7083 440.328 45.7812C440.073 45.8542 439.818 45.9089 439.562 45.9453C439.326 45.9818 439.143 46 439.016 46C438.724 46 438.469 45.918 438.25 45.7539C438.049 45.5716 437.949 45.2253 437.949 44.7148C437.949 44.4779 437.967 44.1589 438.004 43.7578C438.059 43.3568 438.122 42.9102 438.195 42.418C438.268 41.9258 438.35 41.3971 438.441 40.832C438.533 40.2669 438.624 39.6927 438.715 39.1094C438.733 38.5625 438.751 37.9518 438.77 37.2773C438.788 36.6029 438.806 35.9375 438.824 35.2812C438.842 34.6068 438.852 33.9688 438.852 33.3672C438.87 32.7474 438.879 32.2188 438.879 31.7812C438.879 30.8516 438.852 30.0039 438.797 29.2383C438.742 28.4727 438.633 27.8164 438.469 27.2695C438.323 26.7227 438.113 26.3034 437.84 26.0117C437.566 25.7018 437.211 25.5469 436.773 25.5469Z" fill="#536384"/>
</svg>
